<svg width="96" height="96" viewBox="0 0 96 96" fill="none" xmlns="http://www.w3.org/2000/svg">
<path d="M80 44C80 61.6731 65.6731 76 48 76C30.3269 76 16 61.6731 16 44C16 26.3269 30.3269 12 48 12C65.6731 12 80 26.3269 80 44Z" fill="#FFBB0D"/>
<path fill-rule="evenodd" clip-rule="evenodd" d="M82.3706 44.0003C82.3706 62.9825 66.9825 78.3706 48.0003 78.3706C29.018 78.3706 13.6299 62.9825 13.6299 44.0003C13.6299 25.018 29.018 9.62988 48.0003 9.62988C66.9825 9.62988 82.3706 25.018 82.3706 44.0003ZM48.0003 76.0003C65.6734 76.0003 80.0003 61.6734 80.0003 44.0003C80.0003 26.3271 65.6734 12.0003 48.0003 12.0003C30.3271 12.0003 16.0003 26.3271 16.0003 44.0003C16.0003 61.6734 30.3271 76.0003 48.0003 76.0003Z" fill="#E89B05"/>
<path fill-rule="evenodd" clip-rule="evenodd" d="M18.3707 45.1855C17.7162 45.1855 17.1855 44.6549 17.1855 44.0004C17.1855 26.9818 30.9818 13.1855 48.0004 13.1855C48.6549 13.1855 49.1855 13.7162 49.1855 14.3707C49.1855 15.0253 48.6549 15.5559 48.0004 15.5559C32.2909 15.5559 19.5559 28.2909 19.5559 44.0004C19.5559 44.6549 19.0253 45.1855 18.3707 45.1855Z" fill="#E8AA0A"/>
<path fill-rule="evenodd" clip-rule="evenodd" d="M77.6302 42.8154C78.2848 42.8154 78.8154 43.3461 78.8154 44.0006C78.8154 61.0192 65.0192 74.8154 48.0006 74.8154C47.3461 74.8154 46.8154 74.2848 46.8154 73.6302C46.8154 72.9757 47.3461 72.4451 48.0006 72.4451C63.71 72.4451 76.4451 59.71 76.4451 44.0006C76.4451 43.3461 76.9757 42.8154 77.6302 42.8154Z" fill="#E8AA0A"/>
<path d="M71.7043 44.0006C71.7043 57.0918 61.0918 67.7043 48.0006 67.7043C34.9094 67.7043 24.2969 57.0918 24.2969 44.0006C24.2969 30.9094 34.9094 20.2969 48.0006 20.2969C61.0918 20.2969 71.7043 30.9094 71.7043 44.0006Z" fill="#FFDD28"/>
<path fill-rule="evenodd" clip-rule="evenodd" d="M74.0739 43.9999C74.0739 58.4002 62.4002 70.0739 47.9999 70.0739C33.5995 70.0739 21.9258 58.4002 21.9258 43.9999C21.9258 29.5995 33.5995 17.9258 47.9999 17.9258C62.4002 17.9258 74.0739 29.5995 74.0739 43.9999ZM47.9999 67.7036C61.091 67.7036 71.7036 57.091 71.7036 43.9999C71.7036 30.9087 61.091 20.2962 47.9999 20.2962C34.9087 20.2962 24.2962 30.9087 24.2962 43.9999C24.2962 57.091 34.9087 67.7036 47.9999 67.7036Z" fill="#E89B05"/>
<path fill-rule="evenodd" clip-rule="evenodd" d="M48 64.1482C59.1276 64.1482 68.1482 55.1276 68.1482 44C68.1482 43.3455 68.6788 42.8148 69.3334 42.8148C69.9879 42.8148 70.5186 43.3455 70.5186 44C70.5186 56.4367 60.4367 66.5186 48 66.5186C47.3455 66.5186 46.8148 65.9879 46.8148 65.3334C46.8149 64.6788 47.3455 64.1482 48 64.1482Z" fill="#ECC704"/>
<path fill-rule="evenodd" clip-rule="evenodd" d="M48 23.8518C36.8724 23.8518 27.8518 32.8724 27.8518 44C27.8518 44.6545 27.3212 45.1852 26.6666 45.1852C26.0121 45.1852 25.4814 44.6545 25.4814 44C25.4814 31.5633 35.5633 21.4814 48 21.4814C48.6545 21.4814 49.1852 22.0121 49.1852 22.6666C49.1852 23.3212 48.6545 23.8518 48 23.8518Z" fill="#FFEF9C"/>
<path d="M11.7759 75.5528L8.72317 69.4472C8.39072 68.7823 8.87421 68 9.61759 68L22.9996 68C23.5518 68 23.9996 68.4477 23.9996 69L23.9996 83C23.9996 83.5523 23.5518 84 22.9996 84L9.61759 84C8.87421 84 8.39072 83.2177 8.72317 82.5528L11.7759 76.4472C11.9167 76.1657 11.9167 75.8343 11.7759 75.5528Z" fill="#0355B6"/>
<path d="M84.2232 75.5528L87.2759 69.4472C87.6084 68.7823 87.1249 68 86.3815 68L72.9996 68C72.4473 68 71.9996 68.4477 71.9996 69L71.9996 83C71.9996 83.5523 72.4473 84 72.9996 84L86.3815 84C87.1249 84 87.6084 83.2177 87.2759 82.5528L84.2232 76.4472C84.0824 76.1657 84.0824 75.8343 84.2232 75.5528Z" fill="#0355B6"/>
<path fill-rule="evenodd" clip-rule="evenodd" d="M9.76384 76L6.93466 70.3416C5.93732 68.347 7.38778 66 9.61794 66L22.9999 66C24.6568 66 25.9999 67.3431 25.9999 69L25.9999 83C25.9999 84.6569 24.6568 86 22.9999 86L9.61794 86C7.38778 86 5.93732 83.653 6.93466 81.6584L9.76384 76ZM9.98687 76.4461C9.98707 76.4465 9.98726 76.4468 9.98746 76.4472L10.8819 76L9.98744 76.4472L9.98687 76.4461ZM86.236 76L89.0652 70.3416C90.0625 68.3469 88.612 66 86.3819 66L72.9999 66C71.3431 66 69.9999 67.3431 69.9999 69L69.9999 83C69.9999 84.6569 71.3431 86 72.9999 86L86.3819 86C88.612 86 90.0625 83.6531 89.0652 81.6584L86.236 76ZM87.2763 69.4472L84.2235 75.5528C84.0827 75.8343 84.0827 76.1657 84.2235 76.4472L87.2763 82.5528C87.6087 83.2177 87.1253 84 86.3819 84L72.9999 84C72.4476 84 71.9999 83.5523 71.9999 83L71.9999 69C71.9999 68.4477 72.4476 68 72.9999 68L86.3819 68C87.1253 68 87.6087 68.7823 87.2763 69.4472ZM8.72352 69.4472L11.7763 75.5528C11.9171 75.8343 11.9171 76.1657 11.7763 76.4472L8.72352 82.5528C8.39107 83.2177 8.87456 84 9.61794 84L22.9999 84C23.5522 84 23.9999 83.5523 23.9999 83L23.9999 69C23.9999 68.4477 23.5522 68 22.9999 68L9.61794 68C8.87456 68 8.39107 68.7823 8.72352 69.4472Z" fill="#023E84"/>
<path fill-rule="evenodd" clip-rule="evenodd" d="M10.154 68.9043C10.3371 68.6138 10.6565 68.4375 11 68.4375H15.25C15.8023 68.4375 16.25 68.8852 16.25 69.4375C16.25 69.9898 15.8023 70.4375 15.25 70.4375H12.5867L14.6521 74.756C14.8904 75.2543 14.6797 75.8513 14.1815 76.0896C13.6832 76.3279 13.0862 76.1172 12.8479 75.619L10.0979 69.869C9.94968 69.5591 9.97087 69.1949 10.154 68.9043Z" fill="#1871DA"/>
<path d="M76 79L76 65C76 64.4477 75.5523 64 75 64L21 64C20.4477 64 20 64.4477 20 65L20 79C20 79.5523 20.4477 80 21 80L75 80C75.5523 80 76 79.5523 76 79Z" fill="#086FE9"/>
<path fill-rule="evenodd" clip-rule="evenodd" d="M78 65L78 79C78 80.6569 76.6568 82 75 82L21 82C19.3431 82 18 80.6569 18 79L18 65C18 63.3431 19.3431 62 21 62L75 62C76.6569 62 78 63.3431 78 65ZM76 65L76 79C76 79.5523 75.5523 80 75 80L21 80C20.4477 80 20 79.5523 20 79L20 65C20 64.4477 20.4477 64 21 64L75 64C75.5523 64 76 64.4477 76 65Z" fill="#023E84"/>
<path fill-rule="evenodd" clip-rule="evenodd" d="M20.625 65.4375C20.625 64.8852 21.0727 64.4375 21.625 64.4375H59.125C59.6773 64.4375 60.125 64.8852 60.125 65.4375C60.125 65.9898 59.6773 66.4375 59.125 66.4375H22.625V73.4375C22.625 73.9898 22.1773 74.4375 21.625 74.4375C21.0727 74.4375 20.625 73.9898 20.625 73.4375V65.4375Z" fill="#3D96FF"/>
<path d="M73.2374 72.3795C72.6711 72.3795 72.2121 71.9317 72.2121 71.3792C72.2121 70.8268 72.6711 70.3789 73.2374 70.3789C73.8036 70.3789 74.2627 70.8268 74.2627 71.3792C74.2627 71.9317 73.8036 72.3795 73.2374 72.3795Z" fill="#055EC8"/>
<path d="M69.3359 71.9798C68.6316 71.9798 68.0606 71.4227 68.0606 70.7355C68.0606 70.0483 68.6316 69.4912 69.3359 69.4912C70.0403 69.4912 70.6113 70.0483 70.6113 70.7355C70.6113 71.4227 70.0403 71.9798 69.3359 71.9798Z" fill="#055EC8"/>
<path d="M71.0742 74.8244C70.722 74.8244 70.4365 74.5458 70.4365 74.2022C70.4365 73.8586 70.722 73.5801 71.0742 73.5801C71.4264 73.5801 71.7119 73.8586 71.7119 74.2022C71.7119 74.5458 71.4264 74.8244 71.0742 74.8244Z" fill="#055EC8"/>
<path d="M69.9736 68.2443C69.6214 68.2443 69.3359 67.9657 69.3359 67.6221C69.3359 67.2785 69.6214 67 69.9736 67C70.3258 67 70.6113 67.2785 70.6113 67.6221C70.6113 67.9657 70.3258 68.2443 69.9736 68.2443Z" fill="#055EC8"/>
<path d="M66.623 74.2023C66.2709 74.2023 65.9854 73.9237 65.9854 73.5801C65.9854 73.2365 66.2709 72.958 66.6231 72.958C66.9752 72.958 67.2607 73.2365 67.2607 73.5801C67.2607 73.9237 66.9752 74.2023 66.623 74.2023Z" fill="#055EC8"/>
<path d="M65.9854 71.0011C65.6332 71.0011 65.3477 70.7226 65.3477 70.379C65.3477 70.0354 65.6332 69.7568 65.9854 69.7568C66.3375 69.7568 66.623 70.0354 66.623 70.379C66.623 70.7226 66.3375 71.0011 65.9854 71.0011Z" fill="#055EC8"/>
<path d="M61.6377 78.2179C61.2855 78.2179 61 77.9394 61 77.5958C61 77.2522 61.2855 76.9736 61.6377 76.9736C61.9899 76.9736 62.2754 77.2522 62.2754 77.5958C62.2754 77.9394 61.9899 78.2179 61.6377 78.2179Z" fill="#055EC8"/>
<path d="M74.3252 75.8429C73.973 75.8429 73.6875 75.5644 73.6875 75.2208C73.6875 74.8772 73.973 74.5986 74.3252 74.5986C74.6774 74.5986 74.9629 74.8772 74.9629 75.2208C74.9629 75.5644 74.6774 75.8429 74.3252 75.8429Z" fill="#055EC8"/>
<path d="M68.2981 77.2057C67.725 77.2057 67.2603 76.7524 67.2603 76.1932C67.2603 75.634 67.725 75.1807 68.2981 75.1807C68.8713 75.1807 69.3359 75.634 69.3359 76.1932C69.3359 76.7524 68.8713 77.2057 68.2981 77.2057Z" fill="#055EC8"/>
<path d="M72.7493 78.2184C72.1761 78.2184 71.7115 77.765 71.7115 77.2059C71.7115 76.6467 72.1761 76.1934 72.7493 76.1934C73.3225 76.1934 73.7871 76.6467 73.7871 77.2059C73.7871 77.765 73.3225 78.2184 72.7493 78.2184Z" fill="#055EC8"/>
<path d="M63.6721 76.2271C63.099 76.2271 62.6343 75.7738 62.6343 75.2146C62.6343 74.6555 63.099 74.2021 63.6721 74.2021C64.2453 74.2021 64.71 74.6555 64.71 75.2146C64.71 75.7738 64.2453 76.2271 63.6721 76.2271Z" fill="#055EC8"/>
<path d="M65.3477 78.5255C64.9955 78.5255 64.71 78.247 64.71 77.9034C64.71 77.5598 64.9955 77.2812 65.3477 77.2812C65.6998 77.2812 65.9854 77.5598 65.9854 77.9034C65.9854 78.247 65.6998 78.5255 65.3477 78.5255Z" fill="#055EC8"/>
</svg>
