<?xml version="1.0" standalone="no"?>
<!DOCTYPE svg PUBLIC "-//W3C//DTD SVG 20010904//EN"
 "http://www.w3.org/TR/2001/REC-SVG-20010904/DTD/svg10.dtd">
<svg version="1.0" xmlns="http://www.w3.org/2000/svg"
 width="1280.000000pt" height="720.000000pt" viewBox="0 0 1280.000000 720.000000"
 preserveAspectRatio="xMidYMid meet">

<g transform="translate(0.000000,720.000000) scale(0.100000,-0.100000)"
fill="#000000" stroke="none">
<path d="M1900 7030 c-181 -66 -431 -240 -557 -388 l-46 -53 7 -82 c13 -163
99 -425 204 -622 41 -77 53 -92 82 -101 178 -59 630 -59 806 -2 36 12 44 22
91 113 109 208 188 451 199 611 l7 93 -89 88 c-195 194 -451 348 -594 359 -39
3 -71 -1 -110 -16z m-7 -78 l27 -28 -140 -58 c-77 -32 -140 -62 -140 -66 0 -5
14 -20 31 -35 17 -14 30 -27 28 -29 -8 -6 -165 -94 -189 -105 -14 -7 9 19 50
57 l75 70 -19 21 c-17 19 -18 24 -5 36 23 23 233 164 245 165 5 0 22 -13 37
-28z m373 -58 c68 -47 124 -88 124 -91 0 -4 -8 -15 -17 -25 -16 -18 -13 -22
53 -90 56 -58 63 -67 34 -51 -48 27 -164 96 -170 101 -3 2 10 17 28 34 19 16
32 31 30 33 -1 1 -64 28 -138 60 -74 32 -137 59 -140 62 -5 5 51 52 63 53 5 0
64 -39 133 -86z m-160 -98 c29 -7 75 -26 103 -41 56 -31 151 -119 151 -141 0
-8 4 -14 9 -14 16 0 62 -120 68 -175 l6 -55 -71 0 -70 0 -7 75 c-6 60 -11 78
-27 86 -11 6 -17 17 -14 25 3 8 -1 14 -8 14 -7 0 -30 14 -52 30 -32 26 -39 29
-46 15 -11 -18 -2 -35 17 -35 14 0 65 -49 65 -62 0 -9 -80 -61 -85 -56 -2 2
-23 75 -47 163 l-45 160 -55 3 c-65 3 -54 22 -112 -191 -19 -71 -37 -131 -39
-134 -7 -6 -87 36 -87 46 0 11 60 93 79 108 14 11 14 12 1 13 -19 0 -66 -29
-111 -72 -32 -29 -38 -42 -47 -102 -6 -38 -9 -73 -6 -78 3 -4 -27 -8 -66 -8
l-72 0 7 53 c7 50 38 138 58 165 6 7 19 10 31 6 20 -6 20 -6 2 9 -19 14 -18
16 26 63 114 121 288 172 444 130z m-116 -26 c0 -5 -8 -6 -17 -3 -16 6 -16 5
0 -17 25 -36 22 -70 -5 -71 l-23 -2 23 -4 c14 -3 22 -12 22 -24 0 -18 -1 -19
-24 -4 -13 9 -26 22 -29 28 -8 22 2 90 15 99 18 11 38 10 38 -2z m46 2 c7 -4
16 -24 22 -44 10 -35 8 -40 -21 -69 l-32 -31 32 16 c18 9 34 16 36 16 6 0 29
-91 24 -96 -2 -2 -20 8 -41 22 -21 14 -40 24 -42 21 -3 -2 17 -18 43 -36 30
-19 41 -31 30 -31 -10 0 -16 -4 -13 -8 3 -5 -13 -19 -35 -31 l-39 -23 1 96 c2
90 3 96 23 97 20 2 20 2 -1 6 -28 5 -31 38 -6 73 16 22 16 23 0 17 -9 -3 -17
-2 -17 3 0 12 20 13 36 2z m-72 -137 c23 -21 26 -32 26 -90 l0 -66 -40 22
c-21 12 -37 26 -34 31 3 4 -3 8 -13 8 -11 0 0 12 30 31 26 18 46 34 43 36 -2
3 -21 -7 -42 -21 -21 -14 -39 -24 -40 -23 -2 1 2 24 8 50 11 53 23 58 62 22z
m4 -160 c11 -10 7 -16 -22 -33 -30 -18 -40 -20 -61 -10 -28 13 -30 21 -14 67
l11 31 37 -21 c20 -12 42 -28 49 -34z m156 9 c6 -26 3 -34 -17 -47 -22 -14
-27 -14 -62 7 l-38 23 29 18 c16 10 38 24 49 31 24 15 31 9 39 -32z m-329 -40
c38 -22 43 -28 36 -47 -7 -19 -17 -22 -76 -25 l-67 -3 7 33 c17 76 32 82 100
42z m474 -11 c18 -63 17 -64 -46 -61 -54 3 -58 5 -61 28 -2 20 6 30 35 47 52
30 60 29 72 -14z m-279 -18 c0 -40 -1 -40 -42 -19 l-31 16 29 19 c40 26 44 24
44 -16z m51 16 l23 -18 -32 -17 -32 -17 0 36 c0 40 8 43 41 16z m-177 -30 c4
-5 0 -12 -6 -15 -7 -3 -1 -3 13 0 15 3 30 1 34 -6 5 -8 -3 -10 -26 -8 -23 2
-35 9 -37 21 -4 18 13 24 22 8z m284 -8 c-2 -13 -14 -19 -43 -21 -32 -2 -37 0
-22 8 9 6 27 9 40 6 12 -3 16 -3 9 0 -13 6 -7 24 9 24 6 0 9 -8 7 -17z m-659
-35 c0 -13 -3 -17 -6 -10 -4 10 -8 10 -19 1 -11 -9 -14 -8 -14 2 0 11 -2 11
-10 -1 -8 -12 -10 -11 -10 8 0 18 6 22 30 22 25 0 30 -4 29 -22z m192 -10 c0
-10 2 -10 6 0 3 8 27 12 69 12 35 0 64 -1 64 -2 0 -2 -6 -23 -14 -48 -9 -31
-22 -51 -44 -65 -17 -11 -29 -25 -27 -32 2 -7 -9 -15 -29 -19 -19 -3 -48 -14
-65 -25 -27 -16 -30 -22 -21 -39 10 -19 13 -19 40 -5 43 22 151 19 247 -7 46
-13 83 -26 83 -29 0 -10 -60 -1 -112 17 -55 18 -171 21 -212 5 -27 -11 -28
-13 -12 -29 13 -15 27 -17 78 -14 62 5 258 -34 258 -50 0 -13 -43 -9 -110 12
-65 20 -180 27 -180 12 0 -19 38 -40 84 -46 27 -3 72 -13 100 -21 28 -8 63
-17 79 -20 21 -4 27 -11 27 -30 0 -24 -2 -25 -42 -19 -221 31 -379 188 -404
399 l-7 55 72 0 c50 0 71 -4 72 -12z m182 -49 c-27 -15 -49 -26 -51 -24 -2 2
2 21 7 43 l11 40 40 -15 40 -16 -47 -28z m82 51 c-8 -13 -45 -13 -65 0 -11 7
-3 10 28 10 26 0 41 -4 37 -10z m150 -5 c-30 -13 -55 -10 -55 6 0 5 19 9 43 8
l42 -1 -30 -13z m196 -2 c1 -17 2 -17 6 0 4 14 16 17 75 17 l71 0 -6 -65 c-18
-195 -191 -365 -394 -388 -40 -5 -43 -4 -43 19 0 14 6 26 13 28 76 20 122 31
173 40 58 11 94 28 94 47 0 16 -116 9 -176 -11 -65 -22 -104 -25 -104 -10 0 6
8 10 18 10 9 0 46 9 82 21 47 14 86 19 137 17 58 -2 76 1 90 14 15 16 15 18
-13 28 -44 17 -161 12 -229 -9 -33 -10 -66 -16 -74 -13 -9 3 18 16 59 29 89
27 206 31 250 8 27 -14 30 -14 40 5 9 17 6 23 -21 39 -17 11 -46 22 -65 25
-23 5 -31 11 -28 21 4 9 -4 19 -20 26 -18 9 -29 24 -37 53 -5 23 -12 47 -14
54 -3 9 12 12 55 12 50 0 60 -3 61 -17z m259 -3 c0 -16 -7 -20 -30 -20 -16 0
-30 4 -30 9 0 4 11 6 25 3 18 -3 25 0 25 12 0 9 2 16 5 16 3 0 5 -9 5 -20z
m-378 -29 c5 -18 7 -35 4 -38 -2 -3 -26 8 -52 23 l-48 28 30 13 c42 18 57 12
66 -26z m-682 0 c0 -5 -7 -12 -16 -15 -8 -3 -12 -10 -9 -16 3 -6 -4 -10 -16
-10 -21 0 -21 1 -5 19 17 18 17 19 -1 24 -10 3 -4 5 15 6 17 0 32 -3 32 -8z
m479 -5 c-2 -2 -15 -9 -29 -15 -24 -11 -24 -11 -6 3 16 13 49 24 35 12z m134
-46 c7 0 21 -7 31 -15 18 -14 13 -15 -57 -15 l-77 0 0 35 0 34 46 -19 c25 -11
51 -20 57 -20z m438 31 c-8 -5 -11 -16 -8 -24 4 -12 1 -14 -11 -10 -9 3 -23
11 -30 16 -17 13 2 27 38 27 18 0 21 -3 11 -9z m-551 -31 l0 -30 -82 0 c-45 0
-79 2 -76 6 8 7 130 52 146 53 7 1 12 -11 12 -29z m-490 -4 c0 -2 3 -13 7 -23
6 -16 5 -16 -10 -4 -14 11 -17 11 -18 0 0 -10 -2 -11 -6 -1 -7 19 -23 14 -17
-5 5 -15 4 -16 -5 -3 -15 21 -14 28 7 33 24 7 42 8 42 3z m1015 -22 c13 -5 14
-9 3 -15 -11 -7 -10 -11 2 -20 12 -8 10 -10 -10 -5 -14 3 -28 6 -32 6 -5 0 -8
9 -8 20 0 20 15 25 45 14z m-525 -45 c0 -30 -1 -31 -37 -26 -64 8 -173 39
-167 48 3 5 50 9 105 9 l99 0 0 -31z m198 22 c13 -8 -82 -38 -155 -48 -31 -5
-33 -3 -33 26 l0 31 88 0 c48 0 93 -4 100 -9z m-663 -41 c-3 -4 -16 -10 -30
-12 -20 -4 -23 -3 -14 8 6 8 15 11 20 8 5 -3 9 0 9 6 0 6 -10 8 -25 4 -31 -8
-33 4 -2 15 16 7 25 5 34 -6 7 -9 10 -19 8 -23z m941 4 c-4 -12 -2 -15 9 -10
8 3 15 0 15 -6 0 -7 4 -7 14 1 12 10 13 8 9 -8 -6 -25 -5 -24 -38 -9 -24 11
-32 28 -18 41 11 12 15 8 9 -9z m-930 -69 c-19 -19 -46 -13 -46 9 0 24 32 37
49 21 12 -12 11 -16 -3 -30z m940 10 c18 -14 18 -14 -6 -15 -24 -1 -24 -1 -6
-15 24 -18 16 -19 -19 -3 -31 14 -32 28 -2 28 18 0 19 2 7 10 -8 5 -10 10 -4
10 5 0 19 -7 30 -15z m-922 -40 c-10 -8 -23 -14 -29 -14 -5 0 -1 6 9 14 11 8
24 15 30 15 5 0 1 -7 -10 -15z m887 -15 l24 -21 -32 16 c-32 15 -42 25 -24 25
5 0 19 -9 32 -20z m-20 -26 c17 -18 19 -23 6 -18 -13 5 -16 2 -11 -10 5 -12 2
-15 -12 -9 -12 4 -15 3 -9 -6 6 -10 3 -11 -14 -2 -27 15 -28 35 -1 28 16 -4
18 -2 10 13 -5 9 -6 20 -3 24 8 8 6 9 34 -20z m-801 -19 c0 -24 -27 -37 -50
-25 l-22 12 23 24 c17 18 25 21 36 13 7 -6 13 -17 13 -24z m40 -30 c0 -2 -5
-15 -11 -28 -10 -23 -12 -24 -28 -8 -15 14 -15 17 -1 28 15 12 40 17 40 8z
m681 -35 c19 -15 21 -19 7 -20 -9 0 -19 6 -22 13 -3 6 -3 1 0 -13 8 -31 -11
-16 -21 18 -8 27 5 28 36 2z m-633 -18 c11 10 10 5 -4 -17 -18 -28 -19 -29
-22 -7 -3 20 -6 21 -20 10 -13 -11 -15 -11 -7 2 22 39 30 44 33 21 3 -19 6
-20 20 -9z m589 -49 c-1 -1 -13 10 -27 25 -18 18 -20 24 -7 19 12 -4 17 -1 18
11 1 9 5 1 9 -18 5 -19 8 -36 7 -37z m-512 17 c4 -6 -1 -7 -12 -3 -15 5 -16 3
-5 -8 18 -20 15 -39 -8 -39 -11 0 -20 4 -20 10 0 5 8 7 18 3 14 -5 15 -3 5 8
-7 7 -13 19 -13 26 0 15 26 18 35 3z m451 -6 c-3 -8 -2 -13 2 -10 4 2 14 1 22
-5 12 -7 10 -9 -7 -9 -12 0 -24 -6 -26 -12 -4 -8 -6 -7 -6 4 -1 9 -4 23 -7 32
-4 11 -1 16 11 16 11 0 15 -5 11 -16z m-421 -34 c-8 -37 0 -38 20 -2 15 26 16
26 9 2 -3 -14 -10 -29 -15 -34 -15 -16 -32 10 -25 38 9 36 19 33 11 -4z m383
3 c2 -14 -4 -26 -16 -32 -17 -9 -22 -7 -30 18 -12 34 -6 43 23 39 12 -2 21
-12 23 -25z m-307 -15 c14 -17 17 -18 13 -5 -3 9 -1 17 5 17 14 0 15 -47 1
-55 -5 -3 -10 -1 -10 5 0 6 -4 8 -10 5 -5 -3 -10 2 -10 12 0 15 -2 16 -10 3
-8 -12 -10 -9 -10 13 0 33 6 34 31 5z m210 -11 c4 -15 3 -27 -2 -27 -5 0 -9 5
-9 10 0 6 -5 10 -11 10 -6 0 -9 -7 -5 -15 3 -8 2 -15 -3 -15 -13 0 -19 59 -7
64 19 8 30 0 37 -27z m-121 -7 c0 -23 -4 -30 -20 -30 -16 0 -20 7 -20 30 0 23
4 30 20 30 16 0 20 -7 20 -30z m45 21 c-19 -8 -19 -8 0 -19 20 -11 20 -11 0
-12 l-20 -1 20 -9 c19 -8 19 -9 -2 -9 -19 -1 -23 4 -23 29 0 25 4 30 23 29 20
0 21 -1 2 -8z"/>
<path d="M2210 6720 c-9 -6 -10 -10 -3 -10 6 0 15 5 18 10 8 12 4 12 -15 0z"/>
<path d="M1828 6543 c7 -3 16 -2 19 1 4 3 -2 6 -13 5 -11 0 -14 -3 -6 -6z"/>
<path d="M2148 6543 c7 -3 16 -2 19 1 4 3 -2 6 -13 5 -11 0 -14 -3 -6 -6z"/>
<path d="M1950 6715 c-7 -8 -8 -15 -2 -15 5 0 15 7 22 15 7 8 8 15 2 15 -5 0
-15 -7 -22 -15z"/>
<path d="M2015 6720 c3 -5 16 -15 28 -21 22 -12 22 -12 3 10 -19 21 -43 30
-31 11z"/>
<path d="M2480 6220 c0 -5 5 -10 10 -10 6 0 10 5 10 10 0 6 -4 10 -10 10 -5 0
-10 -4 -10 -10z"/>
<path d="M1501 6113 c0 -11 3 -13 6 -5 2 6 9 10 13 7 5 -3 11 -1 15 5 3 5 -3
10 -14 10 -14 0 -21 -6 -20 -17z"/>
<path d="M1581 6017 c-6 -8 -8 -17 -4 -20 7 -8 33 11 33 24 0 13 -16 11 -29
-4z"/>
<path d="M2162 5864 c1 -9 9 -19 16 -22 9 -3 13 2 10 14 -1 9 -9 19 -16 22 -9
3 -13 -2 -10 -14z"/>
<path d="M1950 5840 c0 -5 5 -10 10 -10 6 0 10 5 10 10 0 6 -4 10 -10 10 -5 0
-10 -4 -10 -10z"/>
<path d="M9285 6979 c-12 -41 -78 -179 -85 -179 -4 0 -10 21 -14 48 -11 78
-19 80 -60 9 -21 -36 -78 -118 -127 -183 -121 -162 -164 -247 -164 -332 0 -63
1 -65 40 -99 l40 -35 8 34 c19 77 38 138 46 142 4 3 11 -70 15 -162 6 -162 7
-168 35 -207 16 -23 48 -50 77 -65 43 -22 62 -25 149 -25 91 0 106 3 165 31
159 75 246 216 238 384 -4 93 -30 147 -166 345 -53 77 -117 180 -143 229 -41
78 -48 86 -54 65z m70 -366 c108 -126 147 -210 147 -309 -1 -73 -18 -118 -67
-172 -49 -54 -106 -76 -189 -70 -53 3 -74 10 -108 34 -62 43 -101 112 -106
185 -6 78 15 134 85 226 53 71 156 173 173 173 5 0 34 -30 65 -67z"/>
<path d="M3140 6633 c-116 -102 -209 -190 -208 -195 2 -4 97 -91 212 -193
l209 -185 56 49 c250 218 366 323 366 330 0 6 -95 93 -212 195 l-212 186 -211
-187z m254 -319 c19 -18 21 -55 4 -72 -7 -7 -24 -12 -38 -12 -14 0 -31 5 -38
12 -28 28 -2 88 38 88 10 0 26 -7 34 -16z"/>
<path d="M4564 6716 c-3 -7 18 -132 46 -277 50 -252 51 -264 33 -276 -43 -31
-53 -44 -53 -68 0 -14 10 -33 21 -43 29 -23 35 -31 62 -72 31 -49 85 -73 166
-74 125 -1 163 43 181 209 7 55 14 103 16 107 7 11 44 10 44 -1 0 -5 19 -11
43 -14 23 -3 123 -22 221 -42 147 -30 181 -34 191 -23 15 16 59 224 50 238 -3
5 -45 10 -94 10 -48 0 -90 3 -93 6 -4 3 9 63 28 132 37 139 40 167 21 175 -7
2 -89 -8 -182 -24 -207 -35 -215 -35 -215 -9 0 31 -29 38 -205 49 -217 15
-274 14 -281 -3z m866 -48 c0 -2 -18 -69 -39 -150 -21 -81 -36 -150 -33 -153
3 -3 48 -5 100 -5 l95 0 -7 -47 c-3 -26 -11 -52 -16 -57 -6 -6 -38 -4 -92 6
-46 9 -87 13 -91 9 -4 -4 34 -16 85 -27 89 -18 93 -20 90 -44 -2 -14 -7 -28
-10 -31 -4 -4 -78 7 -164 24 l-158 31 0 38 c0 24 -4 37 -10 33 -5 -3 -10 -14
-10 -25 0 -10 -7 -21 -16 -24 -28 -11 -54 -6 -54 9 0 18 -12 19 -61 5 -37 -10
-37 -11 -43 -78 -17 -174 -17 -175 -51 -209 -31 -31 -38 -33 -100 -33 -89 0
-132 21 -156 76 -11 23 -28 44 -39 47 -26 7 -36 33 -19 53 12 15 14 14 19 -7
4 -15 13 -24 25 -24 15 0 20 7 20 30 1 29 3 30 47 33 25 2 62 -4 82 -12 56
-24 46 -53 -29 -79 -35 -12 -36 -14 -21 -30 39 -39 108 -30 125 15 5 13 16
129 25 258 9 129 19 245 22 258 4 18 11 22 45 22 l41 0 -7 -110 -7 -110 31 0
c29 0 31 2 31 38 -1 60 -19 174 -32 189 -6 7 -8 16 -6 19 12 11 388 71 388 62z
m-547 -502 c-4 -22 -8 -23 -24 -13 -22 14 -24 23 -6 30 26 11 34 6 30 -17z"/>
<path d="M5276 6592 c-4 -7 -26 -194 -26 -223 0 -5 9 -9 20 -9 14 0 22 10 29
38 52 198 52 202 12 202 -17 0 -32 -4 -35 -8z"/>
<path d="M5121 6578 c0 -7 8 -58 17 -113 13 -74 22 -101 33 -103 22 -4 29 26
29 136 l0 92 -40 0 c-26 0 -40 -4 -39 -12z"/>
<path d="M4960 6530 c0 -5 5 -10 10 -10 6 0 10 5 10 10 0 6 -4 10 -10 10 -5 0
-10 -4 -10 -10z"/>
<path d="M4950 6490 c0 -5 5 -10 10 -10 6 0 10 5 10 10 0 6 -4 10 -10 10 -5 0
-10 -4 -10 -10z"/>
<path d="M4950 6450 c0 -5 5 -10 10 -10 6 0 10 5 10 10 0 6 -4 10 -10 10 -5 0
-10 -4 -10 -10z"/>
<path d="M5250 6290 c0 -5 5 -10 11 -10 5 0 7 5 4 10 -3 6 -8 10 -11 10 -2 0
-4 -4 -4 -10z"/>
<path d="M4760 6110 c0 -15 5 -20 18 -18 9 2 17 10 17 18 0 8 -8 16 -17 18
-13 2 -18 -3 -18 -18z"/>
<path d="M6080 6330 l0 -320 320 0 320 0 0 320 0 320 -320 0 -320 0 0 -320z
m615 0 l0 -295 -297 -3 -298 -2 0 300 0 300 298 -2 297 -3 0 -295z"/>
<path d="M6192 6534 c-12 -8 -27 -25 -33 -37 -12 -21 -11 -21 8 -4 11 9 28 17
39 17 48 0 60 -59 19 -86 l-26 -17 31 -18 c38 -23 55 -64 41 -96 -13 -29 -40
-29 -75 -2 -28 22 -56 20 -56 -5 0 -48 109 -45 153 4 34 38 37 97 7 125 -17
16 -18 20 -5 38 46 66 -35 129 -103 81z"/>
<path d="M6395 6335 c-38 -118 -66 -218 -62 -221 18 -18 37 15 72 127 21 68
51 164 67 214 15 49 28 91 28 92 0 2 -8 3 -18 3 -15 0 -31 -39 -87 -215z"/>
<path d="M6557 6385 c-39 -18 -44 -23 -27 -28 19 -5 20 -13 20 -116 0 -94 -3
-111 -17 -120 -14 -8 -1 -10 51 -11 66 0 68 0 47 18 -19 15 -21 29 -23 148
l-3 131 -48 -22z"/>
<path d="M7120 6476 c0 -37 4 -66 10 -66 6 0 10 26 10 59 0 33 -4 63 -10 66
-6 4 -10 -18 -10 -59z"/>
<path d="M7339 6535 c-2 -6 -2 -35 1 -65 l5 -55 5 41 c5 43 -2 97 -11 79z"/>
<path d="M6835 6516 c-7 -15 -2 -25 23 -46 18 -15 32 -33 32 -40 0 -10 3 -11
10 -4 15 15 3 39 -25 54 -13 7 -26 22 -28 34 -3 20 -4 20 -12 2z"/>
<path d="M6885 6520 c3 -5 8 -10 11 -10 2 0 4 5 4 10 0 6 -5 10 -11 10 -5 0
-7 -4 -4 -10z"/>
<path d="M6927 6503 c-10 -10 -8 -56 3 -73 7 -11 10 -2 10 33 0 48 -1 52 -13
40z"/>
<path d="M6977 6463 c8 -55 19 -60 15 -8 -2 25 -8 45 -12 45 -5 0 -6 -17 -3
-37z"/>
<path d="M7028 6459 c-2 -22 0 -43 4 -45 4 -3 8 15 8 40 0 57 -7 60 -12 5z"/>
<path d="M7173 6455 c0 -27 2 -38 4 -22 2 15 2 37 0 50 -2 12 -4 0 -4 -28z"/>
<path d="M7420 6493 c1 -13 39 -79 40 -69 0 18 -24 76 -32 76 -4 0 -8 -3 -8
-7z"/>
<path d="M7064 6464 c-4 -14 -2 -30 4 -36 6 -6 11 2 14 26 5 41 -8 49 -18 10z"/>
<path d="M7205 6471 c-6 -19 2 -51 14 -51 3 0 6 16 6 35 0 38 -10 46 -20 16z"/>
<path d="M7265 6455 c0 -19 3 -35 7 -35 11 0 21 47 13 59 -12 20 -20 11 -20
-24z"/>
<path d="M7390 6455 c0 -22 4 -34 10 -30 6 3 10 17 10 30 0 13 -4 27 -10 30
-6 4 -10 -8 -10 -30z"/>
<path d="M6831 6424 c0 -11 3 -14 6 -6 3 7 2 16 -1 19 -3 4 -6 -2 -5 -13z"/>
<path d="M7430 6245 c0 -98 1 -105 20 -105 17 0 20 7 20 46 0 51 14 84 35 84
21 0 35 -33 35 -84 0 -39 3 -46 20 -46 18 0 20 7 20 63 0 83 -13 102 -68 94
-41 -5 -42 -4 -42 24 0 22 -5 29 -20 29 -19 0 -20 -7 -20 -105z"/>
<path d="M7590 6250 c0 -100 0 -101 27 -111 14 -5 32 -8 40 -5 18 7 17 36 -2
36 -11 0 -15 12 -15 50 0 38 4 50 15 50 8 0 15 7 15 15 0 8 -6 15 -14 15 -8 0
-16 10 -18 23 -2 14 -11 23 -25 25 -23 3 -23 1 -23 -98z"/>
<path d="M7947 6344 c-4 -4 -7 -30 -7 -58 -1 -43 -2 -48 -12 -31 -25 46 -82
60 -126 29 -20 -14 -22 -14 -22 0 0 19 -31 21 -48 4 -9 -9 -12 -9 -12 0 0 7
-9 12 -20 12 -18 0 -20 -7 -20 -80 0 -73 2 -80 20 -80 17 0 20 7 20 41 0 49
15 79 39 79 15 0 18 -7 17 -41 -1 -33 5 -46 27 -65 16 -13 37 -24 47 -24 28 0
68 20 75 38 8 22 -2 27 -29 13 -30 -17 -70 -11 -74 12 -3 15 5 17 57 17 57 0
61 -2 61 -22 0 -34 13 -49 45 -51 21 -1 30 3 33 16 2 10 -3 17 -12 17 -12 0
-16 11 -16 50 0 38 4 50 15 50 8 0 15 7 15 15 0 8 -6 15 -14 15 -8 0 -16 10
-18 22 -3 23 -27 35 -41 22z m-68 -87 c13 -17 5 -27 -24 -27 -12 0 -25 3 -28
7 -9 8 12 33 28 33 7 0 18 -6 24 -13z"/>
<path d="M6830 6219 c0 -77 1 -79 25 -79 23 0 24 4 27 63 3 54 5 62 23 62 18
0 20 -8 23 -62 3 -59 4 -63 27 -63 24 0 25 3 25 60 0 45 4 62 15 66 28 11 45
-16 45 -72 0 -47 2 -54 20 -54 16 0 20 7 20 33 l1 32 15 -28 c29 -54 91 -61
136 -16 24 23 33 27 39 17 5 -7 9 -16 9 -19 0 -9 48 -29 69 -29 24 0 71 37 71
56 0 19 -37 18 -48 -2 -5 -9 -18 -14 -33 -12 -21 3 -24 8 -24 42 0 49 24 69
53 43 20 -19 52 -23 52 -7 0 23 -41 50 -76 50 -27 0 -43 -7 -65 -31 -16 -17
-29 -26 -29 -20 0 25 -40 51 -78 51 -38 0 -72 -24 -85 -60 -3 -9 -6 -5 -6 11
-1 14 -6 30 -13 37 -15 15 -74 16 -83 2 -5 -7 -11 -8 -19 -1 -6 5 -40 10 -74
9 l-62 -1 0 -78z m369 37 c7 -8 11 -30 9 -48 -2 -28 -7 -34 -30 -36 -22 -3
-30 2 -40 22 -23 51 28 102 61 62z"/>
<path d="M2881 5856 c-9 -10 -8 -15 2 -19 8 -3 13 3 13 14 0 23 0 23 -15 5z"/>
<path d="M2915 5859 c-4 -6 -5 -12 -2 -15 2 -3 7 2 10 11 7 17 1 20 -8 4z"/>
<path d="M2946 5852 c4 -14 0 -22 -13 -25 -17 -4 -17 -5 0 -6 21 -1 34 26 19
41 -8 8 -9 5 -6 -10z"/>
<path d="M3005 5860 c-3 -5 -1 -10 4 -10 6 0 11 5 11 10 0 6 -2 10 -4 10 -3 0
-8 -4 -11 -10z"/>
<path d="M3080 5860 c0 -5 5 -10 11 -10 5 0 7 5 4 10 -3 6 -8 10 -11 10 -2 0
-4 -4 -4 -10z"/>
<path d="M3480 5861 c0 -10 19 -25 25 -20 1 2 -3 10 -11 17 -8 7 -14 8 -14 3z"/>
<path d="M3646 5852 c4 -14 0 -22 -13 -25 -17 -4 -17 -5 0 -6 21 -1 34 26 19
41 -8 8 -9 5 -6 -10z"/>
<path d="M3736 5848 c10 -14 21 -24 23 -22 3 3 -6 15 -18 27 l-24 22 19 -27z"/>
<path d="M3361 5844 c0 -11 3 -14 6 -6 3 7 2 16 -1 19 -3 4 -6 -2 -5 -13z"/>
<path d="M3778 5843 c7 -3 16 -2 19 1 4 3 -2 6 -13 5 -11 0 -14 -3 -6 -6z"/>
<path d="M3844 5842 c3 -5 0 -13 -6 -15 -9 -4 -10 -6 -1 -6 17 -1 25 16 12 25
-7 4 -9 3 -5 -4z"/>
<path d="M10360 5785 c0 -51 3 -65 15 -65 8 0 15 9 15 20 0 14 7 20 23 20 29
0 47 18 47 47 0 26 -27 43 -69 43 l-31 0 0 -65z m68 18 c-5 -26 -38 -29 -38
-4 0 15 6 21 21 21 14 0 19 -5 17 -17z"/>
<path d="M10484 5836 c-3 -7 -4 -35 -2 -62 l3 -49 48 -3 c37 -2 47 0 47 12 0
12 -10 16 -36 16 -21 0 -33 4 -29 10 3 6 17 10 31 10 15 0 24 6 24 15 0 9 -9
15 -25 15 -14 0 -25 5 -25 10 0 6 14 10 30 10 20 0 30 5 30 15 0 20 -88 21
-96 1z"/>
<path d="M10600 5835 c0 -8 9 -15 20 -15 17 0 20 -7 20 -50 0 -38 4 -50 15
-50 11 0 15 12 15 50 0 43 3 50 20 50 11 0 20 7 20 15 0 12 -13 15 -55 15 -42
0 -55 -3 -55 -15z"/>
<path d="M10730 5785 c0 -51 3 -65 15 -65 8 0 15 9 15 20 0 11 4 20 10 20 5 0
15 -9 22 -20 7 -11 21 -20 31 -20 15 0 16 3 7 20 -8 14 -8 26 0 40 20 38 -12
70 -71 70 l-29 0 0 -65z m68 18 c-2 -10 -10 -18 -18 -18 -8 0 -16 8 -18 18 -2
12 3 17 18 17 15 0 20 -5 18 -17z"/>
<path d="M10875 5825 c-30 -29 -31 -45 -4 -79 13 -17 30 -26 49 -26 29 0 70
38 70 65 0 7 -9 24 -21 39 -26 33 -62 34 -94 1z m70 -40 c0 -25 -4 -30 -25
-30 -16 0 -26 6 -28 18 -6 30 6 49 30 45 18 -2 23 -9 23 -33z"/>
<path d="M11010 5785 c0 -51 3 -65 15 -65 10 0 15 10 15 30 0 38 10 38 35 0
32 -49 45 -39 45 36 0 48 -3 65 -12 62 -7 -3 -15 -18 -18 -34 l-5 -29 -23 33
c-37 52 -52 43 -52 -33z"/>
<path d="M11174 5795 c-28 -65 -29 -75 -9 -75 8 0 15 5 15 10 0 14 57 13 62
-1 2 -6 11 -10 20 -8 14 4 13 12 -9 67 -15 36 -31 62 -40 62 -8 0 -25 -25 -39
-55z m46 -10 c0 -8 -4 -15 -10 -15 -5 0 -10 7 -10 15 0 8 5 15 10 15 6 0 10
-7 10 -15z"/>
<path d="M11312 5838 c-22 -22 -14 -49 18 -61 39 -15 39 -31 0 -24 -16 4 -32
2 -35 -3 -9 -15 40 -33 68 -26 47 12 44 63 -4 73 -16 3 -29 10 -29 15 0 6 11
8 25 6 29 -6 45 10 24 23 -20 12 -53 11 -67 -3z"/>
<path d="M3105 5830 c3 -5 8 -10 11 -10 2 0 4 5 4 10 0 6 -5 10 -11 10 -5 0
-7 -4 -4 -10z"/>
<path d="M3388 5828 c5 -5 16 -8 23 -6 8 3 3 7 -10 11 -17 4 -21 3 -13 -5z"/>
<path d="M3677 5829 c7 -7 15 -10 18 -7 3 3 -2 9 -12 12 -14 6 -15 5 -6 -5z"/>
<path d="M3038 5823 c7 -3 16 -2 19 1 4 3 -2 6 -13 5 -11 0 -14 -3 -6 -6z"/>
<path d="M3788 5823 c7 -3 16 -2 19 1 4 3 -2 6 -13 5 -11 0 -14 -3 -6 -6z"/>
<path d="M8530 5725 l0 -95 61 0 c33 0 69 5 80 10 21 12 25 41 9 71 -7 12 -7
25 -2 36 24 42 -17 73 -98 73 l-50 0 0 -95z m109 56 c27 -17 4 -41 -39 -41
-32 0 -40 4 -40 18 0 10 3 22 7 25 9 10 55 8 72 -2z m11 -86 c19 -22 3 -35
-46 -35 -40 0 -44 2 -44 25 0 22 4 25 39 25 22 0 44 -6 51 -15z"/>
<path d="M8997 5813 c-4 -3 -7 -18 -7 -33 0 -24 -3 -26 -35 -22 -46 6 -75 -19
-75 -64 0 -40 42 -79 75 -69 11 4 30 6 43 6 21 -1 22 2 22 94 0 87 -5 107 -23
88z m-11 -108 c7 -29 -10 -55 -36 -55 -26 0 -43 26 -36 55 5 20 13 25 36 25
23 0 31 -5 36 -25z"/>
<path d="M9227 5813 c-4 -3 -7 -46 -7 -95 0 -72 3 -88 15 -88 9 0 15 9 15 25
0 14 4 25 10 25 5 0 17 -11 26 -25 9 -14 26 -25 37 -25 20 0 19 2 -6 28 -32
34 -33 43 -7 67 11 10 20 22 20 27 0 16 -24 8 -52 -19 l-28 -27 0 57 c0 53 -7
67 -23 50z"/>
<path d="M9427 5814 c-4 -4 -7 -47 -7 -96 l0 -88 71 0 c52 0 70 3 67 13 -3 6
-25 13 -51 15 l-46 3 -3 76 c-3 70 -13 95 -31 77z"/>
<path d="M9590 5725 c0 -76 3 -95 15 -95 10 0 15 16 17 63 l3 62 48 -62 c27
-35 52 -63 58 -63 5 0 9 43 9 96 0 72 -3 95 -12 92 -8 -3 -14 -27 -16 -61 l-3
-57 -50 60 c-27 33 -54 60 -59 60 -6 0 -10 -41 -10 -95z"/>
<path d="M9808 5797 c-34 -32 -43 -76 -24 -120 11 -28 23 -38 56 -48 35 -11
46 -10 75 4 31 15 35 21 35 57 l0 40 -40 0 c-42 0 -56 -16 -18 -22 32 -4 35
-35 5 -49 -41 -19 -81 7 -85 55 -5 56 20 80 75 72 46 -6 65 7 34 23 -34 19
-86 13 -113 -12z"/>
<path d="M8726 5738 c-9 -12 -16 -35 -16 -49 0 -35 45 -73 75 -64 11 4 30 6
43 6 21 -1 22 3 22 62 l0 63 -54 2 c-47 2 -57 -1 -70 -20z m94 -41 c0 -43 -44
-63 -70 -32 -16 19 -5 62 18 68 27 6 52 -11 52 -36z"/>
<path d="M9066 5742 c-19 -22 -21 -71 -3 -96 13 -18 21 -19 105 -16 20 0 22 5
22 64 l0 63 -54 2 c-40 1 -57 -4 -70 -17z m78 -15 c38 -27 -2 -95 -41 -71 -25
16 -29 55 -7 71 10 7 21 13 24 13 3 0 14 -6 24 -13z"/>
<path d="M930 5178 c-62 -34 -101 -93 -107 -168 -8 -82 21 -140 93 -186 50
-32 94 -80 94 -103 0 -19 16 -12 30 14 8 14 42 43 76 65 119 75 154 177 99
287 -37 73 -89 106 -174 111 -55 3 -74 -1 -111 -20z m134 -119 c38 -18 51 -60
32 -98 -42 -81 -171 -26 -136 59 18 43 60 59 104 39z"/>
<path d="M10283 4981 c-187 -64 -257 -277 -145 -441 100 -147 320 -163 444
-34 153 160 78 425 -134 481 -68 17 -102 16 -165 -6z m156 -27 c17 -4 31 -10
31 -15 0 -5 -29 -47 -65 -93 -36 -46 -65 -87 -65 -90 0 -3 41 -3 92 1 77 5 90
4 83 -8 -41 -67 -196 -299 -199 -299 -3 0 22 57 55 126 33 70 58 128 57 129
-2 1 -48 -4 -102 -11 -55 -8 -101 -13 -102 -11 -3 3 93 163 152 255 16 24 18
25 63 16z"/>
<path d="M9094 4920 c-33 -13 -64 -59 -64 -94 0 -17 9 -49 19 -71 l19 -40 1
40 c2 81 58 135 140 135 l46 1 -35 19 c-37 20 -91 25 -126 10z"/>
<path d="M6816 4843 c9 -16 27 -43 38 -61 25 -38 42 -44 120 -40 l57 3 -40 63
-41 62 -76 0 -76 0 18 -27z"/>
<path d="M9220 4855 l-25 -14 31 -1 c43 0 95 -38 118 -84 16 -32 17 -46 9 -82
-9 -38 -8 -43 4 -32 8 6 24 30 35 52 45 88 -5 176 -100 176 -26 -1 -58 -7 -72
-15z"/>
<path d="M3532 4668 l3 -173 110 0 110 0 0 30 0 30 -72 3 -73 3 0 39 0 40 70
0 70 0 0 30 0 30 -70 0 -70 0 0 40 0 40 75 0 75 0 0 30 0 30 -115 0 -115 0 2
-172z"/>
<path d="M4840 4664 l0 -175 33 3 32 3 5 130 5 130 23 -95 c43 -181 38 -170
78 -170 42 0 45 6 79 149 13 57 27 106 30 109 3 3 5 -54 5 -126 l0 -132 35 0
35 0 0 175 0 175 -59 0 -59 0 -22 -97 c-12 -54 -24 -108 -27 -120 -9 -40 -18
-25 -36 60 -10 45 -23 99 -28 120 l-10 37 -59 0 -60 0 0 -176z"/>
<path d="M5562 4668 l3 -173 29 -3 c16 -2 32 2 36 8 6 9 13 9 28 1 11 -6 39
-11 60 -11 120 0 159 190 50 246 -30 16 -84 16 -120 0 -16 -7 -18 -2 -18 48
l0 56 -35 0 -35 0 2 -172z m172 1 c48 -38 23 -109 -39 -109 -61 0 -85 61 -40
105 29 30 45 31 79 4z"/>
<path d="M5880 4810 c0 -28 3 -30 35 -30 32 0 35 2 35 30 0 28 -3 30 -35 30
-32 0 -35 -2 -35 -30z"/>
<path d="M6020 4664 l0 -175 33 3 32 3 3 173 2 172 -35 0 -35 0 0 -176z"/>
<path d="M8967 4778 c-60 -94 -17 -187 88 -188 63 0 91 15 47 25 -83 18 -138
119 -102 186 20 36 -6 19 -33 -23z"/>
<path d="M3988 4755 l-42 -55 -26 23 c-19 17 -35 21 -69 19 l-44 -3 47 -48 46
-47 -55 -69 c-30 -38 -55 -73 -55 -77 0 -5 16 -8 35 -8 24 0 41 7 54 23 10 12
30 36 44 52 l26 30 20 -22 c12 -12 21 -25 21 -29 0 -3 -23 -35 -51 -70 l-51
-64 44 0 c40 0 47 4 74 40 16 22 31 40 34 40 3 0 35 -29 70 -65 64 -64 65 -65
120 -65 l55 0 -98 98 -98 98 71 90 71 89 -33 6 c-36 6 -46 -1 -120 -91 l-37
-45 -25 24 -25 23 53 67 c74 94 74 91 27 91 -36 0 -43 -5 -83 -55z"/>
<path d="M4304 4746 c-135 -59 -92 -256 56 -256 39 0 53 6 86 34 37 32 39 36
39 94 0 51 -4 65 -25 87 -27 29 -78 55 -107 55 -10 -1 -32 -7 -49 -14z m90
-77 c50 -39 24 -109 -40 -109 -60 0 -83 62 -39 105 29 30 45 31 79 4z"/>
<path d="M5325 4741 c-50 -23 -75 -65 -75 -126 0 -42 5 -52 39 -86 34 -35 44
-39 87 -39 66 0 107 26 129 83 29 78 -8 155 -86 177 -44 13 -47 13 -94 -9z
m86 -62 c41 -21 44 -86 5 -111 -37 -25 -96 7 -96 51 0 31 8 44 35 59 25 14 32
14 56 1z"/>
<path d="M10764 4746 c-9 -25 1 -109 14 -114 9 -3 12 14 12 62 0 61 -13 87
-26 52z"/>
<path d="M10827 4753 c-4 -3 -7 -33 -7 -65 0 -44 4 -58 14 -58 10 0 16 13 18
42 l3 42 28 -42 c41 -63 57 -56 57 23 0 50 -3 65 -14 65 -10 0 -16 -13 -18
-42 l-3 -42 -28 42 c-27 41 -37 49 -50 35z"/>
<path d="M10970 4695 l0 -65 39 0 c49 0 71 21 71 65 0 44 -22 65 -71 65 l-39
0 0 -65z m80 20 c12 -32 -6 -65 -35 -65 -23 0 -25 3 -25 46 0 43 1 45 26 42
16 -2 30 -11 34 -23z"/>
<path d="M11116 4738 c-34 -49 -7 -108 49 -108 43 0 65 22 65 65 0 43 -22 65
-65 65 -24 0 -39 -7 -49 -22z m85 -19 c16 -31 -3 -69 -35 -69 -28 0 -41 27
-32 66 8 31 50 33 67 3z"/>
<path d="M11310 4696 c0 -37 4 -66 10 -66 6 0 10 14 10 30 0 42 25 38 49 -7 6
-13 18 -23 27 -23 13 0 13 3 0 29 -10 19 -12 31 -5 38 6 6 9 21 7 34 -3 21 -9
24 -50 27 l-48 3 0 -65z m76 33 c8 -13 -13 -29 -38 -29 -11 0 -18 8 -18 20 0
15 7 20 24 20 14 0 28 -5 32 -11z"/>
<path d="M11471 4738 c-5 -13 -16 -40 -25 -62 -19 -47 -19 -46 -2 -46 8 0 16
7 20 15 3 8 17 15 31 15 14 0 28 -7 31 -15 4 -8 12 -15 20 -15 18 0 18 -4 -10
66 -26 64 -51 80 -65 42z m39 -45 c0 -7 -7 -13 -15 -13 -16 0 -19 9 -9 35 5
13 8 14 15 3 5 -7 9 -19 9 -25z"/>
<path d="M11560 4748 c0 -7 9 -24 20 -38 11 -14 20 -37 20 -52 0 -16 5 -28 10
-28 6 0 10 12 10 26 0 14 8 38 18 52 32 46 34 52 18 52 -8 0 -22 -12 -29 -27
l-14 -26 -18 26 c-18 29 -35 35 -35 15z"/>
<path d="M11699 4733 c-36 -91 -38 -103 -25 -103 8 0 16 7 20 15 3 8 17 15 31
15 14 0 28 -7 31 -15 4 -8 12 -15 20 -15 18 0 18 -4 -10 66 -27 67 -50 80 -67
37z m41 -40 c0 -7 -7 -13 -15 -13 -16 0 -19 9 -9 35 5 13 8 14 15 3 5 -7 9
-19 9 -25z"/>
<path d="M11850 4750 c0 -5 9 -10 20 -10 18 0 20 -7 20 -55 0 -30 5 -55 10
-55 6 0 10 25 10 55 0 52 1 55 25 55 14 0 25 5 25 10 0 6 -25 10 -55 10 -30 0
-55 -4 -55 -10z"/>
<path d="M11980 4695 l0 -65 50 0 c28 0 50 5 50 10 0 6 -18 10 -40 10 -33 0
-40 3 -40 20 0 16 7 20 35 20 19 0 35 5 35 10 0 6 -16 10 -35 10 -24 0 -35 5
-35 15 0 10 10 15 34 15 19 0 38 5 41 10 4 6 -13 10 -44 10 l-51 0 0 -65z"/>
<path d="M12100 4695 c0 -51 3 -65 15 -65 11 0 15 11 15 43 l0 42 28 -43 c38
-60 57 -52 57 22 0 71 -22 91 -27 25 l-3 -43 -28 42 c-41 63 -57 56 -57 -23z"/>
<path d="M12273 4743 c-3 -10 -14 -39 -24 -65 -15 -39 -16 -48 -5 -48 8 0 16
7 20 15 3 9 18 15 36 15 20 0 30 -5 30 -15 0 -8 7 -15 16 -15 17 0 14 14 -17
88 -19 44 -45 55 -56 25z m37 -50 c0 -7 -7 -13 -15 -13 -16 0 -19 9 -9 35 5
13 8 14 15 3 5 -7 9 -19 9 -25z"/>
<path d="M12387 4742 c-21 -23 -22 -61 -1 -90 11 -16 25 -22 52 -22 48 0 65
12 60 41 -2 18 -10 25 -30 27 -16 2 -28 -1 -28 -7 0 -6 7 -11 15 -11 8 0 15
-7 15 -16 0 -11 -8 -14 -32 -12 -31 3 -33 5 -33 43 0 34 3 40 23 43 13 2 30
-2 38 -9 17 -14 29 -6 21 16 -9 22 -79 20 -100 -3z"/>
<path d="M12531 4699 c-23 -60 -21 -90 3 -56 7 9 23 17 36 17 13 0 29 -8 36
-17 24 -34 27 -3 4 57 -30 79 -48 79 -79 -1z m55 -16 c-2 -3 -11 -3 -19 -1
-11 2 -12 9 -5 28 l10 25 9 -24 c5 -13 7 -26 5 -28z"/>
<path d="M4568 4742 l-28 -3 0 -125 0 -125 33 3 32 3 3 85 c3 90 12 110 47
110 35 0 44 -20 47 -110 l3 -85 35 0 35 0 3 60 c7 134 -22 195 -93 195 -20 0
-46 -5 -57 -11 -11 -6 -23 -7 -27 -3 -3 5 -18 8 -33 6z"/>
<path d="M5880 4615 l0 -125 35 0 35 0 0 125 0 125 -35 0 -35 0 0 -125z"/>
<path d="M7124 4697 c-9 -25 0 -120 13 -124 6 -2 13 6 15 19 2 16 11 24 28 26
32 5 50 20 50 41 0 28 -14 38 -57 46 -33 5 -44 3 -49 -8z m70 -26 c9 -15 -23
-36 -36 -23 -5 5 -7 15 -4 21 9 13 33 14 40 2z"/>
<path d="M7250 4640 l0 -70 40 0 c29 0 40 4 40 15 0 9 -9 15 -25 15 -14 0 -25
5 -25 10 0 6 11 10 25 10 16 0 25 6 25 15 0 9 -9 15 -25 15 -16 0 -25 6 -25
15 0 9 9 15 25 15 16 0 25 6 25 15 0 11 -11 15 -40 15 l-40 0 0 -70z"/>
<path d="M7360 4640 c0 -56 3 -70 15 -70 10 0 15 10 15 28 l1 27 24 -28 c14
-16 32 -27 41 -25 14 3 13 7 -5 29 -17 23 -18 28 -6 33 22 8 19 53 -4 66 -11
5 -33 10 -50 10 l-31 0 0 -70z m68 23 c2 -8 -5 -13 -17 -13 -12 0 -21 6 -21
16 0 18 31 15 38 -3z"/>
<path d="M7477 4704 c-13 -13 -7 -24 13 -24 18 0 20 -7 20 -55 0 -42 3 -55 15
-55 12 0 15 13 15 55 0 49 2 55 21 55 12 0 19 5 17 13 -5 13 -89 22 -101 11z"/>
<path d="M7615 4700 c-6 -9 -45 -120 -45 -127 0 -11 32 0 36 12 4 8 15 15 25
15 11 0 22 -7 25 -15 6 -16 34 -21 34 -7 0 4 -9 36 -21 70 -19 58 -39 76 -54
52z m21 -77 c-10 -10 -19 5 -10 18 6 11 8 11 12 0 2 -7 1 -15 -2 -18z"/>
<path d="M7727 4697 c-3 -8 -8 -39 -12 -70 -6 -49 -5 -57 9 -57 11 0 16 9 16
30 0 39 12 38 29 -2 l13 -33 18 40 c14 30 19 35 19 18 1 -33 12 -53 28 -53 11
0 13 8 9 28 -3 15 -8 46 -11 70 -8 52 -29 55 -46 7 l-13 -36 -18 36 c-19 37
-32 44 -41 22z"/>
<path d="M7880 4640 c0 -56 3 -70 15 -70 12 0 15 14 15 70 0 56 -3 70 -15 70
-12 0 -15 -14 -15 -70z"/>
<path d="M7940 4640 c0 -56 3 -70 15 -70 11 0 15 11 15 42 l0 42 31 -42 c46
-62 59 -56 59 28 0 54 -3 70 -14 70 -10 0 -16 -13 -18 -42 l-3 -42 -28 42
c-42 64 -57 56 -57 -28z"/>
<path d="M8125 4700 c-6 -9 -45 -120 -45 -127 0 -11 32 0 36 12 4 8 15 15 25
15 11 0 22 -7 25 -15 6 -16 34 -21 34 -7 0 4 -9 36 -21 70 -19 58 -39 76 -54
52z m25 -65 c0 -8 -4 -15 -10 -15 -5 0 -10 7 -10 15 0 8 5 15 10 15 6 0 10 -7
10 -15z"/>
<path d="M6647 4668 c-33 -43 -117 -175 -117 -182 0 -3 31 -6 68 -6 81 0 81 0
166 133 l56 87 -75 0 c-72 0 -75 -1 -98 -32z"/>
<path d="M2521 4537 c-20 -37 -94 -70 -156 -69 -37 1 -45 -1 -30 -8 16 -7 14
-9 -15 -9 -19 0 -52 3 -72 8 -21 5 -38 6 -38 2 0 -18 62 -101 92 -125 34 -25
37 -26 76 -12 110 39 165 104 160 187 -3 51 -3 52 -17 26z"/>
<path d="M7130 4430 c0 -50 0 -50 33 -49 29 1 29 2 8 8 -33 9 -38 29 -9 40
l23 10 -22 0 c-33 1 -29 29 5 34 25 4 25 4 -5 6 l-33 1 0 -50z"/>
<path d="M7210 4431 c0 -28 5 -51 10 -51 6 0 10 8 10 18 0 9 10 22 23 27 12 6
22 19 22 30 0 15 -8 21 -32 23 l-33 3 0 -50z m45 19 c0 -7 -6 -15 -12 -17 -8
-3 -13 4 -13 17 0 13 5 20 13 18 6 -3 12 -11 12 -18z"/>
<path d="M7354 4472 c-18 -12 -24 -41 -14 -67 8 -20 16 -25 42 -24 24 1 27 3
10 6 -30 6 -46 37 -32 62 5 11 20 22 32 24 22 4 21 4 -2 5 -14 1 -30 -2 -36
-6z"/>
<path d="M7430 4430 l0 -50 33 1 c23 1 26 3 10 6 -13 2 -23 11 -23 19 0 8 10
19 23 24 l22 9 -22 0 c-13 1 -23 7 -23 15 0 8 10 17 23 19 16 3 13 5 -10 6
l-33 1 0 -50z"/>
<path d="M7520 4430 c0 -27 5 -50 10 -50 6 0 10 9 10 20 0 11 6 20 14 20 7 0
19 7 26 15 17 20 -3 45 -36 45 -22 0 -24 -4 -24 -50z m45 20 c0 -7 -6 -15 -12
-17 -8 -3 -13 4 -13 17 0 13 5 20 13 18 6 -3 12 -11 12 -18z"/>
<path d="M7600 4453 c0 -61 10 -74 49 -71 35 3 36 4 39 51 2 28 -1 47 -7 47
-6 0 -11 -18 -11 -40 0 -28 -5 -43 -16 -47 -21 -8 -34 13 -34 55 0 17 -4 32
-10 32 -5 0 -10 -12 -10 -27z"/>
<path d="M8640 4435 c0 -8 6 -15 13 -15 9 0 9 -2 -1 -9 -9 -5 1 -8 26 -7 32 1
38 4 34 19 -7 28 -23 31 -29 6 l-6 -23 -8 22 c-9 25 -29 30 -29 7z"/>
<path d="M8744 4438 c19 -11 19 -11 1 -24 -10 -8 -14 -14 -9 -14 6 0 15 5 22
12 8 8 12 9 12 1 0 -6 9 -9 20 -6 22 6 24 11 11 32 -7 11 -11 10 -19 -5 -10
-18 -11 -18 -17 -1 -4 9 -15 17 -24 17 -13 -1 -13 -2 3 -12z"/>
<path d="M8820 4430 c0 -13 3 -20 7 -17 3 4 12 2 20 -4 10 -9 13 -6 12 17 0
16 -3 23 -6 16 -4 -10 -8 -10 -19 -1 -11 9 -14 7 -14 -11z"/>
<path d="M8890 4425 c0 -12 6 -22 14 -22 7 0 14 10 14 22 0 12 -7 22 -14 22
-8 0 -14 -10 -14 -22z"/>
<path d="M8937 4443 c-12 -12 -7 -23 11 -23 13 0 14 2 3 9 -11 7 -11 9 0 14 8
3 9 6 3 6 -6 1 -14 -2 -17 -6z"/>
<path d="M8970 4423 c0 -22 2 -25 10 -13 6 10 10 11 10 3 0 -7 9 -13 20 -13
15 0 20 6 19 28 -2 23 -2 24 -6 5 -5 -28 -23 -30 -23 -3 0 11 -7 20 -15 20
-10 0 -15 -10 -15 -27z"/>
<path d="M9047 4436 c-9 -24 -10 -23 13 -29 23 -6 25 2 7 27 -13 18 -14 18
-20 2z"/>
<path d="M9090 4435 c0 -8 6 -15 13 -15 9 0 9 -2 0 -8 -8 -5 6 -8 32 -8 25 1
45 4 45 7 0 3 11 5 25 4 19 -3 25 1 25 16 0 21 -15 26 -24 7 -5 -10 -7 -10
-12 0 -9 20 -24 14 -25 -10 l0 -23 -10 23 c-9 25 -29 21 -29 -5 0 -13 -3 -13
-15 -3 -8 7 -12 16 -9 21 3 5 0 9 -5 9 -6 0 -11 -7 -11 -15z"/>
<path d="M9246 4434 c-8 -21 -8 -21 13 -27 14 -3 17 0 14 14 -7 26 -20 32 -27
13z"/>
<path d="M9300 4424 c0 -23 2 -24 15 -10 8 8 15 19 15 25 0 6 -7 11 -15 11 -9
0 -15 -10 -15 -26z"/>
<path d="M9340 4425 c0 -14 3 -25 8 -25 4 0 7 11 7 25 0 14 -3 25 -7 25 -5 0
-8 -11 -8 -25z"/>
<path d="M9380 4425 c0 -16 6 -25 15 -25 9 0 15 9 15 25 0 16 -6 25 -15 25 -9
0 -15 -9 -15 -25z"/>
<path d="M9421 4428 c-1 -25 2 -27 37 -25 30 2 37 6 37 22 0 28 -35 33 -42 6
-7 -28 -21 -27 -26 2 -4 19 -4 18 -6 -5z m67 -6 c2 -7 -3 -12 -12 -12 -9 0
-16 7 -16 16 0 17 22 14 28 -4z"/>
<path d="M9523 4443 c-17 -6 -16 -30 1 -36 10 -4 13 2 12 19 0 13 -1 24 -1 23
0 0 -6 -3 -12 -6z"/>
<path d="M9574 4435 c-7 -17 3 -35 19 -34 9 0 9 2 0 6 -7 2 -13 11 -13 18 0 7
6 16 13 18 9 4 9 6 -1 6 -7 1 -15 -6 -18 -14z"/>
<path d="M9610 4425 c0 -14 4 -25 9 -25 5 0 8 8 7 18 -2 9 2 20 8 24 7 5 4 8
-6 8 -13 0 -18 -8 -18 -25z"/>
<path d="M9650 4423 c0 -26 1 -26 14 -8 14 20 12 35 -5 35 -5 0 -9 -12 -9 -27z"/>
<path d="M9691 4423 c-1 -14 5 -23 14 -23 8 0 15 5 15 11 0 5 -4 8 -9 4 -5 -3
-12 3 -14 12 -4 14 -5 13 -6 -4z"/>
<path d="M10234 4406 c-10 -26 4 -48 28 -44 17 2 23 10 23 28 0 18 -6 26 -23
28 -13 2 -25 -3 -28 -12z"/>
<path d="M4480 3642 c-137 -68 -88 -272 66 -272 91 0 148 56 148 144 0 114
-111 180 -214 128z m141 -25 c44 -29 63 -84 49 -136 -30 -114 -185 -131 -234
-26 -22 46 -20 86 7 126 42 62 116 78 178 36z"/>
<path d="M4760 3516 c0 -177 18 -200 22 -29 l3 116 75 -88 c41 -49 85 -100 97
-114 l22 -26 1 138 c0 90 -4 137 -11 137 -7 0 -9 -37 -7 -110 2 -61 1 -110 -2
-110 -3 1 -45 51 -95 111 -49 61 -93 113 -97 115 -5 3 -8 -60 -8 -140z"/>
<path d="M5290 3640 c-39 -39 -23 -85 45 -124 71 -42 82 -88 30 -122 -26 -17
-55 -12 -80 13 -9 8 -19 12 -22 9 -14 -14 37 -50 71 -50 50 0 76 27 76 80 0
45 -11 59 -79 96 -34 19 -50 60 -31 83 15 18 61 20 78 3 6 -6 15 -8 19 -4 12
12 -28 36 -59 36 -15 0 -37 -9 -48 -20z"/>
<path d="M5622 3521 c-65 -146 -67 -151 -53 -151 4 0 18 23 29 50 l21 50 64 0
65 0 18 -50 c10 -27 24 -50 31 -50 11 0 11 6 -1 33 -51 121 -108 252 -110 254
-1 2 -30 -60 -64 -136z m65 -29 c-27 -2 -51 -1 -54 1 -2 3 8 31 23 63 l26 59
27 -60 28 -60 -50 -3z"/>
<path d="M3710 3510 c0 -87 4 -140 10 -140 6 0 10 53 10 140 0 87 -4 140 -10
140 -6 0 -10 -53 -10 -140z"/>
<path d="M3810 3511 c0 -87 4 -141 10 -141 6 0 10 46 10 118 l1 117 22 -26
c12 -14 57 -67 100 -118 l77 -93 0 141 c0 169 -18 194 -22 30 l-3 -110 -84
100 c-46 56 -90 106 -98 112 -11 10 -13 -13 -13 -130z"/>
<path d="M4110 3510 l0 -140 69 0 c109 0 161 46 161 143 0 98 -45 137 -160
137 l-70 0 0 -140z m140 117 c61 -21 89 -112 55 -177 -23 -45 -53 -60 -117
-60 l-58 0 0 118 c0 65 3 122 7 125 10 11 74 7 113 -6z"/>
<path d="M5060 3510 l0 -140 80 0 c47 0 80 4 80 10 0 6 -28 10 -65 10 l-65 0
0 65 0 65 65 0 c37 0 65 4 65 10 0 6 -28 10 -65 10 l-65 0 0 45 0 45 65 0 c37
0 65 4 65 10 0 6 -33 10 -80 10 l-80 0 0 -140z"/>
<path d="M5480 3509 c0 -91 4 -138 10 -134 6 4 10 62 10 141 0 83 -4 134 -10
134 -6 0 -10 -54 -10 -141z"/>
<path d="M596 3598 c27 -46 104 -156 117 -166 10 -9 47 -12 121 -10 l105 3
-50 80 c-28 44 -58 86 -67 93 -10 8 -53 12 -125 12 -84 0 -107 -3 -101 -12z"/>
<path d="M10527 3472 c-67 -211 -87 -276 -84 -279 2 -1 41 13 88 33 115 49
119 50 119 27 0 -10 -6 -43 -14 -73 -8 -30 -17 -80 -20 -110 l-7 -55 31 75
c18 41 40 95 50 120 38 91 72 181 68 184 -1 2 -48 -16 -103 -39 -55 -24 -101
-42 -103 -40 -2 1 8 27 22 56 27 60 86 206 86 214 0 3 -21 5 -47 5 l-48 0 -38
-118z"/>
<path d="M7963 3573 c13 -4 17 -15 17 -59 0 -46 3 -54 19 -54 10 0 31 -12 46
-27 24 -24 27 -34 23 -75 l-5 -48 33 0 c38 0 43 -14 19 -59 -16 -33 -64 -56
-98 -47 -23 5 -24 2 -34 -60 l-9 -66 65 7 c36 4 76 13 88 20 39 26 102 194
103 275 0 54 -188 201 -254 199 -17 -1 -23 -3 -13 -6z m235 -206 c2 -10 -3
-17 -12 -17 -18 0 -29 16 -21 31 9 14 29 6 33 -14z"/>
<path d="M3245 3548 c-3 -7 -15 -44 -28 -83 l-24 -70 -47 -3 c-30 -2 -49 -8
-53 -18 -8 -21 2 -27 24 -16 10 6 27 6 40 1 20 -7 21 -12 12 -37 -6 -19 -20
-31 -42 -38 -18 -5 -33 -17 -35 -27 -3 -15 0 -16 24 -7 26 10 26 10 21 -20 -4
-16 -5 -30 -4 -30 1 0 40 13 87 29 66 23 89 26 107 18 23 -10 29 -32 15 -53
-10 -15 -126 -24 -165 -13 -44 13 -87 2 -87 -22 0 -16 3 -17 24 -7 19 8 33 7
63 -4 23 -10 46 -12 58 -7 27 10 95 11 95 1 0 -5 -7 -30 -16 -56 -22 -65 -11
-68 13 -4 15 38 26 53 39 53 11 0 36 6 56 13 21 8 47 11 58 7 30 -10 25 14 -6
25 -19 7 -36 7 -60 -2 -42 -15 -50 -7 -35 31 13 30 35 41 83 41 29 0 45 15 27
25 -5 4 -26 7 -45 8 -19 1 -34 3 -34 4 0 2 9 21 20 43 18 36 22 39 46 30 22
-9 25 -7 22 7 -3 18 -20 19 -118 13 -33 -2 -110 13 -110 22 0 5 14 41 30 80
17 38 30 72 30 74 0 11 -81 2 -85 -8z m129 -200 c10 1 16 -2 12 -5 -7 -8 -166
-61 -166 -56 0 12 31 62 42 67 7 3 31 3 53 -1 22 -3 48 -5 59 -5z"/>
<path d="M8435 3468 c-5 -24 -45 -274 -45 -284 0 -3 17 -4 38 -2 l37 3 8 63
c5 34 12 62 16 62 4 0 24 -29 45 -65 38 -65 38 -65 83 -65 53 0 53 2 -7 90
-22 32 -40 64 -40 70 0 6 27 38 60 72 33 34 60 66 60 70 0 4 -15 8 -34 8 -28
0 -44 -10 -94 -62 -34 -35 -63 -60 -66 -58 -2 3 0 27 5 54 11 58 7 66 -31 66
-23 0 -31 -5 -35 -22z"/>
<path d="M8837 3448 c-58 -103 -137 -252 -137 -259 0 -5 16 -9 35 -9 25 0 37
6 46 23 17 32 28 37 82 37 44 0 49 -2 58 -30 9 -25 16 -30 45 -30 26 0 34 4
34 17 0 32 -53 268 -63 281 -5 6 -24 12 -43 12 -29 0 -36 -6 -57 -42z m62
-130 c1 -25 -3 -28 -29 -28 -36 0 -37 8 -8 63 21 41 22 41 29 17 4 -14 7 -37
8 -52z"/>
<path d="M9105 3478 c-4 -15 -45 -274 -45 -289 0 -5 38 -9 85 -9 67 0 85 3 85
14 0 8 3 21 6 30 5 13 -2 16 -38 16 -25 0 -47 2 -50 5 -3 3 3 56 12 118 10 61
15 115 13 120 -7 12 -63 8 -68 -5z"/>
<path d="M9280 3464 c-13 -32 -6 -44 26 -44 29 0 30 -9 9 -135 -8 -49 -15 -94
-15 -98 0 -5 17 -7 37 -5 l38 3 12 85 c21 152 20 148 55 152 25 2 33 9 39 30
4 15 4 29 1 32 -3 3 -47 6 -99 6 -91 0 -94 -1 -103 -26z"/>
<path d="M9541 3468 c-4 -13 -16 -75 -25 -138 -10 -63 -20 -123 -22 -132 -4
-15 1 -18 33 -18 l39 0 22 138 c29 176 29 172 -8 172 -22 0 -33 -6 -39 -22z"/>
<path d="M9722 3473 c-12 -22 -92 -270 -92 -283 0 -6 15 -10 34 -10 l35 0 26
87 c29 95 34 95 55 3 18 -85 20 -90 35 -90 8 0 35 38 62 85 26 47 51 85 56 85
4 0 4 -39 1 -86 l-7 -85 39 3 39 3 0 150 0 150 -35 0 c-33 0 -37 -4 -80 -77
-25 -43 -48 -78 -51 -78 -4 0 -12 28 -19 63 -18 85 -25 97 -60 97 -18 0 -33
-7 -38 -17z"/>
<path d="M6005 3458 c-2 -7 -11 -58 -19 -113 -9 -55 -19 -112 -21 -127 -5 -25
-3 -28 24 -28 27 0 30 4 38 48 l8 47 51 6 c65 8 90 25 109 72 17 43 11 83 -15
97 -28 15 -170 13 -175 -2z m134 -41 c14 -18 5 -59 -16 -75 -10 -7 -31 -12
-48 -10 -28 3 -30 6 -27 38 1 19 4 41 7 48 6 16 70 16 84 -1z"/>
<path d="M6305 3413 c-4 -32 -10 -79 -14 -105 -11 -67 6 -103 59 -119 33 -10
49 -10 87 2 63 20 82 50 104 161 23 122 24 118 -10 118 -28 0 -28 0 -40 -92
-12 -100 -32 -141 -71 -146 -38 -6 -69 7 -75 31 -5 20 7 126 22 185 4 19 1 22
-25 22 -30 0 -31 -2 -37 -57z"/>
<path d="M6657 3358 c-10 -62 -20 -125 -22 -140 -4 -24 -1 -28 21 -28 26 0 29
4 39 63 5 34 8 37 41 37 79 0 134 45 134 111 0 56 -22 69 -116 69 l-80 0 -17
-112z m151 36 c4 -39 -19 -64 -58 -64 -36 0 -40 6 -33 58 l6 43 41 -3 c38 -3
41 -5 44 -34z"/>
<path d="M6972 3398 c-22 -137 -23 -147 -12 -168 27 -51 121 -61 188 -20 36
22 56 81 68 193 6 67 6 67 -19 67 -22 0 -25 -5 -31 -52 -20 -151 -40 -188
-101 -188 -50 0 -61 27 -46 112 18 103 15 128 -12 128 -21 0 -24 -7 -35 -72z"/>
<path d="M7336 3438 c-2 -18 -12 -78 -20 -133 -20 -123 -21 -115 8 -115 27 0
33 10 42 80 4 30 12 50 19 50 7 0 31 -29 54 -65 35 -57 44 -65 71 -65 16 0 30
2 30 5 0 3 -21 37 -47 75 -53 80 -55 71 37 157 l45 43 -31 0 c-25 0 -42 -11
-87 -60 -31 -33 -62 -60 -68 -60 -8 0 -9 18 -4 60 7 59 7 60 -19 60 -21 0 -26
-6 -30 -32z"/>
<path d="M7943 3449 c-47 -17 -63 -73 -38 -132 6 -16 4 -18 -16 -17 -53 5 -61
1 -54 -22 14 -44 46 -68 90 -68 53 0 59 7 34 39 l-21 26 21 3 c19 3 21 10 21
87 0 46 -3 86 -7 88 -5 3 -18 1 -30 -4z"/>
<path d="M399 3350 c-8 -5 -38 -44 -65 -87 -27 -43 -72 -114 -101 -158 l-52
-80 99 -3 c60 -2 108 2 121 8 11 7 55 64 96 128 42 64 88 136 104 160 l28 42
-107 0 c-59 0 -114 -5 -123 -10z"/>
<path d="M1090 3259 c0 -98 0 -100 23 -97 17 2 23 11 25 36 3 29 6 32 37 32
44 0 65 22 65 70 0 49 -18 60 -94 60 l-56 0 0 -101z m103 47 c7 -17 -11 -36
-35 -36 -13 0 -18 8 -18 25 0 20 5 25 24 25 13 0 26 -6 29 -14z"/>
<path d="M1262 3263 l3 -98 63 -3 c56 -3 62 -1 62 17 0 16 -8 20 -37 23 -27 2
-39 8 -41 21 -3 14 4 17 37 17 34 0 41 3 41 19 0 16 -8 20 -37 23 -27 2 -39 8
-41 21 -3 14 4 17 37 17 34 0 41 3 41 20 0 18 -7 20 -65 20 l-66 0 3 -97z"/>
<path d="M1420 3259 c0 -98 0 -100 23 -97 17 2 23 11 27 42 l5 40 28 -42 c20
-31 34 -42 52 -42 31 0 31 5 0 45 -24 32 -24 33 -5 50 11 10 20 31 20 46 0 44
-23 59 -91 59 l-59 0 0 -101z m98 39 c-2 -15 -11 -24 -25 -26 -19 -3 -23 1
-23 22 0 21 5 26 26 26 21 0 25 -4 22 -22z"/>
<path d="M1585 3350 c-10 -16 4 -30 31 -30 23 0 24 -2 24 -80 0 -79 0 -80 25
-80 25 0 25 1 25 80 0 79 0 80 25 80 18 0 25 5 25 20 0 18 -7 20 -74 20 -41 0
-78 -4 -81 -10z"/>
<path d="M1785 3343 c-4 -10 -20 -55 -35 -100 l-29 -83 24 0 c14 0 29 9 35 20
6 12 21 20 35 20 14 0 30 -9 37 -20 14 -22 63 -29 55 -7 -2 6 -17 51 -33 99
-27 81 -31 88 -55 88 -16 0 -30 -7 -34 -17z m45 -90 c0 -7 -7 -13 -16 -13 -11
0 -14 5 -10 16 3 9 6 21 6 27 0 16 20 -14 20 -30z"/>
<path d="M1946 3338 c-8 -38 -26 -154 -26 -167 0 -7 10 -11 23 -9 18 2 23 11
28 45 8 61 15 61 34 3 9 -28 22 -49 27 -48 6 2 20 28 31 58 18 45 22 50 24 30
10 -78 14 -90 33 -90 24 0 25 16 9 125 -11 73 -13 76 -37 73 -21 -2 -29 -12
-43 -53 l-17 -50 -11 28 c-6 15 -14 39 -17 52 -8 34 -52 35 -58 3z"/>
<path d="M2160 3260 l0 -100 25 0 25 0 0 100 0 100 -25 0 -25 0 0 -100z"/>
<path d="M2250 3259 c0 -98 0 -100 23 -97 19 3 23 10 27 58 l5 55 39 -57 c29
-43 45 -58 62 -58 24 0 24 2 24 101 0 98 0 100 -22 97 -20 -3 -23 -10 -26 -57
l-3 -54 -40 56 c-30 43 -47 57 -65 57 -24 0 -24 -1 -24 -101z"/>
<path d="M2481 3270 c-17 -49 -31 -94 -31 -100 0 -18 39 -11 50 10 6 12 21 20
35 20 14 0 30 -9 37 -20 14 -22 63 -28 56 -7 -2 6 -18 51 -34 100 -26 80 -31
87 -55 87 -24 0 -29 -7 -58 -90z m69 -11 c0 -11 -7 -19 -16 -19 -11 0 -14 5
-10 16 3 9 6 20 6 25 0 6 5 7 10 4 6 -3 10 -15 10 -26z"/>
<path d="M4216 3298 c-52 -11 -100 -42 -124 -79 l-19 -31 -11 31 c-6 17 -23
42 -38 56 -26 24 -32 25 -165 25 l-139 0 0 -205 0 -205 60 0 60 0 0 74 0 74
73 3 c54 3 80 10 103 26 l32 23 6 -38 c11 -69 74 -141 137 -157 26 -6 26 -5
50 94 l25 101 -37 0 -38 0 35 102 c19 56 33 105 32 108 -2 4 -21 3 -42 -2z
m-280 -103 c15 -23 15 -27 0 -50 -13 -20 -25 -25 -56 -25 l-40 0 0 50 0 50 40
0 c31 0 43 -5 56 -25z"/>
<path d="M4675 3298 c-3 -7 -18 -60 -35 -117 -16 -57 -31 -105 -33 -108 -2 -2
-14 48 -27 112 l-23 115 -76 0 -76 0 -42 -69 c-24 -38 -43 -72 -43 -75 0 -3
16 -6 35 -6 19 0 35 -2 35 -5 0 -3 -34 -59 -75 -126 -41 -66 -75 -125 -75
-130 0 -28 120 8 164 49 33 31 65 95 66 132 1 23 2 23 10 5 5 -11 19 -57 31
-102 l21 -83 63 0 63 0 32 118 c18 64 35 121 37 126 6 10 32 -66 58 -174 l17
-70 64 0 c43 0 66 4 68 13 3 6 22 91 44 187 l40 175 1 -187 1 -188 250 0 249
0 3 87 3 87 70 -87 70 -87 68 0 c37 0 67 2 67 5 0 2 -27 40 -60 82 -33 43 -60
81 -60 85 0 4 9 9 19 13 59 18 93 98 67 158 -25 62 -42 67 -213 67 l-153 0 0
-160 0 -160 -126 0 -125 0 3 43 3 42 98 3 97 3 0 39 0 40 -100 0 -100 0 0 30
0 29 108 3 107 3 3 43 3 42 -230 0 -231 0 -5 -22 c-32 -140 -45 -191 -48 -194
-2 -3 -17 40 -32 93 -38 135 -36 133 -96 133 -30 0 -51 -5 -54 -12z m959 -84
c23 -9 21 -61 -3 -74 -11 -5 -40 -10 -65 -10 l-46 0 0 45 0 45 49 0 c27 0 56
-3 65 -6z"/>
<path d="M1090 2945 c0 -50 4 -85 10 -85 6 0 10 20 10 45 l0 45 40 0 c40 0 40
0 40 -39 0 -22 5 -43 10 -46 6 -4 10 25 10 79 0 51 -4 86 -10 86 -5 0 -10 -16
-10 -35 0 -34 -1 -35 -40 -35 -39 0 -40 1 -40 35 0 19 -4 35 -10 35 -6 0 -10
-35 -10 -85z"/>
<path d="M1270 2969 c0 -77 17 -109 60 -109 42 0 60 32 60 107 0 87 -18 79
-22 -9 l-3 -73 -35 0 -35 0 -3 65 c-4 88 -22 104 -22 19z"/>
<path d="M1452 2948 l-2 -88 30 0 c17 0 30 5 30 10 0 6 -11 10 -25 10 -23 0
-24 3 -28 78 l-3 77 -2 -87z"/>
<path d="M1562 2963 c-2 -78 10 -103 52 -103 45 0 60 23 64 99 3 48 1 71 -7
71 -7 0 -11 -22 -11 -59 0 -78 -6 -91 -40 -91 -37 0 -44 12 -51 90 l-6 65 -1
-72z"/>
<path d="M1810 2946 c0 -88 16 -120 22 -43 l3 42 28 -42 c15 -24 32 -43 37
-43 6 0 0 16 -14 36 l-25 37 22 17 c18 15 20 22 12 46 -9 24 -17 30 -48 32
l-37 3 0 -85z m58 65 c22 -13 11 -56 -15 -59 -20 -3 -23 1 -23 32 0 36 11 44
38 27z"/>
<path d="M1963 3008 c-30 -34 -34 -55 -19 -93 26 -62 89 -74 137 -26 16 16 29
39 29 51 0 29 -26 76 -45 84 -36 13 -82 6 -102 -16z m104 -10 c47 -44 20 -118
-44 -118 -67 0 -96 68 -48 115 30 31 62 32 92 3z"/>
<path d="M2163 2945 c0 -49 2 -76 4 -60 8 61 12 62 53 15 21 -25 41 -42 45
-39 3 4 -10 26 -30 49 l-36 43 23 26 c13 14 30 31 38 38 13 11 13 12 0 13 -8
0 -28 -16 -44 -36 -30 -39 -42 -36 -49 11 -2 17 -4 -10 -4 -60z"/>
<path d="M2322 2968 c-17 -37 -33 -78 -37 -90 -6 -22 -6 -22 9 -4 9 11 16 23
16 28 0 4 18 8 40 8 33 0 42 -4 52 -25 6 -14 15 -25 20 -25 11 0 12 -1 -31 91
l-39 84 -30 -67z m56 -44 c-4 -3 -17 -4 -31 -2 -25 3 -25 3 -10 38 l15 35 16
-32 c8 -18 13 -35 10 -39z"/>
<path d="M2450 2947 c0 -56 4 -86 10 -82 6 3 10 33 10 66 l0 60 60 -63 59 -63
-1 85 c-2 74 -2 77 -5 23 -2 -35 -7 -63 -10 -63 -4 0 -33 28 -64 63 l-58 62
-1 -88z"/>
<path d="M8315 2948 c-53 -29 -70 -91 -38 -137 16 -23 15 -25 -8 -45 -23 -20
-24 -24 -12 -54 9 -22 10 -39 3 -57 -18 -47 -12 -127 14 -181 13 -27 26 -62
29 -79 3 -16 11 -55 19 -85 8 -33 11 -67 6 -85 -4 -16 -9 -41 -12 -55 -3 -14
-12 -34 -19 -44 -14 -19 -15 -19 -31 12 -23 44 -20 72 11 104 l27 28 -26 0
c-44 0 -89 -22 -107 -51 l-18 -29 -46 49 c-61 65 -75 115 -48 175 10 24 37 62
60 85 23 23 41 43 41 45 0 11 -95 -6 -128 -23 -169 -87 -199 -380 -56 -550 41
-50 106 -82 175 -88 38 -4 63 -11 66 -20 3 -7 26 -25 50 -40 54 -31 113 -35
162 -10 24 12 38 14 47 7 57 -48 201 -18 252 52 9 13 26 18 59 18 95 0 178 70
225 189 17 44 22 77 22 156 1 94 -1 105 -32 167 -46 94 -122 146 -214 148
l-38 0 46 -42 c57 -52 74 -85 74 -141 0 -45 -35 -112 -77 -150 -20 -17 -21
-17 -56 18 -29 29 -42 35 -77 35 l-43 0 27 -21 c33 -26 34 -64 4 -115 l-22
-37 -9 29 c-34 116 -35 130 -14 221 11 49 31 110 44 137 26 55 29 95 12 162
-9 34 -9 52 0 70 10 22 8 28 -15 49 -24 23 -25 25 -10 47 9 12 16 39 16 59 0
29 -7 43 -31 63 -17 14 -42 26 -56 26 l-25 0 30 -25 c38 -32 45 -59 23 -87
-16 -19 -28 -21 -114 -22 -80 -1 -92 1 -74 11 27 15 93 17 102 3 3 -5 11 -10
16 -10 21 0 -2 19 -36 30 -32 11 -41 9 -86 -15 -49 -25 -52 -25 -70 -9 -34 30
-22 71 31 107 l24 17 -24 0 c-14 0 -34 -6 -45 -12z m6 -24 c-25 -31 -27 -61
-6 -91 14 -20 23 -21 137 -19 130 2 144 5 158 40 7 17 9 18 9 3 1 -10 -11 -30
-26 -44 -16 -15 -21 -23 -13 -18 37 20 50 40 50 74 0 27 -3 32 -10 21 -8 -13
-10 -13 -10 -1 0 8 -10 25 -22 38 -29 31 -8 30 26 -2 45 -42 33 -109 -27 -145
-18 -11 -25 -20 -17 -20 8 -1 29 -7 45 -16 22 -11 24 -13 8 -10 -13 2 -23 0
-23 -5 0 -5 11 -9 25 -9 17 0 23 -4 19 -15 -4 -8 -10 -12 -15 -10 -4 3 0 -14
11 -37 26 -57 25 -114 -3 -174 -13 -27 -34 -89 -46 -139 -21 -89 -21 -91 -3
-157 21 -73 17 -91 -19 -86 -22 3 -25 9 -33 93 -5 50 -9 120 -10 158 0 37 -3
67 -6 67 -3 0 -14 -13 -23 -30 -23 -38 -44 -38 -77 2 l-26 31 -1 -69 c-2 -110
-15 -238 -25 -251 -6 -7 -17 -13 -25 -13 -20 0 -44 25 -33 36 4 5 15 36 23 69
14 56 14 66 -5 145 -11 47 -31 108 -44 135 -28 58 -32 145 -9 185 17 30 19 44
5 35 -5 -3 -10 1 -10 9 0 10 10 16 28 17 l27 1 -30 8 c-16 4 -22 8 -13 9 9 0
28 6 42 13 24 10 24 12 8 24 -14 11 -14 13 -2 14 10 0 8 6 -8 18 -13 10 -27
34 -32 53 -7 29 -8 31 -9 8 -1 -15 8 -38 20 -53 11 -14 16 -26 10 -26 -14 0
-41 53 -41 80 0 12 13 35 29 51 37 36 49 38 22 3z m-7 -153 c3 -5 -3 -11 -15
-14 -16 -4 -18 -3 -8 9 13 16 16 17 23 5z m311 -1 c3 -5 -1 -10 -9 -10 -9 0
-16 5 -16 10 0 6 4 10 9 10 6 0 13 -4 16 -10z m-208 -422 c-3 -7 -5 -2 -5 12
0 14 2 19 5 13 2 -7 2 -19 0 -25z m90 -5 c-3 -10 -5 -4 -5 12 0 17 2 24 5 18
2 -7 2 -21 0 -30z m-12 -40 c4 -27 7 -65 6 -86 0 -22 8 -59 19 -83 19 -42 23
-44 62 -44 47 0 43 -10 -10 -25 -29 -9 -43 -8 -67 5 -16 8 -33 20 -37 25 -5 7
-10 7 -15 0 -17 -23 -72 -54 -78 -45 -3 6 -19 10 -35 10 -16 0 -30 7 -34 16
-4 12 -1 14 14 9 11 -4 29 -3 40 0 25 8 64 90 56 119 -3 11 -1 49 5 84 10 59
13 62 39 62 25 0 28 -4 35 -47z m-89 -68 c-1 -25 -4 -45 -8 -45 -9 0 -10 36
-2 68 9 32 11 28 10 -23z m123 -17 c1 -16 -3 -28 -7 -28 -5 0 -9 21 -9 47 0
50 15 32 16 -19z m-98 -229 c26 -41 -1 -79 -55 -79 -21 0 -26 -5 -26 -25 0
-14 5 -25 10 -25 6 0 10 -4 10 -10 0 -5 -16 -10 -35 -10 -19 0 -35 5 -35 10 0
6 5 10 10 10 6 0 10 26 10 59 0 33 -4 63 -10 66 -5 3 -10 11 -10 17 0 16 120
5 131 -13z m193 -3 c8 -30 -3 -37 -24 -16 -38 38 -80 13 -80 -45 0 -39 24 -67
54 -63 22 3 37 48 17 48 -6 0 -11 5 -11 10 0 6 16 10 35 10 34 0 46 -12 25
-25 -5 -3 -10 -18 -10 -33 0 -26 -2 -27 -56 -27 -47 0 -59 4 -75 24 -27 33
-25 86 6 117 20 20 33 24 69 22 35 -2 46 -8 50 -22z m-317 -93 c-2 -16 -4 -3
-4 27 0 30 2 43 4 28 2 -16 2 -40 0 -55z"/>
<path d="M8428 2779 c25 -9 29 -9 56 1 12 4 1 7 -29 7 -36 0 -43 -2 -27 -8z"/>
<path d="M8413 2756 c6 -14 4 -15 -16 -5 -20 11 -21 11 -8 -4 7 -10 20 -17 27
-17 17 0 19 26 2 36 -8 5 -9 2 -5 -10z"/>
<path d="M8487 2755 c-12 -28 7 -37 27 -13 15 17 15 20 3 15 -9 -3 -17 -1 -20
6 -2 6 -7 3 -10 -8z"/>
<path d="M8521 2687 c-13 -21 -12 -21 5 -5 10 10 16 20 13 22 -3 3 -11 -5 -18
-17z"/>
<path d="M8383 2682 c12 -13 16 -28 12 -41 -4 -15 -2 -21 8 -21 8 0 22 -11 31
-25 10 -15 22 -23 28 -19 8 5 6 9 -6 14 -13 4 -9 9 18 18 36 13 49 43 25 58
-8 4 -9 0 -4 -15 6 -19 3 -21 -37 -21 -41 0 -45 2 -53 32 -6 17 -17 34 -25 36
-11 4 -11 0 3 -16z m84 -68 c-3 -3 -12 -4 -19 -1 -8 3 -5 6 6 6 11 1 17 -2 13
-5z"/>
<path d="M8448 2683 c7 -3 16 -2 19 1 4 3 -2 6 -13 5 -11 0 -14 -3 -6 -6z"/>
<path d="M8434 2518 c6 -23 12 -34 14 -24 5 23 -6 66 -17 66 -4 0 -3 -19 3
-42z"/>
<path d="M8473 2545 c-3 -9 -3 -18 -1 -21 3 -3 8 4 11 16 6 23 -1 27 -10 5z"/>
<path d="M8470 2459 c0 -5 -4 -7 -10 -4 -5 3 -10 1 -10 -4 0 -6 7 -11 15 -11
8 0 15 7 15 15 0 8 -2 15 -5 15 -3 0 -5 -5 -5 -11z"/>
<path d="M8350 1955 c0 -23 4 -26 28 -23 19 2 27 9 27 23 0 14 -8 21 -27 23
-24 3 -28 0 -28 -23z"/>
<path d="M4174 2836 c-10 -26 4 -48 28 -44 17 2 23 10 23 28 0 18 -6 26 -23
28 -13 2 -25 -3 -28 -12z"/>
<path d="M10411 2720 c-75 -27 -153 -76 -203 -127 l-42 -43 39 0 c35 0 48 8
103 59 35 32 93 75 130 95 73 39 59 47 -27 16z"/>
<path d="M10730 2709 c34 -18 93 -61 130 -95 62 -59 71 -64 111 -64 l44 1 -55
50 c-66 60 -121 94 -197 120 -86 29 -104 23 -33 -12z"/>
<path d="M10475 2691 c-44 -22 -105 -62 -135 -90 l-55 -50 103 -1 c75 0 104 3
108 13 3 10 18 11 62 4 31 -4 118 -10 192 -13 l135 -5 -55 53 c-65 62 -170
118 -232 125 -35 3 -57 -3 -123 -36z"/>
<path d="M4771 2503 c51 -85 100 -153 121 -167 17 -12 50 -16 140 -16 65 0
118 2 118 5 0 11 -123 190 -138 203 -11 8 -56 12 -140 12 l-124 0 23 -37z"/>
<path d="M10111 2463 c-36 -73 -61 -155 -61 -205 l0 -38 44 0 45 0 6 58 c9 68
39 164 67 210 l20 32 -46 0 c-46 0 -46 0 -75 -57z"/>
<path d="M10242 2488 c-28 -46 -60 -146 -68 -213 l-7 -56 69 3 68 3 51 90 c28
50 65 116 84 148 l32 57 -104 0 -105 0 -20 -32z"/>
<path d="M10712 2512 c2 -5 39 -72 82 -150 l80 -142 68 0 c58 0 68 3 68 18 -1
46 -32 159 -61 217 l-32 65 -104 0 c-58 0 -103 -4 -101 -8z"/>
<path d="M10950 2516 c0 -2 11 -23 24 -47 31 -54 56 -149 56 -206 l0 -43 50 0
c48 0 50 1 50 28 0 46 -29 143 -62 210 -31 62 -31 62 -74 62 -24 0 -44 -2 -44
-4z"/>
<path d="M652 2235 c-9 -19 -19 -25 -42 -25 -36 0 -40 -17 -6 -26 l24 -6 -34
-75 c-19 -42 -33 -78 -30 -80 15 -15 43 13 59 57 15 42 22 50 42 50 33 0 31
-7 -7 -48 -30 -31 -31 -33 -8 -22 26 11 70 67 70 88 0 7 -15 12 -35 12 -48 0
-36 25 18 36 27 6 42 15 42 24 0 8 -7 13 -15 11 -55 -14 -59 -14 -53 8 8 29
-11 26 -25 -4z"/>
<path d="M4518 2236 c-13 -14 -66 -89 -117 -168 -51 -79 -100 -153 -108 -165
l-15 -23 115 0 c65 0 127 5 141 11 15 7 63 71 123 162 54 83 109 164 121 179
l24 28 -130 0 c-124 0 -130 -1 -154 -24z"/>
<path d="M5320 2150 l0 -110 25 0 c22 0 25 4 25 34 0 32 1 34 46 39 59 6 79
26 79 78 0 56 -21 69 -107 69 l-68 0 0 -110z m108 61 c25 -16 9 -46 -26 -49
-30 -3 -32 -1 -32 27 0 26 4 31 23 31 12 0 28 -4 35 -9z"/>
<path d="M5530 2150 l0 -110 76 0 c72 0 75 1 72 23 -3 19 -10 22 -50 25 -40 3
-48 6 -48 23 0 16 7 19 45 19 41 0 45 2 45 25 0 23 -4 25 -45 25 -33 0 -45 4
-45 14 0 11 14 16 48 18 40 3 47 6 50 26 3 21 0 22 -72 22 l-76 0 0 -110z"/>
<path d="M5720 2150 l0 -110 25 0 c23 0 25 4 25 40 0 22 4 40 9 40 5 0 22 -18
38 -40 23 -33 34 -40 62 -40 36 0 36 2 -13 58 -19 22 -19 22 2 45 27 29 29 78
4 100 -13 12 -37 17 -85 17 l-67 0 0 -110z m110 55 c10 -12 10 -18 0 -30 -21
-25 -54 -15 -58 18 -3 23 0 27 21 27 14 0 30 -7 37 -15z"/>
<path d="M5920 2235 c0 -21 5 -25 30 -25 l30 0 0 -85 c0 -84 0 -85 25 -85 25
0 25 1 25 85 l0 85 30 0 c25 0 30 4 30 25 0 25 -1 25 -85 25 -84 0 -85 0 -85
-25z"/>
<path d="M6121 2162 c-19 -53 -36 -103 -39 -109 -3 -9 6 -13 26 -13 21 0 31 6
35 20 4 15 14 20 42 20 28 0 38 -5 42 -20 4 -14 14 -20 35 -20 20 0 29 4 26
13 -3 6 -20 56 -39 109 -33 95 -35 98 -64 98 -29 0 -31 -3 -64 -98z m77 -9
c10 -31 10 -33 -13 -33 -22 0 -23 2 -12 35 6 19 11 34 12 32 1 -1 7 -17 13
-34z"/>
<path d="M6331 2173 c-7 -49 -15 -98 -18 -111 -5 -21 -2 -23 23 -20 22 2 30 9
32 28 1 14 5 41 8 60 l6 35 23 -60 c12 -33 28 -60 35 -60 7 0 22 27 34 60 20
52 23 56 29 35 4 -14 7 -42 7 -62 0 -36 2 -38 30 -38 26 0 30 3 26 23 -3 12
-10 61 -17 110 -11 86 -11 87 -39 87 -25 0 -30 -6 -45 -50 -9 -27 -20 -50 -25
-50 -5 0 -16 23 -25 50 -15 44 -20 50 -44 50 -27 0 -28 -2 -40 -87z"/>
<path d="M6600 2150 l0 -110 30 0 30 0 0 110 0 110 -30 0 -30 0 0 -110z"/>
<path d="M6701 2150 l-2 -110 31 0 30 0 0 67 0 68 48 -67 c38 -55 52 -68 75
-68 l27 0 0 110 0 110 -25 0 c-23 0 -24 -3 -27 -66 l-3 -66 -47 66 c-40 55
-53 66 -77 66 l-29 0 -1 -110z"/>
<path d="M7010 2236 c-4 -13 -22 -62 -39 -110 l-30 -86 29 0 c20 0 31 6 35 20
5 15 15 20 40 20 24 0 38 -6 45 -20 10 -19 60 -29 60 -13 0 4 -16 53 -36 110
-35 99 -38 103 -66 103 -21 0 -31 -6 -38 -24z m54 -93 c6 -19 3 -23 -13 -23
-22 0 -25 10 -14 49 6 25 14 18 27 -26z"/>
<path d="M810 2190 c0 -5 7 -10 15 -10 8 0 15 5 15 10 0 6 -7 10 -15 10 -8 0
-15 -4 -15 -10z"/>
<path d="M1140 2176 c0 -19 -4 -22 -25 -19 -33 7 -54 -34 -37 -71 9 -21 18
-25 52 -24 l40 0 0 69 c0 55 -3 69 -15 69 -9 0 -15 -9 -15 -24z m0 -66 c0 -23
-4 -30 -20 -30 -16 0 -20 7 -20 30 0 23 4 30 20 30 16 0 20 -7 20 -30z"/>
<path d="M187 2172 c-13 -51 25 -134 50 -108 4 5 2 11 -4 13 -7 3 -13 17 -13
33 0 16 6 31 13 34 10 5 10 7 0 12 -7 3 -13 12 -13 20 0 21 -27 17 -33 -4z"/>
<path d="M1280 2065 l0 -125 25 0 c22 0 25 4 25 39 0 21 6 44 14 50 12 10 20
3 43 -38 23 -42 33 -51 56 -51 15 0 27 3 27 6 0 4 -16 32 -35 64 -19 32 -35
63 -35 70 0 6 16 31 35 54 19 24 35 46 35 50 0 3 -13 6 -30 6 -25 0 -36 -9
-67 -57 l-38 -57 -3 57 c-3 53 -5 57 -27 57 l-25 0 0 -125z"/>
<path d="M2293 2182 c-22 -3 -23 -7 -23 -123 l0 -119 30 0 30 0 0 119 c0 66
-3 121 -7 123 -5 2 -18 2 -30 0z"/>
<path d="M10050 2158 c0 -48 24 -128 57 -195 l28 -58 53 -3 53 -3 -30 60 c-27
53 -49 121 -66 204 -5 25 -9 27 -50 27 -44 0 -45 -1 -45 -32z"/>
<path d="M10170 2182 c0 -21 40 -164 53 -188 14 -26 14 -25 19 38 3 35 15 85
26 111 l21 47 -60 0 c-32 0 -59 -4 -59 -8z"/>
<path d="M10912 2138 c10 -28 22 -76 26 -107 l8 -56 21 56 c12 31 26 79 31
107 l9 52 -57 0 -58 0 20 -52z"/>
<path d="M11030 2169 c0 -49 -40 -167 -88 -261 -2 -5 19 -8 47 -8 l50 0 35 73
c32 67 56 152 56 197 0 17 -7 20 -50 20 -44 0 -50 -2 -50 -21z"/>
<path d="M260 2108 c0 -36 4 -48 15 -48 11 0 15 11 15 35 0 22 6 38 15 41 25
10 17 23 -15 22 -29 -1 -30 -3 -30 -50z"/>
<path d="M342 2113 l3 -48 43 -2 42 -2 0 50 c0 36 -4 49 -14 49 -10 0 -16 -13
-18 -37 -2 -26 -8 -38 -18 -38 -10 0 -16 12 -18 38 -5 55 -24 45 -20 -10z"/>
<path d="M456 2144 c-10 -25 -7 -59 6 -72 15 -15 54 -16 63 -2 3 6 -5 10 -19
10 -14 0 -28 5 -31 10 -4 6 6 10 24 10 36 0 42 7 30 38 -10 27 -63 32 -73 6z
m52 -12 c2 -7 -6 -12 -17 -12 -21 0 -27 11 -14 24 9 9 26 2 31 -12z"/>
<path d="M740 2110 c0 -27 5 -50 10 -50 6 0 10 11 10 25 0 14 9 34 20 45 11
11 20 22 20 25 0 11 -29 4 -33 -7 -4 -10 -6 -10 -6 0 -1 6 -5 12 -11 12 -5 0
-10 -22 -10 -50z"/>
<path d="M810 2110 c0 -38 4 -50 15 -50 11 0 15 12 15 50 0 38 -4 50 -15 50
-11 0 -15 -12 -15 -50z"/>
<path d="M872 2148 c-15 -15 -15 -61 0 -76 14 -14 68 -16 68 -2 0 6 -11 10
-24 10 -14 0 -28 5 -31 10 -4 6 8 10 29 10 38 0 43 8 26 41 -12 21 -50 25 -68
7z m48 -18 c0 -5 -9 -10 -20 -10 -11 0 -20 5 -20 10 0 6 9 10 20 10 11 0 20
-4 20 -10z"/>
<path d="M960 2109 c0 -36 4 -49 14 -49 10 0 16 13 18 37 2 27 8 39 21 41 14
3 17 -4 17 -37 0 -23 5 -41 11 -41 6 0 9 19 7 48 l-3 47 -42 2 -43 2 0 -50z"/>
<path d="M3103 2140 c-3 -11 -9 -20 -14 -20 -5 0 -9 -9 -9 -20 0 -11 5 -20 10
-20 6 0 10 -24 10 -54 0 -63 16 -86 61 -86 22 0 29 5 29 20 0 11 -6 20 -14 20
-32 0 -37 89 -6 97 11 3 20 14 20 24 0 12 -7 19 -20 19 -13 0 -20 7 -20 20 0
14 -7 20 -21 20 -12 0 -23 -8 -26 -20z"/>
<path d="M3933 2140 c-3 -11 -9 -20 -14 -20 -5 0 -9 -9 -9 -20 0 -11 5 -20 10
-20 6 0 10 -24 10 -54 0 -63 16 -86 61 -86 22 0 29 5 29 20 0 11 -6 20 -14 20
-17 0 -26 22 -26 66 0 27 4 34 20 34 13 0 20 7 20 20 0 13 -7 20 -20 20 -13 0
-20 7 -20 20 0 14 -7 20 -21 20 -12 0 -23 -8 -26 -20z"/>
<path d="M1524 2108 c-12 -5 -27 -21 -33 -34 -31 -70 6 -134 79 -134 30 0 47
6 65 25 55 54 17 156 -57 154 -18 0 -43 -5 -54 -11z m78 -53 c16 -36 -4 -78
-35 -73 -17 2 -23 11 -25 36 -2 19 -1 40 2 48 9 23 45 16 58 -11z"/>
<path d="M1696 2112 c-2 -4 -2 -45 1 -90 6 -78 7 -82 29 -82 22 0 24 4 24 49
0 62 7 81 31 81 14 0 19 7 19 25 0 29 -16 32 -42 8 -17 -15 -18 -15 -18 0 0
17 -34 24 -44 9z"/>
<path d="M1845 2095 c-37 -36 -35 -105 2 -135 34 -27 116 -25 121 2 3 14 -6
17 -44 20 -71 5 -70 28 0 28 55 0 56 1 56 29 0 73 -84 108 -135 56z m73 -17
c19 -19 14 -28 -18 -28 -16 0 -30 4 -30 8 0 9 21 32 30 32 3 0 11 -5 18 -12z"/>
<path d="M2033 2113 c-7 -2 -13 -12 -13 -22 0 -13 8 -16 40 -13 52 5 52 -11 0
-27 -56 -16 -77 -62 -45 -95 10 -10 35 -14 81 -14 l66 0 -4 75 c-3 60 -7 78
-23 89 -18 14 -77 18 -102 7z m77 -102 c0 -5 -7 -17 -16 -26 -19 -18 -47 -3
-37 21 6 15 53 20 53 5z"/>
<path d="M2370 2030 c0 -89 0 -90 25 -90 24 0 25 3 25 53 0 60 17 92 43 81 14
-5 17 -19 17 -70 l0 -64 30 0 c30 0 30 0 30 60 0 32 -5 71 -12 85 -14 30 -50
42 -83 27 -15 -7 -26 -8 -30 -2 -4 6 -15 10 -26 10 -17 0 -19 -8 -19 -90z"/>
<path d="M2561 2103 c0 -10 13 -49 28 -88 24 -64 29 -70 55 -70 26 0 31 6 57
75 35 93 35 100 4 100 -21 0 -27 -8 -42 -62 l-19 -62 -17 62 c-15 55 -20 62
-42 62 -17 0 -25 -5 -24 -17z"/>
<path d="M2777 2100 c-33 -26 -42 -69 -23 -114 16 -39 40 -49 102 -44 57 4 53
31 -5 38 -68 8 -65 30 3 30 56 0 56 0 56 30 0 67 -79 102 -133 60z m71 -22
c19 -19 14 -28 -18 -28 -16 0 -30 4 -30 8 0 9 21 32 30 32 3 0 11 -5 18 -12z"/>
<path d="M2956 2104 c-32 -31 -13 -79 37 -97 9 -4 17 -11 17 -16 0 -17 -17
-22 -43 -12 -20 8 -27 6 -31 -5 -10 -26 3 -34 49 -34 79 0 104 63 40 101 -43
26 -45 39 -5 39 23 0 30 4 30 20 0 17 -7 20 -39 20 -23 0 -46 -7 -55 -16z"/>
<path d="M3220 2030 l0 -90 30 0 30 0 0 64 c0 67 10 86 35 66 10 -8 15 -32 15
-71 0 -56 1 -59 25 -59 24 0 25 3 25 59 0 42 5 62 16 72 25 20 44 -14 44 -78
0 -50 1 -53 25 -53 24 0 25 2 25 68 0 79 -17 112 -57 112 -15 0 -34 -7 -43
-15 -15 -14 -18 -14 -30 0 -14 17 -43 19 -70 5 -13 -7 -21 -7 -25 0 -3 5 -15
10 -26 10 -17 0 -19 -8 -19 -90z"/>
<path d="M3559 2107 c-45 -34 -52 -105 -14 -142 19 -20 34 -25 75 -25 43 0 50
3 50 20 0 17 -7 20 -39 20 -22 0 -44 6 -51 15 -11 13 -5 15 49 15 55 0 61 2
61 20 0 29 -26 76 -45 84 -26 10 -69 6 -86 -7z m75 -43 c4 -10 -3 -14 -29 -14
-39 0 -41 2 -20 24 17 17 40 12 49 -10z"/>
<path d="M3720 2030 c0 -89 0 -90 25 -90 24 0 25 3 25 59 0 40 5 63 15 71 27
23 45 -5 45 -71 0 -56 1 -59 25 -59 24 0 25 2 25 73 0 59 -4 77 -18 90 -22 20
-63 22 -81 5 -11 -10 -14 -10 -18 0 -3 6 -13 12 -24 12 -17 0 -19 -8 -19 -90z"/>
<path d="M5990 1793 c0 -56 4 -93 10 -93 6 0 10 27 10 62 l0 62 65 -64 65 -64
0 87 c0 51 -4 87 -10 87 -6 0 -10 -28 -10 -62 l-1 -63 -64 70 -65 70 0 -92z"/>
<path d="M6231 1866 c-27 -15 -50 -52 -51 -79 0 -36 29 -76 63 -85 58 -16 107
15 107 67 0 17 -6 21 -35 21 -19 0 -35 -4 -35 -10 0 -5 9 -10 20 -10 11 0 20
-6 20 -13 0 -37 -65 -50 -93 -19 -22 25 -21 75 1 95 22 20 73 22 90 5 6 -6 15
-8 19 -5 11 12 -20 36 -52 42 -17 3 -41 -1 -54 -9z"/>
<path d="M5320 1785 l0 -85 43 0 c45 1 67 12 85 47 34 62 -7 123 -83 123 l-45
0 0 -85z m99 39 c12 -15 21 -32 21 -39 0 -24 -41 -65 -66 -65 -23 0 -24 3 -24
65 0 62 1 65 24 65 15 0 33 -11 45 -26z"/>
<path d="M5500 1785 c0 -85 16 -119 22 -47 l3 37 25 -37 c14 -21 31 -38 38
-38 17 0 15 6 -10 41 -21 28 -22 31 -5 40 20 11 23 59 5 77 -7 7 -27 12 -45
12 l-33 0 0 -85z m68 41 c2 -10 -2 -22 -10 -27 -25 -17 -38 -9 -38 22 0 26 3
30 22 27 13 -2 24 -11 26 -22z"/>
<path d="M5640 1785 c0 -50 4 -85 10 -85 6 0 10 35 10 85 0 50 -4 85 -10 85
-6 0 -10 -35 -10 -85z"/>
<path d="M5710 1785 l0 -85 40 0 c22 0 40 5 40 10 0 6 -13 10 -30 10 l-30 0 0
75 c0 43 -4 75 -10 75 -6 0 -10 -35 -10 -85z"/>
<path d="M5810 1785 l0 -85 40 0 c22 0 40 5 40 10 0 6 -11 10 -25 10 -24 0
-25 2 -25 75 0 60 -3 75 -15 75 -12 0 -15 -16 -15 -85z"/>
<path d="M5920 1785 c0 -50 4 -85 10 -85 6 0 10 35 10 85 0 50 -4 85 -10 85
-6 0 -10 -35 -10 -85z"/>
<path d="M10205 1829 c56 -58 115 -96 190 -124 83 -32 105 -32 40 -1 -59 28
-88 54 -140 119 -35 44 -41 47 -83 47 l-46 0 39 -41z"/>
<path d="M10881 1827 c-38 -55 -93 -104 -145 -129 -35 -17 -37 -19 -11 -13 60
12 176 77 233 130 l57 54 -52 1 c-50 0 -53 -1 -82 -43z"/>
<path d="M1640 1766 c0 -44 4 -76 10 -76 6 0 10 9 10 20 0 11 3 20 8 20 4 0
13 -9 20 -20 7 -11 17 -20 23 -20 6 0 1 14 -11 31 -21 29 -21 31 -5 50 10 10
13 19 8 19 -6 0 -18 -10 -26 -22 -16 -23 -16 -22 -16 19 -1 23 -5 45 -11 48
-6 4 -10 -22 -10 -69z"/>
<path d="M2480 1810 c0 -19 -4 -29 -11 -25 -20 13 -59 -5 -65 -29 -10 -42 11
-66 56 -64 l40 1 0 68 c0 37 -4 71 -10 74 -6 4 -10 -7 -10 -25z m-10 -45 c18
-21 4 -65 -20 -65 -24 0 -38 44 -20 65 7 8 16 15 20 15 4 0 13 -7 20 -15z"/>
<path d="M1285 1819 c-4 -5 -4 -21 -1 -35 4 -13 2 -24 -3 -24 -16 0 -24 -40
-11 -55 8 -9 28 -14 54 -13 39 2 41 4 43 36 1 29 0 32 -11 17 -11 -15 -13 -15
-25 -2 -9 12 -10 20 0 35 7 11 9 27 6 36 -7 18 -42 22 -52 5z m41 -10 c10 -17
-13 -36 -27 -22 -12 12 -4 33 11 33 5 0 12 -5 16 -11z m4 -96 c0 -18 -39 -17
-46 2 -4 8 -3 22 0 31 6 15 8 15 26 -1 11 -10 20 -24 20 -32z"/>
<path d="M1442 1818 c-19 -19 -14 -36 16 -55 15 -10 30 -22 34 -27 11 -17 -14
-38 -39 -33 -13 2 -23 0 -23 -5 0 -5 17 -8 38 -6 32 3 37 7 40 30 3 21 -3 30
-28 43 -36 19 -38 50 -2 49 12 0 22 3 22 8 0 12 -44 10 -58 -4z"/>
<path d="M1915 1820 c-3 -5 -1 -10 4 -10 6 0 11 5 11 10 0 6 -2 10 -4 10 -3 0
-8 -4 -11 -10z"/>
<path d="M2250 1761 c0 -41 4 -71 10 -71 6 0 10 28 10 64 0 36 -4 68 -10 71
-6 4 -10 -20 -10 -64z"/>
<path d="M2930 1820 c0 -5 5 -10 10 -10 6 0 10 5 10 10 0 6 -4 10 -10 10 -5 0
-10 -4 -10 -10z"/>
<path d="M1963 1794 c-8 -8 -9 -15 -3 -19 6 -3 10 -24 10 -46 0 -34 3 -39 23
-39 20 1 20 2 5 11 -12 6 -18 22 -18 44 0 26 4 35 18 36 13 0 14 2 2 6 -8 3
-17 9 -20 13 -3 4 -11 2 -17 -6z"/>
<path d="M1540 1771 c-24 -46 -5 -82 45 -80 l30 1 -30 7 c-17 3 -31 14 -33 24
-3 14 4 17 32 17 20 0 36 3 36 6 0 20 -24 44 -45 44 -14 0 -29 -8 -35 -19z
m58 -8 c2 -8 -6 -13 -22 -13 -25 0 -33 10 -19 24 10 10 36 3 41 -11z"/>
<path d="M1736 1777 c-5 -10 -4 -32 1 -50 8 -28 13 -32 46 -34 l37 -1 0 49 c0
60 -18 65 -22 7 -2 -35 -7 -43 -23 -43 -16 0 -21 9 -26 45 -4 34 -7 41 -13 27z"/>
<path d="M1851 1735 l1 -50 8 39 c4 22 15 45 24 52 15 11 14 12 -8 10 -24 -1
-26 -4 -25 -51z"/>
<path d="M1910 1740 c0 -27 5 -50 10 -50 6 0 10 23 10 50 0 28 -4 50 -10 50
-5 0 -10 -22 -10 -50z"/>
<path d="M2030 1782 c0 -5 10 -8 21 -8 12 1 24 -5 26 -11 3 -8 -4 -13 -15 -13
-24 0 -46 -25 -39 -45 4 -9 19 -14 42 -13 32 1 35 4 35 30 0 43 -17 68 -45 68
-14 0 -25 -4 -25 -8z m50 -57 c0 -16 -27 -32 -37 -22 -3 4 -3 13 0 22 8 20 37
20 37 0z"/>
<path d="M2123 1774 c-4 -10 4 -24 23 -39 22 -18 25 -25 14 -28 -40 -14 -43
-16 -15 -14 37 3 49 41 16 52 -28 9 -27 33 2 38 19 4 18 4 -6 6 -17 0 -30 -5
-34 -15z"/>
<path d="M2302 1735 c1 -42 2 -44 5 -13 8 70 53 76 53 7 0 -21 5 -39 10 -39
12 0 13 69 2 87 -4 7 -22 12 -40 10 -32 -2 -32 -2 -30 -52z"/>
<path d="M2532 1778 c-7 -7 -12 -24 -12 -38 0 -31 17 -50 45 -50 28 0 45 19
45 50 0 31 -17 50 -45 50 -12 0 -26 -5 -33 -12z m60 -23 c9 -21 9 -29 -4 -42
-23 -22 -48 -9 -48 25 0 49 33 59 52 17z"/>
<path d="M2642 1735 c1 -42 2 -44 5 -13 8 70 53 76 53 7 0 -21 5 -39 11 -39 6
0 9 19 7 48 l-3 47 -37 0 -38 1 2 -51z"/>
<path d="M2756 1774 c-34 -33 -11 -85 37 -83 l32 1 -30 7 c-17 3 -31 14 -33
24 -3 14 4 17 32 17 37 0 47 15 24 38 -17 17 -44 15 -62 -4z m52 -11 c2 -8 -6
-13 -22 -13 -25 0 -33 10 -19 24 10 10 36 3 41 -11z"/>
<path d="M2853 1773 c-4 -10 2 -23 15 -34 28 -22 28 -36 0 -42 -20 -4 -19 -4
5 -6 41 -2 47 27 12 55 l-29 23 24 10 c25 10 25 10 2 10 -12 1 -25 -6 -29 -16z"/>
<path d="M2930 1740 c0 -27 5 -50 10 -50 6 0 10 23 10 50 0 28 -4 50 -10 50
-5 0 -10 -22 -10 -50z"/>
<path d="M2980 1782 c0 -5 10 -8 21 -8 12 1 24 -5 26 -11 3 -8 -4 -13 -15 -13
-24 0 -46 -25 -39 -45 4 -9 19 -14 42 -13 33 1 35 3 35 38 0 20 -5 41 -12 48
-14 14 -58 16 -58 4z m50 -57 c0 -16 -27 -32 -37 -22 -3 4 -3 13 0 22 8 20 37
20 37 0z"/>
<path d="M7530 1702 c-5 -2 -10 -8 -10 -14 0 -6 6 -6 15 2 20 16 28 -6 23 -60
-3 -31 0 -40 12 -40 12 0 15 9 12 40 -5 54 3 76 23 60 10 -9 15 -9 15 -1 0 6
-4 12 -10 12 -25 3 -71 4 -80 1z"/>
<path d="M7808 1703 c-12 -3 -17 -18 -20 -59 l-3 -54 43 0 c34 0 42 3 41 18 0
10 -3 12 -6 5 -2 -7 -16 -13 -29 -13 -18 0 -24 5 -24 21 0 15 5 19 15 15 11
-4 15 1 15 17 0 17 -2 19 -10 7 -8 -12 -10 -12 -16 3 -10 27 9 41 35 28 14 -8
21 -8 21 -1 0 5 -4 10 -9 10 -5 0 -15 2 -23 4 -7 2 -20 2 -30 -1z"/>
<path d="M7900 1702 c-5 -2 -10 -8 -10 -14 0 -6 6 -6 15 2 13 11 15 5 15 -44
0 -47 3 -56 18 -56 14 0 17 8 14 55 -4 55 3 66 26 43 9 -9 12 -9 12 0 0 7 -4
13 -10 13 -25 3 -71 4 -80 1z"/>
<path d="M8140 1690 c-11 -11 -20 -28 -20 -38 0 -24 28 -62 46 -62 14 0 14 2
0 16 -27 26 -13 94 18 94 26 0 37 -75 14 -98 -7 -7 -8 -12 -2 -12 19 0 44 36
44 63 0 28 -32 57 -62 57 -10 0 -27 -9 -38 -20z"/>
<path d="M8850 1690 c-27 -27 -26 -65 2 -84 29 -21 44 -20 23 0 -24 25 -16 76
15 91 24 12 25 13 3 13 -13 0 -32 -9 -43 -20z"/>
<path d="M9108 1703 c-14 -4 -18 -15 -18 -59 0 -45 3 -54 18 -54 14 0 17 8 14
55 -4 57 8 71 36 43 8 -8 12 -8 12 -1 0 6 -7 14 -16 17 -17 6 -19 6 -46 -1z"/>
<path d="M9213 1703 c-23 -9 -15 -49 13 -63 17 -10 24 -20 20 -33 -3 -11 0
-17 7 -14 7 2 13 15 15 30 3 20 -3 29 -28 42 -17 9 -28 20 -25 25 10 16 33 12
44 -7 9 -16 10 -16 11 -2 0 23 -28 34 -57 22z"/>
<path d="M7430 1645 c0 -42 3 -55 15 -55 9 0 15 9 15 23 0 16 9 28 26 36 28
12 30 44 2 49 -12 2 -15 -2 -11 -16 2 -11 0 -23 -6 -26 -7 -5 -11 3 -11 18 0
16 -6 26 -15 26 -12 0 -15 -13 -15 -55z"/>
<path d="M7685 1645 c0 -37 4 -55 13 -55 6 0 12 11 12 25 0 18 7 26 26 31 18
5 24 12 22 27 -2 11 -9 22 -16 25 -7 2 -13 -2 -11 -9 3 -25 -1 -39 -11 -39 -5
0 -10 11 -10 25 0 14 -6 25 -12 25 -9 0 -13 -18 -13 -55z"/>
<path d="M8010 1645 c0 -42 3 -55 15 -55 10 0 15 10 15 28 l1 27 22 -27 c30
-37 56 -38 32 -2 -13 20 -14 28 -5 40 15 16 6 44 -13 44 -7 0 -13 -10 -13 -21
1 -12 -5 -24 -11 -26 -8 -3 -13 5 -13 21 0 16 -6 26 -15 26 -12 0 -15 -13 -15
-55z"/>
<path d="M8265 1645 c0 -44 3 -55 16 -55 12 0 15 7 12 28 l-4 27 25 -27 c14
-16 33 -28 42 -28 13 0 11 7 -11 36 l-28 37 24 18 c13 10 19 19 13 19 -6 0
-19 -9 -29 -20 -10 -11 -22 -20 -27 -20 -4 0 -8 9 -8 20 0 11 -6 20 -12 20 -9
0 -13 -18 -13 -55z"/>
<path d="M8395 1645 c0 -46 3 -55 18 -55 14 0 17 9 17 55 0 46 -3 55 -17 55
-15 0 -18 -9 -18 -55z"/>
<path d="M8462 1643 l2 -58 3 50 4 49 20 -44 21 -45 24 45 24 45 -2 -47 c-3
-37 0 -48 12 -48 12 0 15 13 15 55 0 65 -21 75 -47 23 l-16 -33 -12 33 c-8 21
-19 32 -31 32 -17 0 -19 -7 -17 -57z"/>
<path d="M8620 1645 c0 -42 3 -55 15 -55 12 0 15 13 15 55 0 42 -3 55 -15 55
-12 0 -15 -13 -15 -55z"/>
<path d="M8716 1684 c-4 -9 -1 -23 5 -31 7 -7 9 -17 5 -20 -4 -4 -11 -2 -15 5
-5 9 -11 5 -19 -13 -15 -32 -15 -35 -2 -35 6 0 9 6 8 12 -4 19 41 22 48 4 3
-9 13 -16 21 -16 8 0 13 4 11 8 -1 4 -12 29 -23 55 -21 50 -29 56 -39 31z"/>
<path d="M8926 1685 c4 -8 8 -15 10 -15 2 0 4 7 4 15 0 8 -4 15 -10 15 -5 0
-7 -7 -4 -15z"/>
<path d="M8970 1645 c0 -42 3 -55 15 -55 10 0 15 10 15 28 l1 27 22 -27 c30
-37 56 -38 32 -2 -13 20 -14 28 -5 40 15 17 6 44 -13 44 -10 0 -13 -8 -9 -25
3 -18 0 -25 -12 -25 -10 0 -16 9 -16 25 0 16 -6 25 -15 25 -12 0 -15 -13 -15
-55z"/>
<path d="M9300 1645 c0 -42 3 -55 15 -55 12 0 15 13 15 55 0 42 -3 55 -15 55
-12 0 -15 -13 -15 -55z"/>
<path d="M9370 1645 c0 -40 4 -55 14 -55 9 0 12 8 8 25 -2 14 0 25 5 25 5 0
16 -11 23 -25 7 -14 22 -25 32 -25 25 0 23 9 -9 42 l-26 27 24 20 c13 11 20
20 16 21 -4 0 -17 -9 -29 -20 -12 -11 -26 -20 -31 -20 -5 0 -7 9 -4 20 3 13 0
20 -9 20 -10 0 -14 -14 -14 -55z"/>
<path d="M9135 1660 c-3 -5 -1 -18 4 -27 9 -16 10 -14 11 10 0 28 -5 34 -15
17z"/>
<path d="M8907 1615 c-3 -20 -1 -25 12 -23 9 2 17 13 19 26 5 31 -24 29 -31
-3z"/>
<path d="M9156 1604 c-17 -12 -17 -14 -4 -14 9 0 20 5 23 11 11 17 2 18 -19 3z"/>
<path d="M10050 1490 l0 -40 45 0 45 0 0 -120 0 -120 50 0 50 0 0 120 0 120
50 0 50 0 0 40 0 40 -145 0 -145 0 0 -40z"/>
<path d="M10390 1370 l0 -160 45 0 44 0 3 58 3 57 55 5 c30 3 65 11 77 18 31
17 45 74 30 120 -16 48 -52 61 -169 61 l-88 1 0 -160z m167 74 c10 -26 -11
-49 -46 -52 -30 -3 -31 -2 -31 32 0 34 2 36 35 36 24 0 38 -5 42 -16z"/>
<path d="M10710 1370 l0 -160 50 0 50 0 0 60 0 60 45 0 c57 0 93 17 111 51 18
36 18 63 -1 98 -19 39 -60 51 -166 51 l-89 0 0 -160z m168 61 c4 -26 -12 -41
-45 -41 -20 0 -23 5 -23 36 0 34 1 35 33 32 25 -2 33 -8 35 -27z"/>
<path d="M11037 1523 c-4 -3 -7 -75 -7 -160 l0 -153 50 0 50 0 0 160 0 160
-43 0 c-24 0 -47 -3 -50 -7z"/>
<path d="M7830 1068 c-65 -27 -87 -44 -166 -124 -94 -97 -146 -130 -248 -155
-38 -9 -50 -9 -56 0 -14 24 -18 -26 -5 -77 20 -77 53 -134 73 -128 102 31 256
38 355 17 51 -11 64 -10 120 7 98 32 112 33 177 16 80 -20 125 -7 146 42 19
46 18 46 -20 8 -28 -28 -42 -34 -75 -34 -52 0 -111 24 -111 45 0 28 31 78 91
145 32 36 62 78 68 93 10 27 15 105 5 80 -3 -7 -18 -10 -39 -6 -28 4 -34 2
-41 -18 -8 -21 -9 -18 -15 21 -5 37 -7 41 -14 23 -8 -25 -20 -29 -30 -13 -4 6
-16 8 -26 5 -14 -5 -20 -2 -19 7 3 22 -12 58 -21 52 -5 -3 -9 -1 -9 5 0 6 -7
8 -15 5 -8 -4 -15 -1 -15 5 0 18 -31 12 -110 -21z"/>
<path d="M5091 1034 c-34 -12 -50 -13 -68 -5 -34 16 -119 14 -153 -4 -40 -21
-60 -53 -60 -99 0 -31 7 -45 35 -72 l35 -33 -27 -13 c-32 -15 -42 -58 -19 -77
8 -7 50 -15 93 -18 106 -8 135 -33 94 -84 -15 -19 -28 -23 -68 -22 -53 1 -106
22 -121 49 -12 22 -32 9 -32 -20 0 -69 148 -111 250 -70 68 27 92 107 48 159
-19 21 -37 28 -93 36 -99 13 -105 16 -76 40 13 10 34 19 47 19 79 0 137 67
115 131 -12 36 -4 49 35 49 45 0 54 -27 54 -163 0 -115 2 -127 19 -137 11 -5
29 -10 40 -10 20 0 21 5 21 129 l0 129 37 17 c61 29 67 18 73 -129 5 -135 10
-146 58 -146 l23 0 -3 156 c-3 152 -4 156 -28 176 -31 25 -109 21 -141 -8 -19
-18 -22 -18 -33 -2 -15 20 -58 38 -89 38 -12 -1 -42 -8 -66 -16z m-86 -67 c8
-12 15 -30 15 -41 0 -28 -39 -66 -67 -66 -52 0 -84 78 -45 112 35 31 73 29 97
-5z"/>
<path d="M1873 1015 c-56 -27 -87 -67 -98 -128 -9 -46 14 -113 50 -147 l25
-23 0 22 c0 14 5 21 13 17 6 -2 29 -10 50 -17 29 -9 37 -17 37 -36 0 -27 23
-30 74 -9 41 17 81 68 95 121 21 78 -26 171 -103 206 -55 25 -81 24 -143 -6z
m151 -26 c72 -57 -15 -167 -91 -114 -29 20 -37 59 -18 94 23 46 66 54 109 20z"/>
<path d="M4470 1033 c-1 -5 0 -102 0 -218 1 -227 5 -245 57 -245 24 0 25 2 21
64 l-3 64 66 -5 c63 -5 67 -4 102 27 21 18 41 47 47 68 13 49 12 128 -3 172
-24 71 -124 104 -181 59 l-26 -20 -26 20 c-27 21 -54 28 -54 14z m194 -75 c20
-28 21 -142 3 -178 -13 -26 -50 -36 -93 -26 -23 6 -24 9 -24 105 0 92 1 99 23
109 37 18 74 14 91 -10z"/>
<path d="M8303 988 c4 -13 8 -14 47 -17 18 -1 20 -10 22 -108 2 -88 6 -108 18
-108 12 0 16 20 18 107 l3 107 31 3 c17 2 33 9 36 16 3 9 -19 12 -88 12 -69 0
-91 -3 -87 -12z"/>
<path d="M8520 875 c0 -104 2 -125 15 -125 12 0 15 13 15 56 0 54 0 55 28 52
22 -2 32 -13 52 -55 25 -52 50 -70 50 -35 0 9 -11 36 -25 60 -24 42 -24 43 -5
62 26 26 25 65 0 90 -15 15 -33 20 -75 20 l-55 0 0 -125z m107 77 c19 -23 -6
-56 -46 -60 -30 -3 -31 -2 -31 36 0 21 3 42 6 45 11 10 58 -4 71 -21z"/>
<path d="M8735 988 c-3 -8 -4 -63 -3 -124 2 -89 6 -109 18 -109 12 0 15 20 15
119 0 87 -3 120 -12 123 -7 3 -15 -2 -18 -9z"/>
<path d="M8834 975 c-25 -38 -9 -73 46 -105 37 -22 45 -31 45 -56 0 -28 -1
-29 -52 -29 -35 1 -53 -3 -53 -11 0 -33 98 -33 128 -1 40 42 26 81 -43 121
-34 20 -45 33 -45 51 0 30 37 43 70 25 19 -10 21 -9 18 7 -2 14 -14 19 -50 21
-41 3 -49 0 -64 -23z"/>
<path d="M8980 991 c0 -11 25 -21 56 -21 24 0 24 0 24 -110 0 -91 3 -110 15
-110 12 0 15 19 15 109 l0 110 37 3 c20 2 38 9 41 16 3 9 -20 12 -92 12 -53 0
-96 -4 -96 -9z"/>
<path d="M9230 998 c0 -2 -18 -53 -40 -114 -22 -60 -40 -115 -40 -121 0 -27
27 -11 39 22 12 34 14 35 62 35 46 0 49 -2 63 -35 8 -19 22 -35 30 -35 21 0
21 -3 -27 130 -35 96 -46 116 -65 118 -12 2 -22 2 -22 0z m44 -95 c9 -26 16
-50 16 -55 0 -10 -67 -11 -74 0 -6 10 26 102 35 102 4 0 14 -21 23 -47z"/>
<path d="M9400 875 c0 -104 2 -125 15 -125 12 0 15 13 15 55 0 51 2 55 23 55
28 0 50 -22 70 -72 9 -21 23 -38 31 -38 21 0 21 2 -13 69 -27 55 -28 58 -10
69 13 8 19 24 19 47 0 46 -29 65 -97 65 l-53 0 0 -125z m109 80 c30 -29 -20
-78 -64 -61 -15 5 -22 66 -9 79 9 9 56 -3 73 -18z"/>
<path d="M3837 973 c-4 -3 -7 -60 -7 -125 0 -111 1 -118 20 -118 19 0 20 7 20
125 0 98 -3 125 -13 125 -8 0 -17 -3 -20 -7z"/>
<path d="M2260 851 c0 -113 1 -121 19 -121 17 0 20 8 23 48 l3 47 54 5 c77 8
105 58 62 111 -16 19 -30 24 -90 27 l-71 4 0 -121z m127 63 c10 -27 -11 -49
-48 -49 -31 0 -34 3 -37 33 -3 31 -2 32 38 32 28 0 43 -5 47 -16z"/>
<path d="M3070 950 c0 -13 7 -20 20 -20 13 0 20 7 20 20 0 13 -7 20 -20 20
-13 0 -20 -7 -20 -20z"/>
<path d="M3518 952 c-66 -40 -75 -140 -19 -196 28 -28 38 -31 92 -31 57 0 62
2 95 37 27 30 34 46 34 78 0 82 -49 130 -132 130 -24 0 -55 -8 -70 -18z m122
-32 c44 -23 45 -114 2 -146 -27 -21 -83 -17 -109 8 -31 29 -32 99 -3 128 22
22 78 27 110 10z"/>
<path d="M3750 950 c0 -13 7 -20 18 -20 24 0 32 8 25 26 -8 22 -43 17 -43 -6z"/>
<path d="M2471 882 c-7 -2 -11 -34 -11 -78 0 -67 2 -74 20 -74 18 0 20 7 20
54 0 55 9 71 44 77 11 2 21 9 23 16 3 9 -9 12 -41 10 -24 -1 -49 -3 -55 -5z"/>
<path d="M2613 878 c-12 -6 -27 -23 -33 -39 -17 -40 -1 -80 42 -103 31 -17 39
-18 67 -7 42 18 40 35 -3 27 -42 -8 -66 1 -66 25 0 17 8 19 61 19 l61 0 -7 28
c-14 57 -64 78 -122 50z m71 -24 c22 -21 11 -34 -28 -34 -42 0 -50 9 -29 32
20 22 37 23 57 2z"/>
<path d="M2780 882 c-5 -2 -10 -37 -10 -78 0 -67 2 -74 20 -74 17 0 20 7 20
48 0 59 18 87 48 78 19 -7 22 -15 22 -67 0 -52 2 -59 20 -59 17 0 20 7 20 48
0 55 18 86 46 80 16 -3 19 -13 22 -66 3 -54 6 -62 22 -62 18 0 20 7 20 61 0
33 -5 69 -10 80 -12 21 -59 26 -78 7 -9 -9 -17 -9 -34 0 -20 10 -101 13 -128
4z"/>
<path d="M3083 883 c-9 -3 -13 -29 -13 -79 0 -67 2 -74 20 -74 18 0 20 7 20
80 0 44 -3 80 -7 79 -5 0 -14 -3 -20 -6z"/>
<path d="M3175 865 c-65 -64 9 -174 91 -136 38 17 30 34 -12 27 -37 -8 -64 5
-64 30 0 10 16 14 60 14 52 0 60 3 60 19 0 10 -9 30 -21 45 -28 35 -80 36
-114 1z m76 -5 c34 -19 23 -40 -21 -40 -43 0 -55 20 -22 39 21 13 20 13 43 1z"/>
<path d="M3351 882 c-7 -2 -11 -35 -11 -78 0 -67 2 -74 20 -74 17 0 20 7 20
44 0 58 8 76 36 87 13 4 24 13 24 17 0 9 -67 11 -89 4z"/>
<path d="M3763 883 c-9 -3 -13 -29 -13 -79 0 -67 2 -74 20 -74 18 0 20 7 20
80 0 44 -3 80 -7 79 -5 0 -14 -3 -20 -6z"/>
<path d="M8300 601 c0 -110 2 -131 15 -131 12 0 15 18 15 102 0 62 4 98 9 93
5 -6 24 -48 41 -95 18 -47 36 -89 41 -94 15 -17 33 11 69 103 19 50 38 91 42
91 5 0 8 -45 8 -100 0 -83 3 -100 15 -100 13 0 15 19 13 128 l-3 127 -24 0
c-22 0 -30 -11 -63 -95 -22 -52 -40 -96 -42 -98 -2 -1 -21 41 -43 95 -35 87
-42 98 -66 101 l-27 3 0 -130z"/>
<path d="M8695 718 c-51 -139 -83 -237 -78 -242 13 -13 23 -5 37 29 14 33 17
35 65 35 48 0 51 -2 65 -35 14 -33 26 -42 39 -29 4 5 -42 146 -78 237 -8 20
-43 23 -50 5z m39 -70 c32 -77 32 -78 -14 -78 -32 0 -41 3 -37 14 3 8 11 32
18 55 7 23 14 41 16 41 2 0 10 -15 17 -32z"/>
<path d="M8877 723 c-4 -3 -7 -62 -7 -130 0 -103 2 -123 15 -123 11 0 15 13
15 54 0 30 4 58 10 61 18 11 52 -17 71 -60 21 -48 36 -62 49 -49 5 5 -3 34
-19 66 -27 56 -27 59 -9 75 27 24 23 68 -8 92 -26 20 -102 30 -117 14z m89
-31 c37 -25 17 -72 -31 -72 -34 0 -35 1 -35 40 0 37 2 40 28 40 15 0 32 -4 38
-8z"/>
<path d="M9085 718 c-3 -8 -4 -66 -3 -129 2 -93 6 -114 18 -114 13 0 15 20 15
124 0 91 -3 125 -12 128 -7 3 -15 -2 -18 -9z"/>
<path d="M9185 718 c-3 -8 -4 -66 -3 -129 2 -93 6 -114 18 -114 12 0 16 20 20
98 l5 99 50 -93 c53 -98 79 -125 95 -99 13 19 13 220 0 240 -18 29 -29 -5 -32
-95 l-3 -90 -50 95 c-38 71 -56 96 -73 98 -12 2 -24 -3 -27 -10z"/>
<path d="M9447 723 c-4 -3 -7 -59 -7 -124 0 -133 -3 -129 86 -129 41 0 54 4
54 15 0 11 -12 15 -50 15 l-50 0 0 45 0 45 45 0 c33 0 45 4 45 15 0 11 -12 15
-45 15 l-45 0 0 40 0 40 50 0 c38 0 50 4 50 15 0 12 -14 15 -63 15 -35 0 -67
-3 -70 -7z"/>
<path d="M7508 583 c-90 -17 -91 -24 -16 -88 103 -88 248 -129 375 -106 94 16
255 104 201 109 -7 0 -33 4 -57 8 -65 10 -24 28 46 19 44 -5 58 -3 74 11 10 9
19 20 19 24 0 17 -34 20 -50 5 -10 -9 -41 -18 -71 -20 l-54 -5 38 13 c21 7 38
17 38 22 -1 22 -107 13 -235 -19 -105 -27 -289 -61 -211 -40 11 4 63 20 115
37 l95 31 -40 7 c-62 12 -182 8 -267 -8z"/>
<path d="M3612 530 c0 -19 2 -27 5 -17 2 9 2 25 0 35 -3 9 -5 1 -5 -18z"/>
<path d="M3722 535 c0 -16 2 -22 5 -12 2 9 2 23 0 30 -3 6 -5 -1 -5 -18z"/>
<path d="M2315 540 c-3 -5 -1 -10 4 -10 6 0 11 5 11 10 0 6 -2 10 -4 10 -3 0
-8 -4 -11 -10z"/>
<path d="M3845 519 c-4 -6 -5 -12 -2 -15 2 -3 7 2 10 11 7 17 1 20 -8 4z"/>
</g>
</svg>
