<svg width="32" height="32" viewBox="0 0 32 32" fill="none" xmlns="http://www.w3.org/2000/svg">
<path d="M22.2924 26.336L21.4391 19.504C21.3182 18.5363 20.8479 17.6461 20.1167 17.0008C19.3854 16.3555 18.4437 15.9996 17.4684 16H14.5298C13.555 16.0003 12.6139 16.3565 11.8832 17.0017C11.1526 17.6469 10.6826 18.5368 10.5618 19.504L9.7071 26.336C9.6602 26.7114 9.69369 27.0924 9.80534 27.4538C9.917 27.8152 10.1043 28.1487 10.3547 28.4322C10.6052 28.7157 10.9131 28.9427 11.2579 29.098C11.6028 29.2534 11.9768 29.3336 12.3551 29.3333H19.6458C20.0239 29.3334 20.3978 29.2531 20.7425 29.0976C21.0872 28.9422 21.395 28.7152 21.6453 28.4317C21.8956 28.1483 22.0827 27.8148 22.1943 27.4535C22.3059 27.0922 22.3393 26.7112 22.2924 26.336V26.336Z" stroke="white" stroke-opacity="0.87" stroke-width="2.66667" stroke-linecap="round" stroke-linejoin="round"/>
<path d="M16 10.667C18.2091 10.667 20 8.87613 20 6.66699C20 4.45785 18.2091 2.66699 16 2.66699C13.7909 2.66699 12 4.45785 12 6.66699C12 8.87613 13.7909 10.667 16 10.667Z" stroke="white" stroke-opacity="0.87" stroke-width="2.66667"/>
<path d="M5.33366 14.6673C6.80642 14.6673 8.00033 13.4734 8.00033 12.0007C8.00033 10.5279 6.80642 9.33398 5.33366 9.33398C3.8609 9.33398 2.66699 10.5279 2.66699 12.0007C2.66699 13.4734 3.8609 14.6673 5.33366 14.6673Z" stroke="white" stroke-opacity="0.87" stroke-width="2.66667"/>
<path d="M26.6667 14.6673C28.1394 14.6673 29.3333 13.4734 29.3333 12.0007C29.3333 10.5279 28.1394 9.33398 26.6667 9.33398C25.1939 9.33398 24 10.5279 24 12.0007C24 13.4734 25.1939 14.6673 26.6667 14.6673Z" stroke="white" stroke-opacity="0.87" stroke-width="2.66667"/>
<path d="M5.33345 18.667H4.92545C4.2942 18.6669 3.68339 18.8908 3.20168 19.2987C2.71998 19.7067 2.39862 20.2723 2.29478 20.895L1.85078 23.5617C1.78706 23.9437 1.80734 24.3351 1.91021 24.7085C2.01307 25.0819 2.19605 25.4285 2.44642 25.724C2.69679 26.0196 3.00853 26.257 3.35997 26.4199C3.71141 26.5827 4.09411 26.667 4.48145 26.667H9.33345" stroke="white" stroke-opacity="0.87" stroke-width="2.66667" stroke-linecap="round" stroke-linejoin="round"/>
<path d="M26.667 18.667H27.075C27.7062 18.6669 28.3171 18.8908 28.7988 19.2987C29.2805 19.7067 29.6018 20.2723 29.7057 20.895L30.1497 23.5617C30.2134 23.9437 30.1931 24.3351 30.0902 24.7085C29.9874 25.0819 29.8044 25.4285 29.554 25.724C29.3037 26.0196 28.9919 26.257 28.6405 26.4199C28.289 26.5827 27.9063 26.667 27.519 26.667H22.667" stroke="white" stroke-opacity="0.87" stroke-width="2.66667" stroke-linecap="round" stroke-linejoin="round"/>
</svg>
