<svg width="32" height="32" viewBox="0 0 32 32" fill="none" xmlns="http://www.w3.org/2000/svg">
<path d="M30.5436 3.64465H18.8894V0.374023H16.8289L0 3.28859V28.7192L16.6291 31.6264H18.8894V27.9924H29.7951C30.4164 27.9633 31.1069 28.0251 31.6374 27.6399C32.059 26.9895 31.9568 26.1754 31.9932 25.4413V5.06921C32.0767 4.2334 31.3794 3.56471 30.5436 3.64465ZM10.6584 17.2067C9.83356 17.6282 8.88869 17.5701 7.99113 17.541L7.9875 21.8036L5.82525 21.622L5.82888 9.97509C7.80219 10.0695 10.1933 9.19377 11.8286 10.6728C13.3949 12.5734 12.9806 16.0693 10.6584 17.2067ZM30.2567 26.2773H18.8894V23.995H27.611V22.5415H18.8894V20.7245H27.611V19.2708H18.8931C18.8931 19.2708 18.8894 17.8463 18.8858 17.1341C20.3249 17.581 21.9638 17.5702 23.2502 16.7053C24.6421 15.8803 25.3688 14.3068 25.4888 12.737H20.7064V7.99096L18.8894 8.35802V5.35971H30.2567V26.2773V26.2773ZM21.4329 7.2314C23.9586 7.34765 26.0847 9.48271 26.2192 12.0011H21.4329V7.2314ZM7.9875 11.941C8.70337 11.9083 9.59006 11.7775 10.0734 12.4498C10.4877 13.1621 10.4659 14.0996 10.1206 14.8337C9.70637 15.5823 8.76875 15.5096 8.04562 15.5968C7.96937 14.3795 7.97656 13.1621 7.9875 11.941Z" fill="white" fill-opacity="0.87"/>
</svg>
