<svg width="32" height="32" viewBox="0 0 32 32" fill="none" xmlns="http://www.w3.org/2000/svg">
<path d="M19.6057 4.58786C19.8603 4.8892 20.0003 5.27053 20.0003 5.6652V26.3332C20.0004 26.6512 19.9095 26.9625 19.7384 27.2305C19.5673 27.4985 19.3231 27.7119 19.0346 27.8456C18.7461 27.9794 18.4254 28.0278 18.1103 27.9852C17.7953 27.9426 17.4989 27.8107 17.2563 27.6052L10.6337 21.9972H5.66699C5.27303 21.9972 4.88292 21.9196 4.51894 21.7688C4.15497 21.6181 3.82425 21.3971 3.54567 21.1185C3.2671 20.8399 3.04612 20.5092 2.89535 20.1452C2.74459 19.7813 2.66699 19.3912 2.66699 18.9972V12.9972C2.66699 12.2015 2.98306 11.4385 3.54567 10.8759C4.10828 10.3133 4.87134 9.9972 5.66699 9.9972H10.6337L17.2577 4.39186C17.5951 4.10665 18.0319 3.96707 18.4722 4.00383C18.9125 4.04058 19.3202 4.25065 19.6057 4.58786V4.58786ZM18.0003 6.38386L11.367 11.9972H5.66699C5.40178 11.9972 5.14742 12.1026 4.95989 12.2901C4.77235 12.4776 4.66699 12.732 4.66699 12.9972V18.9972C4.66699 19.5505 5.11499 19.9972 5.66699 19.9972H11.367L18.0003 25.6145V6.38386Z" fill="white" fill-opacity="0.87"/>
</svg>
