<svg width="32" height="32" viewBox="0 0 32 32" fill="none" xmlns="http://www.w3.org/2000/svg">
<path d="M19.6047 4.58799C19.8594 4.88932 19.9993 5.27065 19.9993 5.66532V26.3333C19.9994 26.6513 19.9085 26.9626 19.7374 27.2306C19.5663 27.4986 19.3221 27.712 19.0336 27.8458C18.7452 27.9795 18.4245 28.0279 18.1094 27.9853C17.7943 27.9427 17.498 27.8108 17.2554 27.6053L10.6327 21.9973H5.66602C5.27205 21.9973 4.88194 21.9197 4.51797 21.769C4.15399 21.6182 3.82327 21.3972 3.5447 21.1186C3.26612 20.8401 3.04514 20.5093 2.89438 20.1454C2.74361 19.7814 2.66602 19.3913 2.66602 18.9973V12.9973C2.66602 12.2017 2.98209 11.4386 3.5447 10.876C4.1073 10.3134 4.87037 9.99732 5.66602 9.99732H10.6327L17.2567 4.39199C17.5941 4.10677 18.031 3.9672 18.4713 4.00395C18.9115 4.0407 19.3192 4.25077 19.6047 4.58799ZM17.9993 6.38399L11.366 11.9973H5.66602C5.4008 11.9973 5.14645 12.1027 4.95891 12.2902C4.77137 12.4777 4.66602 12.7321 4.66602 12.9973V18.9973C4.66602 19.5507 5.11402 19.9973 5.66602 19.9973H11.366L17.9993 25.6147V6.38399Z" fill="white" fill-opacity="0.87"/>
</svg>
