<svg width="20" height="20" viewBox="0 0 20 20" fill="none" xmlns="http://www.w3.org/2000/svg">
<path d="M9.9996 7.39658C8.56601 7.39658 7.39609 8.5665 7.39609 10.0001C7.39609 11.4337 8.56601 12.6036 9.9996 12.6036C11.4332 12.6036 12.6031 11.4337 12.6031 10.0001C12.6031 8.5665 11.4332 7.39658 9.9996 7.39658ZM17.8082 10.0001C17.8082 8.92197 17.818 7.85361 17.7574 6.77744C17.6969 5.52744 17.4117 4.41806 16.4977 3.504C15.5816 2.58798 14.4742 2.30478 13.2242 2.24423C12.1461 2.18369 11.0777 2.19345 10.0016 2.19345C8.92343 2.19345 7.85507 2.18369 6.7789 2.24423C5.5289 2.30478 4.41953 2.58994 3.50546 3.504C2.58945 4.42001 2.30624 5.52744 2.2457 6.77744C2.18515 7.85556 2.19492 8.92392 2.19492 10.0001C2.19492 11.0763 2.18515 12.1466 2.2457 13.2227C2.30624 14.4727 2.5914 15.5821 3.50546 16.4962C4.42148 17.4122 5.5289 17.6954 6.7789 17.7559C7.85703 17.8165 8.92538 17.8067 10.0016 17.8067C11.0797 17.8067 12.148 17.8165 13.2242 17.7559C14.4742 17.6954 15.5836 17.4102 16.4977 16.4962C17.4137 15.5802 17.6969 14.4727 17.7574 13.2227C17.8199 12.1466 17.8082 11.0782 17.8082 10.0001ZM9.9996 14.0059C7.78281 14.0059 5.99374 12.2169 5.99374 10.0001C5.99374 7.7833 7.78281 5.99423 9.9996 5.99423C12.2164 5.99423 14.0055 7.7833 14.0055 10.0001C14.0055 12.2169 12.2164 14.0059 9.9996 14.0059ZM14.1695 6.76572C13.6519 6.76572 13.234 6.34775 13.234 5.83017C13.234 5.31259 13.6519 4.89462 14.1695 4.89462C14.6871 4.89462 15.1051 5.31259 15.1051 5.83017C15.1052 5.95307 15.0811 6.0748 15.0342 6.18837C14.9872 6.30195 14.9183 6.40514 14.8314 6.49205C14.7445 6.57895 14.6413 6.64786 14.5277 6.69482C14.4142 6.74178 14.2924 6.76587 14.1695 6.76572Z" fill="white" fill-opacity="0.87"/>
</svg>
