<svg width="96" height="96" viewBox="0 0 96 96" fill="none" xmlns="http://www.w3.org/2000/svg">
<path d="M80 44C80 61.6731 65.6731 76 48 76C30.3269 76 16 61.6731 16 44C16 26.3269 30.3269 12 48 12C65.6731 12 80 26.3269 80 44Z" fill="#DCA16A"/>
<path fill-rule="evenodd" clip-rule="evenodd" d="M82.3706 43.9998C82.3706 62.982 66.9825 78.3701 48.0003 78.3701C29.018 78.3701 13.6299 62.982 13.6299 43.9998C13.6299 25.0175 29.018 9.62939 48.0003 9.62939C66.9825 9.62939 82.3706 25.0175 82.3706 43.9998ZM48.0003 75.9998C65.6734 75.9998 80.0003 61.6729 80.0003 43.9998C80.0003 26.3267 65.6734 11.9998 48.0003 11.9998C30.3271 11.9998 16.0003 26.3267 16.0003 43.9998C16.0003 61.6729 30.3271 75.9998 48.0003 75.9998Z" fill="#C38144"/>
<path fill-rule="evenodd" clip-rule="evenodd" d="M18.3707 45.1851C17.7162 45.1851 17.1855 44.6544 17.1855 43.9999C17.1855 26.9813 30.9818 13.1851 48.0004 13.1851C48.6549 13.1851 49.1855 13.7157 49.1855 14.3702C49.1855 15.0248 48.6549 15.5554 48.0004 15.5554C32.2909 15.5554 19.5559 28.2904 19.5559 43.9999C19.5559 44.6544 19.0253 45.1851 18.3707 45.1851Z" fill="#F0B57F"/>
<path fill-rule="evenodd" clip-rule="evenodd" d="M77.6293 42.8149C78.2838 42.8149 78.8145 43.3456 78.8145 44.0001C78.8145 61.0187 65.0182 74.8149 47.9996 74.8149C47.3451 74.8149 46.8145 74.2843 46.8145 73.6298C46.8145 72.9752 47.3451 72.4446 47.9996 72.4446C63.7091 72.4446 76.4441 59.7096 76.4441 44.0001C76.4441 43.3456 76.9747 42.8149 77.6293 42.8149Z" fill="#CF945D"/>
<path d="M71.7033 44.0001C71.7033 57.0913 61.0908 67.7038 47.9996 67.7038C34.9084 67.7038 24.2959 57.0913 24.2959 44.0001C24.2959 30.9089 34.9084 20.2964 47.9996 20.2964C61.0908 20.2964 71.7033 30.9089 71.7033 44.0001Z" fill="#F7BA82"/>
<path fill-rule="evenodd" clip-rule="evenodd" d="M74.0739 43.9999C74.0739 58.4002 62.4002 70.0739 47.9999 70.0739C33.5995 70.0739 21.9258 58.4002 21.9258 43.9999C21.9258 29.5995 33.5995 17.9258 47.9999 17.9258C62.4002 17.9258 74.0739 29.5995 74.0739 43.9999ZM47.9999 67.7036C61.091 67.7036 71.7036 57.091 71.7036 43.9999C71.7036 30.9087 61.091 20.2962 47.9999 20.2962C34.9087 20.2962 24.2962 30.9087 24.2962 43.9999C24.2962 57.091 34.9087 67.7036 47.9999 67.7036Z" fill="#C38144"/>
<path fill-rule="evenodd" clip-rule="evenodd" d="M48 64.1482C59.1276 64.1482 68.1482 55.1276 68.1482 44C68.1482 43.3455 68.6788 42.8149 69.3334 42.8149C69.9879 42.8149 70.5186 43.3455 70.5186 44C70.5186 56.4367 60.4367 66.5186 48 66.5186C47.3455 66.5186 46.8149 65.9879 46.8149 65.3334C46.8149 64.6788 47.3455 64.1482 48 64.1482Z" fill="#E6A66C"/>
<path fill-rule="evenodd" clip-rule="evenodd" d="M48 23.8518C36.8724 23.8518 27.8518 32.8724 27.8518 44C27.8518 44.6545 27.3212 45.1851 26.6666 45.1851C26.0121 45.1851 25.4814 44.6545 25.4814 44C25.4814 31.5633 35.5633 21.4814 48 21.4814C48.6545 21.4814 49.1851 22.0121 49.1851 22.6666C49.1851 23.3212 48.6545 23.8518 48 23.8518Z" fill="#FFD5AE"/>
<path d="M11.7759 75.5528L8.72317 69.4472C8.39072 68.7823 8.87421 68 9.61759 68L22.9996 68C23.5518 68 23.9996 68.4477 23.9996 69L23.9996 83C23.9996 83.5523 23.5518 84 22.9996 84L9.61759 84C8.87421 84 8.39072 83.2177 8.72317 82.5528L11.7759 76.4472C11.9167 76.1657 11.9167 75.8343 11.7759 75.5528Z" fill="#C52229"/>
<path d="M84.2232 75.5528L87.2759 69.4472C87.6084 68.7823 87.1249 68 86.3815 68L72.9996 68C72.4473 68 71.9996 68.4477 71.9996 69L71.9996 83C71.9996 83.5523 72.4473 84 72.9996 84L86.3815 84C87.1249 84 87.6084 83.2177 87.2759 82.5528L84.2232 76.4472C84.0824 76.1657 84.0824 75.8343 84.2232 75.5528Z" fill="#C52229"/>
<path fill-rule="evenodd" clip-rule="evenodd" d="M9.76384 76L6.93466 70.3416C5.93732 68.347 7.38778 66 9.61794 66L22.9999 66C24.6568 66 25.9999 67.3431 25.9999 69L25.9999 83C25.9999 84.6569 24.6568 86 22.9999 86L9.61794 86C7.38778 86 5.93732 83.653 6.93466 81.6584L9.76384 76ZM9.98687 76.4461C9.98707 76.4465 9.98726 76.4468 9.98746 76.4472L10.8819 76L9.98744 76.4472L9.98687 76.4461ZM86.236 76L89.0652 70.3416C90.0625 68.3469 88.612 66 86.3819 66L72.9999 66C71.3431 66 69.9999 67.3431 69.9999 69L69.9999 83C69.9999 84.6569 71.3431 86 72.9999 86L86.3819 86C88.612 86 90.0625 83.6531 89.0652 81.6584L86.236 76ZM87.2763 69.4472L84.2235 75.5528C84.0827 75.8343 84.0827 76.1657 84.2235 76.4472L87.2763 82.5528C87.6087 83.2177 87.1253 84 86.3819 84L72.9999 84C72.4476 84 71.9999 83.5523 71.9999 83L71.9999 69C71.9999 68.4477 72.4476 68 72.9999 68L86.3819 68C87.1253 68 87.6087 68.7823 87.2763 69.4472ZM8.72352 69.4472L11.7763 75.5528C11.9171 75.8343 11.9171 76.1657 11.7763 76.4472L8.72352 82.5528C8.39107 83.2177 8.87456 84 9.61794 84L22.9999 84C23.5522 84 23.9999 83.5523 23.9999 83L23.9999 69C23.9999 68.4477 23.5522 68 22.9999 68L9.61794 68C8.87456 68 8.39107 68.7823 8.72352 69.4472Z" fill="#9B0F15"/>
<path fill-rule="evenodd" clip-rule="evenodd" d="M10.154 68.9043C10.3371 68.6138 10.6565 68.4375 11 68.4375H15.25C15.8023 68.4375 16.25 68.8852 16.25 69.4375C16.25 69.9898 15.8023 70.4375 15.25 70.4375H12.5867L14.6521 74.756C14.8904 75.2543 14.6797 75.8513 14.1815 76.0896C13.6832 76.3279 13.0862 76.1172 12.8479 75.619L10.0979 69.869C9.94968 69.5591 9.97087 69.1949 10.154 68.9043Z" fill="#DF3840"/>
<path d="M76 79L76 65C76 64.4477 75.5523 64 75 64L21 64C20.4477 64 20 64.4477 20 65L20 79C20 79.5523 20.4477 80 21 80L75 80C75.5523 80 76 79.5523 76 79Z" fill="#F1333B"/>
<path fill-rule="evenodd" clip-rule="evenodd" d="M78 65L78 79C78 80.6569 76.6568 82 75 82L21 82C19.3431 82 18 80.6569 18 79L18 65C18 63.3431 19.3431 62 21 62L75 62C76.6569 62 78 63.3431 78 65ZM76 65L76 79C76 79.5523 75.5523 80 75 80L21 80C20.4477 80 20 79.5523 20 79L20 65C20 64.4477 20.4477 64 21 64L75 64C75.5523 64 76 64.4477 76 65Z" fill="#9B0F15"/>
<path d="M73.2374 72.3795C72.6711 72.3795 72.2121 71.9317 72.2121 71.3792C72.2121 70.8268 72.6711 70.3789 73.2374 70.3789C73.8036 70.3789 74.2627 70.8268 74.2627 71.3792C74.2627 71.9317 73.8036 72.3795 73.2374 72.3795Z" fill="#DB1B24"/>
<path d="M69.3359 71.9798C68.6316 71.9798 68.0606 71.4227 68.0606 70.7355C68.0606 70.0483 68.6316 69.4912 69.3359 69.4912C70.0403 69.4912 70.6113 70.0483 70.6113 70.7355C70.6113 71.4227 70.0403 71.9798 69.3359 71.9798Z" fill="#DB1B24"/>
<path d="M71.0742 74.8244C70.722 74.8244 70.4365 74.5458 70.4365 74.2022C70.4365 73.8586 70.722 73.5801 71.0742 73.5801C71.4264 73.5801 71.7119 73.8586 71.7119 74.2022C71.7119 74.5458 71.4264 74.8244 71.0742 74.8244Z" fill="#DB1B24"/>
<path d="M69.9736 68.2443C69.6214 68.2443 69.3359 67.9657 69.3359 67.6221C69.3359 67.2785 69.6214 67 69.9736 67C70.3258 67 70.6113 67.2785 70.6113 67.6221C70.6113 67.9657 70.3258 68.2443 69.9736 68.2443Z" fill="#DB1B24"/>
<path d="M66.623 74.2023C66.2709 74.2023 65.9854 73.9237 65.9854 73.5801C65.9854 73.2365 66.2709 72.958 66.6231 72.958C66.9752 72.958 67.2607 73.2365 67.2607 73.5801C67.2607 73.9237 66.9752 74.2023 66.623 74.2023Z" fill="#DB1B24"/>
<path d="M65.9854 71.0011C65.6332 71.0011 65.3477 70.7226 65.3477 70.379C65.3477 70.0354 65.6332 69.7568 65.9854 69.7568C66.3375 69.7568 66.623 70.0354 66.623 70.379C66.623 70.7226 66.3375 71.0011 65.9854 71.0011Z" fill="#DB1B24"/>
<path d="M61.6377 78.2179C61.2855 78.2179 61 77.9394 61 77.5958C61 77.2522 61.2855 76.9736 61.6377 76.9736C61.9899 76.9736 62.2754 77.2522 62.2754 77.5958C62.2754 77.9394 61.9899 78.2179 61.6377 78.2179Z" fill="#DB1B24"/>
<path d="M74.3252 75.8429C73.973 75.8429 73.6875 75.5644 73.6875 75.2208C73.6875 74.8772 73.973 74.5986 74.3252 74.5986C74.6774 74.5986 74.9629 74.8772 74.9629 75.2208C74.9629 75.5644 74.6774 75.8429 74.3252 75.8429Z" fill="#DB1B24"/>
<path d="M68.2981 77.2057C67.725 77.2057 67.2603 76.7524 67.2603 76.1932C67.2603 75.634 67.725 75.1807 68.2981 75.1807C68.8713 75.1807 69.3359 75.634 69.3359 76.1932C69.3359 76.7524 68.8713 77.2057 68.2981 77.2057Z" fill="#DB1B24"/>
<path d="M72.7493 78.2179C72.1761 78.2179 71.7115 77.7646 71.7115 77.2054C71.7115 76.6462 72.1761 76.1929 72.7493 76.1929C73.3225 76.1929 73.7871 76.6462 73.7871 77.2054C73.7871 77.7646 73.3225 78.2179 72.7493 78.2179Z" fill="#DB1B24"/>
<path d="M63.6721 76.2271C63.099 76.2271 62.6343 75.7738 62.6343 75.2146C62.6343 74.6555 63.099 74.2021 63.6721 74.2021C64.2453 74.2021 64.71 74.6555 64.71 75.2146C64.71 75.7738 64.2453 76.2271 63.6721 76.2271Z" fill="#DB1B24"/>
<path d="M65.3477 78.5255C64.9955 78.5255 64.71 78.247 64.71 77.9034C64.71 77.5598 64.9955 77.2812 65.3477 77.2812C65.6998 77.2812 65.9854 77.5598 65.9854 77.9034C65.9854 78.247 65.6998 78.5255 65.3477 78.5255Z" fill="#DB1B24"/>
<path fill-rule="evenodd" clip-rule="evenodd" d="M20.625 65.4375C20.625 64.8852 21.0727 64.4375 21.625 64.4375H59.125C59.6773 64.4375 60.125 64.8852 60.125 65.4375C60.125 65.9898 59.6773 66.4375 59.125 66.4375H22.625V73.4375C22.625 73.9898 22.1773 74.4375 21.625 74.4375C21.0727 74.4375 20.625 73.9898 20.625 73.4375V65.4375Z" fill="#FE666D"/>
<path d="M45.4282 41.818H47.3665C48.2896 41.818 48.9735 41.5872 49.4182 41.1257C49.8629 40.6642 50.0853 40.0516 50.0853 39.288C50.0853 38.5496 49.8629 37.9748 49.4182 37.5636C48.9818 37.1525 48.3777 36.9469 47.6057 36.9469C46.9092 36.9469 46.326 37.1399 45.8561 37.5259C45.3862 37.9035 45.1513 38.3986 45.1513 39.0111H41.5137C41.5137 38.0545 41.7696 37.1986 42.2815 36.4434C42.8017 35.6798 43.5234 35.084 44.4464 34.6561C45.3778 34.2281 46.4015 34.0142 47.5176 34.0142C49.4559 34.0142 50.9748 34.4799 52.074 35.4113C53.1732 36.3343 53.7229 37.6098 53.7229 39.2377C53.7229 40.0768 53.4669 40.8488 52.9551 41.5537C52.4432 42.2585 51.7719 42.7997 50.9412 43.1774C51.9733 43.5466 52.7411 44.1004 53.2446 44.8388C53.7564 45.5772 54.0124 46.4499 54.0124 47.4569C54.0124 49.0848 53.4166 50.3896 52.225 51.3714C51.0419 52.3531 49.4727 52.844 47.5176 52.844C45.6883 52.844 44.1905 52.3615 43.0241 51.3965C41.8661 50.4315 41.2871 49.1561 41.2871 47.5701H44.9247C44.9247 48.2582 45.1806 48.8204 45.6925 49.2568C46.2127 49.6931 46.8505 49.9113 47.6057 49.9113C48.47 49.9113 49.1455 49.6847 49.6322 49.2316C50.1272 48.7701 50.3748 48.1617 50.3748 47.4065C50.3748 45.5772 49.3678 44.6626 47.3539 44.6626H45.4282V41.818Z" fill="#FFD5AE"/>
<path fill-rule="evenodd" clip-rule="evenodd" d="M43.3826 41.1595H41.5134C40.327 41.1595 39.3652 40.1977 39.3652 39.0113C39.3652 37.6471 39.738 36.3671 40.503 35.2384L40.5059 35.2341C41.2663 34.118 42.3042 33.2816 43.5425 32.7074L43.5493 32.7043C44.7862 32.136 46.1195 31.8662 47.5173 31.8662C49.7859 31.8662 51.8557 32.413 53.4588 33.7695C55.1102 35.1581 55.8707 37.0723 55.8707 39.2379C55.8707 40.5486 55.4604 41.7593 54.693 42.8161C54.6433 42.8845 54.5926 42.9518 54.5408 43.018C54.7099 43.2068 54.8681 43.408 55.0144 43.6219C55.8017 44.7609 56.1602 46.0704 56.1602 47.4571C56.1602 49.6853 55.3087 51.6125 53.5938 53.0269C51.9305 54.4059 49.833 54.9924 47.5173 54.9924C45.2963 54.9924 43.2819 54.3983 41.6545 53.0519L41.6486 53.047C39.9723 51.6501 39.1387 49.7557 39.1387 47.5703C39.1387 46.384 40.1004 45.4222 41.2868 45.4222H43.4178C43.3286 45.1861 43.2797 44.9302 43.2797 44.6628V41.8182C43.2797 41.5884 43.3158 41.367 43.3826 41.1595ZM46.9345 46.8109C47.0237 47.047 47.0726 47.303 47.0726 47.5703C47.0726 47.5883 47.0733 47.602 47.0742 47.612C47.076 47.6136 47.0779 47.6153 47.08 47.6172C47.1695 47.6903 47.303 47.7633 47.6054 47.7633C47.8531 47.7633 48.0007 47.7306 48.0771 47.7049C48.1408 47.6836 48.1617 47.6655 48.1671 47.6605M46.9345 46.8109H47.3537C47.8875 46.8109 48.1051 46.9027 48.1645 46.9346C48.1659 46.9379 48.1674 46.9418 48.169 46.9463C48.1891 47.0011 48.2263 47.1409 48.2263 47.4067C48.2263 47.5479 48.2038 47.6083 48.1991 47.6198C48.1962 47.6269 48.1941 47.6304 48.1921 47.6332C48.19 47.6362 48.1828 47.6458 48.1671 47.6605M52.2248 51.3716C53.4163 50.3898 54.0121 49.085 54.0121 47.4571C54.0121 46.4501 53.7561 45.5774 53.2443 44.839C53.1614 44.7174 53.0713 44.6009 52.9741 44.4893C52.4808 43.9232 51.8031 43.486 50.9409 43.1776C51.7179 42.8244 52.3554 42.328 52.8535 41.6886C52.8879 41.6444 52.9217 41.5994 52.9548 41.5539C53.4667 40.849 53.7226 40.077 53.7226 39.2379C53.7226 37.61 53.173 36.3345 52.0737 35.4115C50.9745 34.4801 49.4557 34.0144 47.5173 34.0144C46.4013 34.0144 45.3775 34.2283 44.4461 34.6563C43.5231 35.0842 42.8014 35.68 42.2812 36.4436C42.1886 36.5802 42.1044 36.72 42.0286 36.8632C41.6851 37.5117 41.5134 38.2277 41.5134 39.0113H45.151C45.151 38.3988 45.3859 37.9037 45.8558 37.5261C46.3257 37.1401 46.9089 36.9471 47.6054 36.9471C48.3774 36.9471 48.9816 37.1527 49.4179 37.5638C49.8626 37.975 50.085 38.5498 50.085 39.2882C50.085 40.0518 49.8626 40.6644 49.4179 41.1259C48.9732 41.5874 48.2893 41.8182 47.3662 41.8182H45.4279V44.6628H47.3537C49.3675 44.6628 50.3745 45.5774 50.3745 47.4067C50.3745 48.1619 50.127 48.7703 49.6319 49.2318C49.1452 49.6849 48.4697 49.9115 47.6054 49.9115C46.8502 49.9115 46.2125 49.6933 45.6922 49.257C45.1803 48.8206 44.9244 48.2584 44.9244 47.5703H41.2868C41.2868 48.3642 41.4319 49.0802 41.722 49.7185C42.0115 50.3554 42.4454 50.9148 43.0238 51.3967C44.1902 52.3617 45.688 52.8442 47.5173 52.8442C49.4724 52.8442 51.0416 52.3533 52.2248 51.3716ZM47.1962 39.67C47.2504 39.5017 47.2844 39.3242 47.2953 39.1406C47.3521 39.1172 47.4461 39.0952 47.6054 39.0952C47.7767 39.0952 47.8773 39.1151 47.9262 39.1289C47.9316 39.1626 47.9368 39.2144 47.9368 39.2882C47.9368 39.4621 47.9116 39.5526 47.899 39.5873C47.896 39.5956 47.8933 39.6022 47.8906 39.6077C47.8887 39.6083 47.8867 39.609 47.8846 39.6097C47.8158 39.6329 47.6561 39.67 47.3662 39.67H47.1962Z" fill="#C28044"/>
</svg>
