<svg width="32" height="32" viewBox="0 0 32 32" fill="none" xmlns="http://www.w3.org/2000/svg">
<path d="M5.33398 5.33329V26.6666C5.33398 27.3739 5.61494 28.0521 6.11503 28.5522C6.61513 29.0523 7.29341 29.3333 8.00065 29.3333H24.0006C24.7079 29.3333 25.3862 29.0523 25.8863 28.5522C26.3864 28.0521 26.6673 27.3739 26.6673 26.6666V11.1226C26.6673 10.7674 26.5962 10.4157 26.4584 10.0883C26.3206 9.76086 26.1187 9.46428 25.8647 9.21596L19.9447 3.42663C19.4465 2.9395 18.7774 2.66671 18.0807 2.66663H8.00065C7.29341 2.66663 6.61513 2.94758 6.11503 3.44767C5.61494 3.94777 5.33398 4.62605 5.33398 5.33329V5.33329Z" stroke="white" stroke-opacity="0.87" stroke-width="2" stroke-linecap="round" stroke-linejoin="round"/>
<path d="M12 17.3333H20" stroke="white" stroke-opacity="0.87" stroke-width="2" stroke-linecap="round" stroke-linejoin="round"/>
<path d="M12 22.6666H16" stroke="white" stroke-opacity="0.87" stroke-width="2" stroke-linecap="round" stroke-linejoin="round"/>
<path d="M18.668 2.66663V7.99996C18.668 8.7072 18.9489 9.38548 19.449 9.88558C19.9491 10.3857 20.6274 10.6666 21.3346 10.6666H26.668" stroke="white" stroke-opacity="0.87" stroke-width="2" stroke-linejoin="round"/>
</svg>
