<svg width="32" height="32" viewBox="0 0 32 32" fill="none" xmlns="http://www.w3.org/2000/svg">
<path d="M16.0006 20C18.214 20 19.9873 18.2133 19.9873 16L20.0006 8C20.0006 5.78667 18.214 4 16.0006 4C13.7873 4 12.0006 5.78667 12.0006 8V16C12.0006 18.2133 13.7873 20 16.0006 20ZM24.1073 16C23.5473 16 23.0806 16.4 23.0006 16.9467C22.5073 20.4267 19.374 22.8 16.0006 22.8C12.6273 22.8 9.49396 20.44 9.00063 16.9467C8.95956 16.6827 8.82541 16.4422 8.62244 16.2686C8.41946 16.095 8.16106 15.9997 7.89396 16C7.20063 16 6.66729 16.6133 6.76063 17.2933C7.37396 21.2533 10.7073 24.36 14.6673 24.96V28C14.6673 28.7333 15.2673 29.3333 16.0006 29.3333C16.734 29.3333 17.334 28.7333 17.334 28V24.96C21.2806 24.3867 24.6273 21.2533 25.2406 17.2933C25.2621 17.1319 25.2488 16.9678 25.2017 16.8119C25.1546 16.656 25.0746 16.5121 24.9673 16.3896C24.86 16.2671 24.7278 16.169 24.5794 16.1018C24.4311 16.0346 24.2701 15.9999 24.1073 16Z" fill="white" fill-opacity="0.87"/>
</svg>
