<svg width="32" height="32" viewBox="0 0 32 32" fill="none" xmlns="http://www.w3.org/2000/svg">
<path d="M26.6673 5.33337H8.00065C6.52998 5.33337 5.33398 6.52937 5.33398 8.00004V14.6667H8.00065V10.6667L16.534 17.0667C16.7649 17.2396 17.0455 17.333 17.334 17.333C17.6224 17.333 17.9031 17.2396 18.134 17.0667L26.6673 10.6667V22.6667H16.0007V25.3334H26.6673C28.138 25.3334 29.334 24.1374 29.334 22.6667V8.00004C29.334 6.52937 28.138 5.33337 26.6673 5.33337ZM17.334 14.3334L8.88865 8.00004H25.7793L17.334 14.3334Z" fill="white" fill-opacity="0.87"/>
<path d="M2.66602 16H11.9993V18.6667H2.66602V16ZM5.33268 20H13.3327V22.6667H5.33268V20ZM9.33268 24H14.666V26.6667H9.33268V24Z" fill="white" fill-opacity="0.87"/>
</svg>
