<svg width="96" height="96" viewBox="0 0 96 96" fill="none" xmlns="http://www.w3.org/2000/svg">
<path d="M72.627 8.62744C73.7315 8.62744 74.627 9.52287 74.627 10.6274L74.627 22.6274C74.627 23.732 73.7315 24.6274 72.627 24.6274L22.627 24.6274C21.5224 24.6274 20.627 23.732 20.627 22.6274L20.627 10.6274C20.627 9.52287 21.5224 8.62744 22.627 8.62744L72.627 8.62744Z" fill="#C52229"/>
<path fill-rule="evenodd" clip-rule="evenodd" d="M76.627 10.6274L76.627 22.6274C76.627 24.8366 74.8361 26.6274 72.627 26.6274L22.627 26.6274C20.4178 26.6274 18.627 24.8366 18.627 22.6274L18.627 10.6274C18.627 8.4183 20.4178 6.62744 22.627 6.62744L72.627 6.62744C74.8361 6.62744 76.627 8.4183 76.627 10.6274ZM74.627 10.6274C74.627 9.52287 73.7315 8.62744 72.627 8.62744L22.627 8.62744C21.5224 8.62744 20.627 9.52287 20.627 10.6274L20.627 22.6274C20.627 23.732 21.5224 24.6274 22.627 24.6274L72.627 24.6274C73.7315 24.6274 74.627 23.732 74.627 22.6274L74.627 10.6274Z" fill="#9B0F15"/>
<path fill-rule="evenodd" clip-rule="evenodd" d="M22.4443 9.62744C22.4443 9.07516 22.8921 8.62744 23.4443 8.62744H72.377C72.9293 8.62744 73.377 9.07516 73.377 9.62744C73.377 10.1797 72.9293 10.6274 72.377 10.6274H23.4443C22.8921 10.6274 22.4443 10.1797 22.4443 9.62744Z" fill="#DF3840"/>
<path fill-rule="evenodd" clip-rule="evenodd" d="M22.0645 15.4399C22.0645 14.8877 22.5122 14.4399 23.0645 14.4399H71.9971C72.5494 14.4399 72.9971 14.8877 72.9971 15.4399C72.9971 15.9922 72.5494 16.4399 71.9971 16.4399H23.0645C22.5122 16.4399 22.0645 15.9922 22.0645 15.4399Z" fill="#AF1B22"/>
<path fill-rule="evenodd" clip-rule="evenodd" d="M22.0645 11.7524C22.0645 11.2002 22.5122 10.7524 23.0645 10.7524H71.9971C72.5494 10.7524 72.9971 11.2002 72.9971 11.7524C72.9971 12.3047 72.5494 12.7524 71.9971 12.7524H23.0645C22.5122 12.7524 22.0645 12.3047 22.0645 11.7524Z" fill="#AF1B22"/>
<path fill-rule="evenodd" clip-rule="evenodd" d="M22.0645 19.0649C22.0645 18.5127 22.5122 18.0649 23.0645 18.0649H71.9971C72.5494 18.0649 72.9971 18.5127 72.9971 19.0649C72.9971 19.6172 72.5494 20.0649 71.9971 20.0649H23.0645C22.5122 20.0649 22.0645 19.6172 22.0645 19.0649Z" fill="#AF1B22"/>
<path fill-rule="evenodd" clip-rule="evenodd" d="M22.4443 22.3774C22.4443 21.8252 22.8921 21.3774 23.4443 21.3774H72.377C72.9293 21.3774 73.377 21.8252 73.377 22.3774C73.377 22.9297 72.9293 23.3774 72.377 23.3774H23.4443C22.8921 23.3774 22.4443 22.9297 22.4443 22.3774Z" fill="#AF1B22"/>
<path d="M23.7277 9.41421C22.9466 8.63316 21.6803 8.63317 20.8993 9.41421L12.414 17.8995C11.6329 18.6805 11.6329 19.9469 12.414 20.7279L46.5267 54.8406C47.3077 55.6217 48.5741 55.6217 49.3551 54.8406L57.8404 46.3553C58.6214 45.5743 58.6214 44.308 57.8404 43.5269L23.7277 9.41421Z" fill="#F1333B"/>
<path fill-rule="evenodd" clip-rule="evenodd" d="M19.485 7.99981L10.9998 16.4851C9.43767 18.0472 9.43767 20.5799 10.9998 22.1419L45.1125 56.2547C46.6746 57.8167 49.2072 57.8167 50.7693 56.2547L59.2546 47.7694C60.8167 46.2073 60.8167 43.6746 59.2546 42.1125L25.1419 7.99981C23.5798 6.43771 21.0471 6.43772 19.485 7.99981ZM20.8993 9.41403C21.6803 8.63298 22.9466 8.63298 23.7277 9.41403L57.8404 43.5267C58.6214 44.3078 58.6214 45.5741 57.8404 46.3552L49.3551 54.8404C48.5741 55.6215 47.3077 55.6215 46.5267 54.8404L12.414 20.7277C11.6329 19.9467 11.6329 18.6804 12.414 17.8993L20.8993 9.41403Z" fill="#9B0F15"/>
<path d="M71.5275 9.45328C72.3052 8.6539 73.5865 8.64511 74.3752 9.43375L82.8602 17.9188C83.6337 18.6922 83.6422 19.9436 82.8794 20.7277L49.7279 54.8015C48.9502 55.6009 47.6689 55.6097 46.8802 54.8211L38.3952 46.3361C37.6217 45.5626 37.6132 44.3112 38.3759 43.5272L71.5275 9.45328Z" fill="#F1333B"/>
<path fill-rule="evenodd" clip-rule="evenodd" d="M75.7894 8.01935L84.2744 16.5044C85.8214 18.0513 85.8385 20.5541 84.3129 22.1221L51.1614 56.196C49.6059 57.7948 47.0433 57.8124 45.466 56.2351L36.981 47.7501C35.434 46.2031 35.4169 43.7004 36.9425 42.1323L70.094 8.05842C71.6495 6.45966 74.2121 6.44208 75.7894 8.01935ZM74.3752 9.43356C73.5865 8.64493 72.3052 8.65372 71.5275 9.4531L38.376 43.527C37.6132 44.311 37.6217 45.5624 38.3952 46.3359L46.8802 54.8209C47.6689 55.6095 48.9502 55.6007 49.7279 54.8014L82.8794 20.7275C83.6422 19.9435 83.6337 18.6921 82.8602 17.9186L74.3752 9.43356Z" fill="#9B0F15"/>
<path fill-rule="evenodd" clip-rule="evenodd" d="M73.1433 10.2921C73.5356 10.6809 73.5385 11.314 73.1498 11.7063L52.7123 32.3313C52.3235 32.7236 51.6904 32.7265 51.2981 32.3378C50.9058 31.949 50.9029 31.3159 51.2916 30.9236L71.7291 10.2986C72.1179 9.90627 72.751 9.90338 73.1433 10.2921Z" fill="#FE666D"/>
<path fill-rule="evenodd" clip-rule="evenodd" d="M12.6698 18.6703C13.0604 18.2798 13.6935 18.2798 14.0841 18.6703L27.0841 31.6703C27.4746 32.0609 27.4746 32.694 27.0841 33.0845C26.6935 33.4751 26.0604 33.4751 25.6698 33.0845L12.6698 20.0845C12.2793 19.694 12.2793 19.0609 12.6698 18.6703Z" fill="#FE666D"/>
<path d="M77.2111 16.0264C76.8107 16.4268 76.1694 16.4347 75.7788 16.044C75.3882 15.6534 75.3961 15.0121 75.7965 14.6117C76.1969 14.2113 76.8382 14.2034 77.2288 14.594C77.6194 14.9847 77.6115 15.626 77.2111 16.0264Z" fill="#DB1B24"/>
<path d="M74.1694 18.5018C73.6713 18.9999 72.8736 19.0098 72.3877 18.5238C71.9018 18.0379 71.9116 17.2402 72.4097 16.7422C72.9078 16.2441 73.7054 16.2342 74.1914 16.7202C74.6773 17.2061 74.6674 18.0038 74.1694 18.5018Z" fill="#DB1B24"/>
<path d="M77.4104 19.2849C77.1613 19.5339 76.7625 19.5388 76.5195 19.2959C76.2766 19.0529 76.2815 18.6541 76.5305 18.405C76.7796 18.156 77.1784 18.1511 77.4214 18.394C77.6643 18.637 77.6594 19.0358 77.4104 19.2849Z" fill="#DB1B24"/>
<path d="M70.2063 27.7331C69.9572 27.9821 69.5584 27.9871 69.3154 27.7441C69.0725 27.5011 69.0774 27.1023 69.3264 26.8533C69.5755 26.6042 69.9743 26.5993 70.2173 26.8423C70.4602 27.0852 70.4553 27.4841 70.2063 27.7331Z" fill="#DB1B24"/>
<path d="M73.8225 21.9924C73.5734 22.2414 73.1746 22.2463 72.9316 22.0034C72.6887 21.7604 72.6936 21.3616 72.9426 21.1125C73.1917 20.8635 73.5905 20.8586 73.8335 21.1015C74.0764 21.3445 74.0715 21.7433 73.8225 21.9924Z" fill="#DB1B24"/>
<path d="M70.1955 31.1765C69.9465 31.4255 69.5476 31.4304 69.3047 31.1875C69.0617 30.9445 69.0667 30.5457 69.3157 30.2966C69.5647 30.0476 69.9636 30.0427 70.2065 30.2856C70.4495 30.5286 70.4446 30.9274 70.1955 31.1765Z" fill="#DB1B24"/>
<path d="M71.1086 21.2321C70.8596 21.4812 70.4607 21.4861 70.2178 21.2431C69.9748 21.0002 69.9797 20.6013 70.2288 20.3523C70.4778 20.1032 70.8766 20.0983 71.1196 20.3413C71.3626 20.5842 71.3576 20.9831 71.1086 21.2321Z" fill="#DB1B24"/>
<path d="M73.1369 28.3571C72.8879 28.6062 72.4891 28.6111 72.2461 28.3681C72.0031 28.1252 72.0081 27.7263 72.2571 27.4773C72.5061 27.2282 72.905 27.2233 73.1479 27.4663C73.3909 27.7092 73.386 28.1081 73.1369 28.3571Z" fill="#DB1B24"/>
<path d="M80.4289 17.7062C80.1799 17.9553 79.781 17.9602 79.5381 17.7172C79.2951 17.4743 79.3 17.0754 79.5491 16.8264C79.7981 16.5774 80.197 16.5724 80.4399 16.8154C80.6829 17.0584 80.678 17.4572 80.4289 17.7062Z" fill="#DB1B24"/>
<path d="M77.1316 22.9314C76.7264 23.3367 76.0773 23.3447 75.6819 22.9493C75.2864 22.5539 75.2945 21.9048 75.6997 21.4995C76.105 21.0942 76.7541 21.0862 77.1495 21.4816C77.5449 21.877 77.5369 22.5261 77.1316 22.9314Z" fill="#DB1B24"/>
<path d="M80.9949 20.4997C80.5896 20.905 79.9405 20.913 79.5451 20.5176C79.1497 20.1222 79.1577 19.4731 79.563 19.0678C79.9683 18.6625 80.6174 18.6545 81.0128 19.0499C81.4082 19.4453 81.4002 20.0944 80.9949 20.4997Z" fill="#DB1B24"/>
<path d="M73.1678 25.511C72.7625 25.9162 72.1134 25.9243 71.718 25.5288C71.3226 25.1334 71.3306 24.4844 71.7359 24.0791C72.1412 23.6738 72.7903 23.6658 73.1857 24.0612C73.5811 24.4566 73.5731 25.1057 73.1678 25.511Z" fill="#DB1B24"/>
<path d="M75.9777 25.9514C75.7287 26.2004 75.3299 26.2053 75.0869 25.9624C74.844 25.7194 74.8489 25.3206 75.0979 25.0715C75.3469 24.8225 75.7458 24.8176 75.9887 25.0605C76.2317 25.3035 76.2268 25.7023 75.9777 25.9514Z" fill="#DB1B24"/>
<path d="M75 61C75 75.9117 62.9117 88 48 88C33.0883 88 21 75.9117 21 61C21 46.0883 33.0883 34 48 34C62.9117 34 75 46.0883 75 61Z" fill="#BCCCD2"/>
<path fill-rule="evenodd" clip-rule="evenodd" d="M77 61C77 77.0163 64.0163 90 48 90C31.9837 90 19 77.0163 19 61C19 44.9837 31.9837 32 48 32C64.0163 32 77 44.9837 77 61ZM48 88C62.9117 88 75 75.9117 75 61C75 46.0883 62.9117 34 48 34C33.0883 34 21 46.0883 21 61C21 75.9117 33.0883 88 48 88Z" fill="#81A5B0"/>
<path fill-rule="evenodd" clip-rule="evenodd" d="M23 62C22.4477 62 22 61.5523 22 61C22 46.6406 33.6406 35 48 35C48.5523 35 49 35.4477 49 36C49 36.5523 48.5523 37 48 37C34.7452 37 24 47.7452 24 61C24 61.5523 23.5523 62 23 62Z" fill="#D0DEE3"/>
<path fill-rule="evenodd" clip-rule="evenodd" d="M73 60C73.5523 60 74 60.4477 74 61C74 75.3594 62.3594 87 48 87C47.4477 87 47 86.5523 47 86C47 85.4477 47.4477 85 48 85C61.2548 85 72 74.2548 72 61C72 60.4477 72.4477 60 73 60Z" fill="#A2B9C1"/>
<path d="M68 61C68 72.0457 59.0457 81 48 81C36.9543 81 28 72.0457 28 61C28 49.9543 36.9543 41 48 41C59.0457 41 68 49.9543 68 61Z" fill="#C7D4D8"/>
<path fill-rule="evenodd" clip-rule="evenodd" d="M70 61C70 73.1503 60.1503 83 48 83C35.8497 83 26 73.1503 26 61C26 48.8497 35.8497 39 48 39C60.1503 39 70 48.8497 70 61ZM48 81C59.0457 81 68 72.0457 68 61C68 49.9543 59.0457 41 48 41C36.9543 41 28 49.9543 28 61C28 72.0457 36.9543 81 48 81Z" fill="#81A5B0"/>
<path fill-rule="evenodd" clip-rule="evenodd" d="M48 78C57.3888 78 65 70.3888 65 61C65 60.4477 65.4477 60 66 60C66.5523 60 67 60.4477 67 61C67 71.4934 58.4934 80 48 80C47.4477 80 47 79.5523 47 79C47 78.4477 47.4477 78 48 78Z" fill="#B5C3C8"/>
<path fill-rule="evenodd" clip-rule="evenodd" d="M48 44C38.6112 44 31 51.6112 31 61C31 61.5523 30.5523 62 30 62C29.4477 62 29 61.5523 29 61C29 50.5066 37.5066 42 48 42C48.5523 42 49 42.4477 49 43C49 43.5523 48.5523 44 48 44Z" fill="#D9EAEF"/>
<path d="M53.8555 69H42.1602V66.6797L47.6797 60.7969C48.4375 59.9688 48.9961 59.2461 49.3555 58.6289C49.7227 58.0117 49.9062 57.4258 49.9062 56.8711C49.9062 56.1133 49.7148 55.5195 49.332 55.0898C48.9492 54.6523 48.4023 54.4336 47.6914 54.4336C46.9258 54.4336 46.3203 54.6992 45.875 55.2305C45.4375 55.7539 45.2188 56.4453 45.2188 57.3047H41.8203C41.8203 56.2656 42.0664 55.3164 42.5586 54.457C43.0586 53.5977 43.7617 52.9258 44.668 52.4414C45.5742 51.9492 46.6016 51.7031 47.75 51.7031C49.5078 51.7031 50.8711 52.125 51.8398 52.9688C52.8164 53.8125 53.3047 55.0039 53.3047 56.543C53.3047 57.3867 53.0859 58.2461 52.6484 59.1211C52.2109 59.9961 51.4609 61.0156 50.3984 62.1797L46.5195 66.2695H53.8555V69Z" fill="#D9EAEF"/>
<path fill-rule="evenodd" clip-rule="evenodd" d="M55.8555 69C55.8555 70.1046 54.96 71 53.8555 71H42.1602C41.0556 71 40.1602 70.1046 40.1602 69V66.6797C40.1602 66.1713 40.3538 65.682 40.7016 65.3112L46.2124 59.4377C46.9172 58.6667 47.3691 58.0656 47.6271 57.6225L47.6367 57.6063C47.8729 57.2092 47.9062 56.9745 47.9062 56.8711C47.9062 56.6574 47.8789 56.5324 47.8592 56.4711C47.8558 56.4606 47.8526 56.4519 47.8498 56.4448C47.8178 56.4393 47.7665 56.4336 47.6914 56.4336C47.5418 56.4336 47.4791 56.4588 47.4666 56.4643C47.4587 56.4678 47.4533 56.471 47.4475 56.4754C47.4415 56.48 47.4282 56.491 47.4086 56.5142C47.343 56.5931 47.2188 56.7916 47.2188 57.3047C47.2188 58.4093 46.3233 59.3047 45.2188 59.3047H41.8203C40.7157 59.3047 39.8203 58.4093 39.8203 57.3047C39.8203 55.9347 40.1489 54.6401 40.8231 53.4631L40.8299 53.4512C41.5218 52.2619 42.5001 51.3336 43.7193 50.6807C44.9492 50.0141 46.309 49.7031 47.75 49.7031C49.8109 49.7031 51.7028 50.1987 53.1504 51.458C54.6497 52.755 55.3047 54.547 55.3047 56.543C55.3047 57.7432 54.9915 58.9071 54.4373 60.0155C53.8828 61.1246 52.9965 62.2999 51.8756 63.528C51.867 63.5374 51.8583 63.5467 51.8496 63.556L51.1728 64.2695H53.8555C54.96 64.2695 55.8555 65.165 55.8555 66.2695V69ZM46.5195 66.2695L50.3984 62.1797C51.4609 61.0156 52.2109 59.9961 52.6484 59.1211C53.0859 58.2461 53.3047 57.3867 53.3047 56.543C53.3047 55.0039 52.8164 53.8125 51.8398 52.9688C50.8711 52.125 49.5078 51.7031 47.75 51.7031C46.6016 51.7031 45.5742 51.9492 44.668 52.4414C43.7617 52.9258 43.0586 53.5977 42.5586 54.457C42.402 54.7305 42.2703 55.013 42.1635 55.3047C41.9347 55.9296 41.8203 56.5963 41.8203 57.3047H45.2188C45.2188 56.4453 45.4375 55.7539 45.875 55.2305C46.3203 54.6992 46.9258 54.4336 47.6914 54.4336C48.4023 54.4336 48.9492 54.6523 49.332 55.0898C49.7148 55.5195 49.9062 56.1133 49.9062 56.8711C49.9062 57.4258 49.7227 58.0117 49.3555 58.6289C48.9961 59.2461 48.4375 59.9688 47.6797 60.7969L42.1602 66.6797V69H53.8555V66.2695H46.5195Z" fill="#81A5B0"/>
</svg>
