<svg width="32" height="32" viewBox="0 0 32 32" fill="none" xmlns="http://www.w3.org/2000/svg">
<path d="M9.53513 5.844L9.55513 5.832L9.64713 5.778C10.2188 5.45455 10.8122 5.1712 11.4231 4.93C12.6191 4.46 14.2391 4 15.9991 4C17.7591 4 19.3791 4.46 20.5771 4.93C21.1874 5.17119 21.7802 5.45454 22.3511 5.778C22.3931 5.802 22.4231 5.818 22.4411 5.832L22.4611 5.844H22.4631C22.6869 5.98013 22.9551 6.02307 23.2101 5.96357C23.4652 5.90407 23.6867 5.74689 23.8271 5.52581C23.9675 5.30474 24.0156 5.0374 23.961 4.78126C23.9064 4.52512 23.7535 4.30062 23.5351 4.156H23.5331L23.5291 4.152L23.5191 4.146L23.4831 4.124C23.2961 4.01218 23.106 3.90547 22.9131 3.804C22.3922 3.53037 21.8567 3.28534 21.3091 3.07C19.9691 2.54 18.0891 2 15.9991 2C13.9071 2 12.0291 2.54 10.6891 3.07C9.98299 3.34814 9.2973 3.67561 8.63713 4.05C8.59623 4.07428 8.55556 4.09895 8.51513 4.124L8.47913 4.144L8.46913 4.152L8.46513 4.154C8.24102 4.29589 8.08246 4.521 8.02432 4.7798C7.96618 5.0386 8.01324 5.30989 8.15513 5.534C8.29702 5.75811 8.52213 5.91667 8.78093 5.97481C9.03973 6.03294 9.31102 5.98589 9.53513 5.844Z" fill="white" fill-opacity="0.87"/>
<path d="M8 8C6.93913 8 5.92172 8.42143 5.17157 9.17157C4.42143 9.92172 4 10.9391 4 12V20C4 21.0609 4.42143 22.0783 5.17157 22.8284C5.92172 23.5786 6.93913 24 8 24H17C18.0609 24 19.0783 23.5786 19.8284 22.8284C20.5786 22.0783 21 21.0609 21 20V19.724L26.504 22.868C26.6561 22.9549 26.8283 23.0003 27.0034 22.9997C27.1785 22.9991 27.3504 22.9525 27.5019 22.8646C27.6533 22.7767 27.7791 22.6506 27.8665 22.4989C27.9539 22.3472 27.9999 22.1751 28 22V10C27.9999 9.82488 27.9539 9.65285 27.8665 9.50111C27.7791 9.34938 27.6533 9.22326 27.5019 9.13537C27.3504 9.04749 27.1785 9.00092 27.0034 9.00033C26.8283 8.99974 26.6561 9.04514 26.504 9.132L21 12.276V12C21 10.9391 20.5786 9.92172 19.8284 9.17157C19.0783 8.42143 18.0609 8 17 8H8ZM21 14.58L26 11.724V20.276L21 17.42V14.58ZM6 12C6 11.4696 6.21071 10.9609 6.58579 10.5858C6.96086 10.2107 7.46957 10 8 10H17C17.5304 10 18.0391 10.2107 18.4142 10.5858C18.7893 10.9609 19 11.4696 19 12V20C19 20.5304 18.7893 21.0391 18.4142 21.4142C18.0391 21.7893 17.5304 22 17 22H8C7.46957 22 6.96086 21.7893 6.58579 21.4142C6.21071 21.0391 6 20.5304 6 20V12Z" fill="white" fill-opacity="0.87"/>
<path d="M9.53743 26.1579L9.53544 26.1559C9.3117 26.0198 9.04349 25.9768 8.78845 26.0363C8.5334 26.0958 8.31187 26.253 8.17147 26.4741C8.03107 26.6952 7.983 26.9625 8.0376 27.2186C8.09219 27.4748 8.24509 27.6993 8.46343 27.8439H8.46543L8.46944 27.8479L8.47943 27.8539L8.51543 27.8759C8.54343 27.8959 8.58543 27.9179 8.63743 27.9499C8.74343 28.0099 8.89344 28.0959 9.08544 28.1979C9.46744 28.3979 10.0154 28.6639 10.6894 28.9299C12.0294 29.4579 13.9094 29.9999 15.9994 29.9999C18.0914 29.9999 19.9694 29.4599 21.3094 28.9299C22.0156 28.6518 22.7013 28.3243 23.3614 27.9499L23.4834 27.8759L23.5194 27.8559L23.5294 27.8479L23.5334 27.8459H23.5354C23.7595 27.7038 23.918 27.4784 23.9759 27.2194C24.0339 26.9604 23.9866 26.689 23.8444 26.4649C23.7023 26.2408 23.4769 26.0823 23.2179 26.0244C22.9589 25.9664 22.6875 26.0138 22.4634 26.1559L22.4434 26.1699L22.3514 26.2219C21.7798 26.5454 21.1864 26.8287 20.5754 27.0699C19.3794 27.5399 17.7594 27.9999 15.9994 27.9999C14.2394 27.9999 12.6194 27.5399 11.4214 27.0699C10.8112 26.8286 10.2185 26.5452 9.64743 26.2219C9.61727 26.2042 9.58727 26.1862 9.55743 26.1679L9.53743 26.1579Z" fill="white" fill-opacity="0.87"/>
</svg>
